<svg xmlns="http://www.w3.org/2000/svg" viewBox="0 0 444.99 329.46"><g id="OBJECTS"><path d="M97.21,121.85c91.33-75.41,133.29,11.64,194.43,29s114.22-6.45,137.29,78.21-90,183.38-212.32,163.81S13,191.4,97.21,121.85Z" transform="translate(-27.37 -91.57)" style="fill:#ebf3ff"/><path d="M289.57,113.24c-6.4-10.67-29.67-10-32.65,3.46s-18.56,15-16.92,23.85-12,1.92-13.46,15.28,27.39,38.68,57.44,23,7.36-28.75,9.86-36.78,5.8-13.61,2.27-17S297.22,114.68,289.57,113.24Z" transform="translate(-27.37 -91.57)" style="fill:#4a0945"/><path d="M293.48,382.84l0,.08a.28.28,0,0,1,0-.08Z" transform="translate(-27.37 -91.57)" style="fill:#2b022b"/><path d="M323.78,392.9l-7.15,8.5-25.2-4c.72-6,1.89-13.59,2-14.43l0-.08h19.11S317.63,387.28,323.78,392.9Z" transform="translate(-27.37 -91.57)" style="fill:#ff94a9"/><path d="M345.76,415.82c-1.05,2.89-27.59-3.75-35.57-5.38S291,407.75,290.86,404a62.26,62.26,0,0,1,.57-6.65l25.2,4,7.15-8.5C333.66,401.93,346.42,414,345.76,415.82Z" transform="translate(-27.37 -91.57)" style="fill:#2b022b"/><path d="M280.41,362.52l-11.06,1.08-15.17-20.52c4.71-3.78,10.85-8.4,11.53-8.9l.08,0,13.66,13.36S280,354.2,280.41,362.52Z" transform="translate(-27.37 -91.57)" style="fill:#ff94a9"/><path d="M280.09,394.28c-2.77,1.32-17.1-22-21.66-28.72s-11.86-15.38-9.31-18.13a64.64,64.64,0,0,1,5.06-4.35l15.17,20.52,11.06-1.08C281.16,375.89,281.8,393.47,280.09,394.28Z" transform="translate(-27.37 -91.57)" style="fill:#2b022b"/><path d="M291.59,212.73s36.41,54.66,39.23,64.4-50,75.38-50,75.38-20.51-13.33-19.48-16.41,37.12-57.58,37.12-57.58-36.66-47.8-33.94-55.74,14.14-16.18,14.14-16.18" transform="translate(-27.37 -91.57)" style="fill:#2b022b"/><path d="M240,217.89c-5.39,38.32,19.32,65,38.37,89.35,3.68,38.46,12.91,82.82,13.68,82.05s23.07-3.08,22.3-5.64-4.61-82.82-6.92-89.23-34.87-80.12-34.87-80.12l-25.26,6.58" transform="translate(-27.37 -91.57)" style="fill:#4a0945"/><path d="M335.22,220.76c.73-8.92,1.31-14-2.09-9.42a24.34,24.34,0,0,0-4.23,8.59" transform="translate(-27.37 -91.57)" style="fill:#ff94a9"/><path d="M255.85,223.58,257,207.47l.46-6.41.53-7.45.46-6.4.53-7.46.46-6.4.51-7.09,1.88-15.85,16.52,1,9.34,13s.42,2.36,1.06,6.11c.31,1.8.67,3.93,1.06,6.26s.78,4.72,1.19,7.29c.33,2,.66,4.14,1,6.26.38,2.43.75,4.89,1.1,7.3.31,2.15.6,4.26.87,6.27.49,3.71.89,7.1,1.13,9.84C296.35,228.71,278.92,223.19,255.85,223.58Z" transform="translate(-27.37 -91.57)" style="fill:#fff"/><path d="M294,203.93,257,207.47l.46-6.41,35.62-3.4C293.39,199.81,293.68,201.92,294,203.93Z" transform="translate(-27.37 -91.57)" style="fill:#eaeaea"/><path d="M292,190.36l-34,3.25.46-6.4L291,184.1C291.33,186.13,291.66,188.24,292,190.36Z" transform="translate(-27.37 -91.57)" style="fill:#eaeaea"/><path d="M289.81,176.81,259,179.75l.46-6.4,29.31-2.8C289.06,172.35,289.42,174.48,289.81,176.81Z" transform="translate(-27.37 -91.57)" style="fill:#eaeaea"/><path d="M332.33,207.54l-12.91,8.35L302.73,190.6c3.44-5.93,9-10.06,13-12.43C322.54,190,332.33,207.54,332.33,207.54Z" transform="translate(-27.37 -91.57)" style="fill:#ff94a9"/><path d="M315.74,178.17c-4,2.37-9.57,6.5-13,12.43l-3.79-5.74c.24.39,1.71,3.41-1.25,13.63-3.21,11.06,2.18,25,1.79,24.78a38.35,38.35,0,0,1-10.76-19.13c-2.57-11.64-7.91-48-12.23-54,19.47,2.64,30.62,14.66,33.12,17.89C310.37,169,312.77,173,315.74,178.17Z" transform="translate(-27.37 -91.57)" style="fill:#4ca1ff"/><path d="M237.75,200.06s-11.73-15.89-7.11-31.28,30.21-18.67,30.21-18.67a107.62,107.62,0,0,1,6.58,44c-1.54,24.68-10.13,53.52-12.69,52.76s-23.05-7-25.18-15.81C230.51,225.32,239.86,206.73,237.75,200.06Z" transform="translate(-27.37 -91.57)" style="fill:#4ca1ff"/><path d="M301.85,228.48l14.88-33.26a2.25,2.25,0,0,1,2.28-1.15l20,2.76c.92.13,2.66,2.1,2.31,2.87l-16.14,32a2.28,2.28,0,0,1-2.29,1.16l-19.4-1.28C302.55,231.45,301.51,229.24,301.85,228.48Z" transform="translate(-27.37 -91.57)" style="fill:#90a6ff"/><path d="M304.05,231.77l20,2.77a2.28,2.28,0,0,0,2.29-1.16l14.87-33.25c.35-.77-.12-1.49-1-1.62l-20-2.76a2.25,2.25,0,0,0-2.28,1.15L303,230.16A1.14,1.14,0,0,0,304.05,231.77Z" transform="translate(-27.37 -91.57)" style="fill:#c7ddff"/><path d="M333.54,207.52h0a2.38,2.38,0,0,0,2.39-1.21l1.72-3.85a1.19,1.19,0,0,0-1.09-1.69h0a2.36,2.36,0,0,0-2.38,1.21l-1.73,3.85A1.19,1.19,0,0,0,333.54,207.52Z" transform="translate(-27.37 -91.57)" style="fill:#4a0945"/><path d="M237.75,200.06c4.43-8.2,15.32-9.61,15.32-9.61l7.78,18.07,35.43,6.15s3.71-2.64,6-2.93,8.61-4.13,10.2-3.26-4.67,6.73-4.67,6.73a62.67,62.67,0,0,0,6.78,1c4,.38,9-1.54,8.51.86s-6.44,10.19-11.73,10.48S296,225.19,296,225.19l-39.37-.7a10,10,0,0,1-8.7-5.33Z" transform="translate(-27.37 -91.57)" style="fill:#ff94a9"/><line x1="225.7" y1="98.88" x2="219.93" y2="82.85" style="fill:none;stroke:#0063bc;stroke-linecap:round;stroke-linejoin:round;stroke-width:1.07902px"/><path d="M298.94,184.86c-6-9.22-6.83-16.72-6.83-16.72" transform="translate(-27.37 -91.57)" style="fill:none;stroke:#0063bc;stroke-linecap:round;stroke-linejoin:round;stroke-width:1.07902px"/><path d="M327.73,230.22c-4.94-.64-3.38-6.89-3.38-10s.07-6,1.73-6.15,6.73,3.46,8.27,3.33S336.83,224.39,327.73,230.22Z" transform="translate(-27.37 -91.57)" style="fill:#ff94a9"/><path d="M278.37,144.81c-.4,2.12-.72,4.41-1,6.32-.06.45-.12.88-.18,1.28a20.83,20.83,0,0,1-.5,2.65c-.42,1.29-3.7,3.92-8.21,1.93s-7.56-4.24-7.63-6.88a115.46,115.46,0,0,0,3.31-13.27c.08-.54.14-1.05.19-1.53s.06-.86.06-1.23l1,.8.64.49Z" transform="translate(-27.37 -91.57)" style="fill:#ff94a9"/><path d="M278.37,144.81c-.4,2.12-.72,4.41-1,6.32-.06.45-.12.88-.18,1.28-9.54,2.24-13-4.84-13-15.57,0-.5,0-1,0-1.53h.17l1.73.06Z" transform="translate(-27.37 -91.57)" style="fill:#d9568e"/><path d="M289.57,121.08c-9.16,8.1-22.16,4.26-22.16,4.26s-.15,8.26-1.27,9.08-.17-6.79-5-6S259,138,264,136.78c0,0,3.32,12.45,14.08,11.95S289.05,136.67,289.57,121.08Z" transform="translate(-27.37 -91.57)" style="fill:#ff94a9"/><path d="M278.53,142.46a2.4,2.4,0,1,1-4.79-.42Z" transform="translate(-27.37 -91.57)" style="fill:#fff"/><path d="M262.16,134.73c2.15,0,1.23-4.11-1-3.46" transform="translate(-27.37 -91.57)" style="fill:none;stroke:#d9568e;stroke-linecap:round;stroke-linejoin:round;stroke-width:0.539509px"/><path d="M279.63,132.18c.09.17,1.32,2.75,2.22,4.63a1.59,1.59,0,0,1-1.23,2.26l-2.83.35" transform="translate(-27.37 -91.57)" style="fill:none;stroke:#d9568e;stroke-linecap:round;stroke-linejoin:round;stroke-width:0.539509px"/><path d="M273.26,134.58a1,1,0,1,0,1.21-.77A1,1,0,0,0,273.26,134.58Z" transform="translate(-27.37 -91.57)" style="fill:#4a0945"/><path d="M284.35,133.62a1,1,0,0,0,2,.44,1,1,0,1,0-2-.44Z" transform="translate(-27.37 -91.57)" style="fill:#4a0945"/><path d="M276.13,131s-2.55-1.49-4.3.62" transform="translate(-27.37 -91.57)" style="fill:none;stroke:#4a0945;stroke-linecap:round;stroke-miterlimit:10;stroke-width:0.539509px"/><path d="M287.12,130.54s-2.55-1.48-4.3.62" transform="translate(-27.37 -91.57)" style="fill:none;stroke:#4a0945;stroke-linecap:round;stroke-miterlimit:10;stroke-width:0.539509px"/><path d="M431.3,222.74l-72.37,13.9c-1.57.3-2.6-.62-2.3-2.07l9.6-45.87a4.54,4.54,0,0,1,3.39-3.16L442,171.65c1.56-.3,2.59.62,2.29,2.06l-9.6,45.88A4.52,4.52,0,0,1,431.3,222.74Z" transform="translate(-27.37 -91.57)" style="fill:#6d4aff;opacity:0.41000000000000003"/><path d="M434.38,226.14,362,240c-1.57.3-2.59-.63-2.29-2.07l9.6-45.87a4.53,4.53,0,0,1,3.39-3.16L445.07,175c1.57-.3,2.6.63,2.3,2.07L437.77,223A4.54,4.54,0,0,1,434.38,226.14Z" transform="translate(-27.37 -91.57)" style="fill:none;stroke:#6d4aff;stroke-miterlimit:10;stroke-width:0.539509px;opacity:0.41000000000000003"/><path d="M370,214.52c7.37-1.41,7,4.26,13.72,3s9-11.22,13.94-12.16,2.94,3.77,6.93,3,3.58-8.19,11.67-9.74,7.09-9.49,18.25-11.63" transform="translate(-27.37 -91.57)" style="fill:none;stroke:#fff;stroke-linecap:round;stroke-linejoin:round;stroke-width:1.61853px"/><line x1="346.96" y1="102.16" x2="352.9" y2="101.02" style="fill:none;stroke:#fff;stroke-linecap:round;stroke-linejoin:round;stroke-width:1.61853px"/><line x1="346.07" y1="106.39" x2="357.13" y2="104.27" style="fill:none;stroke:#fff;stroke-linecap:round;stroke-linejoin:round;stroke-width:1.61853px"/><polygon points="358.23 227.26 334.53 236.33 313.98 217.66 337.68 208.59 358.23 227.26" style="fill:#a275ff"/><polygon points="364.99 202.8 358.23 227.26 337.68 208.59 344.44 184.13 364.99 202.8" style="fill:#6d4aff"/><polygon points="313.98 217.66 320.94 193.39 344.44 184.13 337.68 208.59 313.98 217.66" style="fill:#cab1ff"/><polygon points="400.18 190.24 395.11 165.38 416.89 148.16 421.96 173.02 400.18 190.24" style="fill:#a275ff"/><polygon points="423.21 200.91 400.18 190.24 421.96 173.02 444.99 183.69 423.21 200.91" style="fill:#6d4aff"/><polygon points="416.89 148.16 439.69 159 444.99 183.69 421.96 173.02 416.89 148.16" style="fill:#cab1ff"/><path d="M364.77,271.32l-53.22,10.22c-1.81.35-3-.72-2.65-2.38l9.56-45.67a5.2,5.2,0,0,1,3.91-3.64l53.22-10.22c1.81-.35,3,.72,2.64,2.38l-9.56,45.67A5.17,5.17,0,0,1,364.77,271.32Z" transform="translate(-27.37 -91.57)" style="fill:#6d4aff;opacity:0.41000000000000003"/><path d="M360.8,266.91l-53.22,10.22c-1.81.34-3-.72-2.64-2.39l9.56-45.67a5.2,5.2,0,0,1,3.9-3.64l53.23-10.22c1.8-.35,3,.72,2.64,2.38l-9.56,45.67A5.23,5.23,0,0,1,360.8,266.91Z" transform="translate(-27.37 -91.57)" style="fill:none;stroke:#6d4aff;stroke-miterlimit:10;stroke-width:0.539509px;opacity:0.41000000000000003"/><path d="M360.35,247.36c-1.78,8.53-10.75,16.88-20,18.66s-15.33-3.69-13.55-12.21,10.74-16.87,20-18.65l-3.23,15.43,15.07-12.21C360.43,240.58,361.12,243.68,360.35,247.36Z" transform="translate(-27.37 -91.57)" style="fill:#fff"/><path d="M358.64,238.38l-15.07,12.21,3.23-15.43C352.07,234.14,356.3,235.48,358.64,238.38Z" transform="translate(-27.37 -91.57)" style="fill:#6d4aff"/><polyline points="280.79 167.8 307.68 112.58 347.44 96.97" style="fill:none;stroke:#6d4aff;stroke-miterlimit:10;stroke-width:0.539509px;opacity:0.41000000000000003"/><polyline points="313.98 217.66 307.68 112.58 364.99 202.8" style="fill:none;stroke:#6d4aff;stroke-miterlimit:10;stroke-width:0.539509px;opacity:0.41000000000000003"/><polyline points="416.89 148.16 307.68 112.58 400.18 190.24" style="fill:none;stroke:#6d4aff;stroke-miterlimit:10;stroke-width:0.539509px;opacity:0.41000000000000003"/><path d="M133.73,368.69s5.05,41,6.58,42,21.86-43.61,20.51-45.1S149,355.16,149,355.16" transform="translate(-27.37 -91.57)" style="fill:#8136ff"/><path d="M124.59,380.21s-13,39.22-12.09,40.76,38.46-30,37.88-31.92-6.15-14.49-6.15-14.49" transform="translate(-27.37 -91.57)" style="fill:#a275ff"/><path d="M144.5,236.45S125.14,281,123.05,289.82s16.1,76.54,16.1,76.54l14.24-7.31-3.59-66,21.93-51.53" transform="translate(-27.37 -91.57)" style="fill:#2b022b"/><path d="M169.39,243.26s-55.74,39.51-62.92,47.46,18.12,89.49,18.12,89.49,20.41-5.13,19.64-5.65-9.68-68.66-9.68-68.66,52.43-21.33,59.87-34.66a57.1,57.1,0,0,0,7.18-26.16" transform="translate(-27.37 -91.57)" style="fill:#4a0945"/><path d="M150.71,203.2c-5.83,6.46-13.49,14.9-14.08,15.38-1,.77-26.15,2.63-26.15,2.63l.79-13.59,17.67-3s4.61-6.86,10.56-14.67C146.07,193.65,149.38,200,150.71,203.2Z" transform="translate(-27.37 -91.57)" style="fill:#d9568e"/><path d="M213.14,225.12q-1.71,1.49-3.53,2.78l-1.13,2.93c-.44,1.15-1,2.56-1.53,4.07-.74,2-1.53,4.15-2.23,6.17a44.47,44.47,0,0,0-2.22,7.61c-.2,3.07-13,4.13-26.83.67s-33.17-12.6-33-14.81c.15-1.75,4-6.89,6.23-10.69h0c.44-.73.81-1.41,1.09-2a6.37,6.37,0,0,0,.27-.64c.35-.9,1-3,1.74-5.66.39-1.41.83-3,1.26-4.56.59-2.16,1.2-4.4,1.75-6.47,1.23-4.6,2.21-8.39,2.27-8.62l0,0-6.56,7.28c-.1-.25-.21-.51-.34-.79-1.52-3.38-4.8-9-10.87-12.45,6.93-9.07,15.69-19.4,21.17-21.68,10.19-4.23,33.94,1.16,33.94,1.16l3.66.38s20.76,4.49,27.94,16.28C232.79,196.92,225.5,214.37,213.14,225.12Z" transform="translate(-27.37 -91.57)" style="fill:#a275ff"/><path d="M207,234.9c-.74,2-1.53,4.15-2.23,6.17-15.39-3-37.33-9.62-54.71-19.22a6.37,6.37,0,0,0,.27-.64c.35-.9,1-3,1.74-5.66C169.57,225.53,192.19,232.16,207,234.9Z" transform="translate(-27.37 -91.57)" style="fill:#c1b0ff"/><path d="M213.14,225.12q-1.71,1.49-3.53,2.78l-1.13,2.93c-15.77-3.13-38-10-55.2-19.84.59-2.16,1.2-4.4,1.75-6.47C173.39,215.39,198,222.47,213.14,225.12Z" transform="translate(-27.37 -91.57)" style="fill:#c1b0ff"/><path d="M107.14,218.67c2.69-3.24,2.35-8.68,6-6.26s1.7,9.56,1.7,9.56" transform="translate(-27.37 -91.57)" style="fill:#ff94a9"/><path d="M140.56,238.74l-8.63-35.39a2.26,2.26,0,0,0-2-1.55l-20.15-.89c-.92,0-3,1.59-2.79,2.4l10.1,34.39a2.26,2.26,0,0,0,2,1.55l19.32,2.25C139.34,241.55,140.76,239.56,140.56,238.74Z" transform="translate(-27.37 -91.57)" style="fill:#90a6ff"/><path d="M137.8,241.59l-20.15-.89a2.27,2.27,0,0,1-2-1.55L107,203.75c-.2-.81.39-1.44,1.32-1.4l20.15.89a2.27,2.27,0,0,1,2,1.55l8.63,35.4C139.31,241,138.72,241.63,137.8,241.59Z" transform="translate(-27.37 -91.57)" style="fill:#c7ddff"/><path d="M113.17,212.41h0a2.38,2.38,0,0,1-2.13-1.62l-1-4.11c-.2-.85.41-1.5,1.38-1.46h0a2.37,2.37,0,0,1,2.13,1.62l1,4.1C114.76,211.79,114.14,212.45,113.17,212.41Z" transform="translate(-27.37 -91.57)" style="fill:#4a0945"/><path d="M107.66,218.12c5.3.71,12.56-.73,14.33.11s2.82,11.75-.59,13-8.58,1.78-11.16-.59S105,220,107.66,218.12Z" transform="translate(-27.37 -91.57)" style="fill:#ff94a9"/><path d="M194.42,216.11l-14.37,15-32.17-7.5s-12.11-11.67-13.65-10,2.11,9.13,2.11,9.13S121,221,120,221.56s3.94,12.31,9.42,13.65,17.69,1.25,17.69,1.25l33.13,10.86a10.76,10.76,0,0,0,10.6-2.27l18.77-17.15S209.8,216.72,194.42,216.11Z" transform="translate(-27.37 -91.57)" style="fill:#ff94a9"/><line x1="167.05" y1="124.54" x2="180.12" y2="105.95" style="fill:none;stroke:#6d38c9;stroke-linecap:round;stroke-linejoin:round;stroke-width:1.07902px"/><line x1="129.9" y1="104.36" x2="133.2" y2="93.46" style="fill:none;stroke:#6d38c9;stroke-linecap:round;stroke-linejoin:round;stroke-width:1.07902px"/><path d="M178.85,139.72C171,134.14,172.59,129,175.69,129a16.35,16.35,0,0,1,5.18.9s-3.77-4.42-1-6.73,26,4.42,29.43,8.27.45,11,.45,11,7,3.3,1,9.66S200.57,163.18,197,162" transform="translate(-27.37 -91.57)" style="fill:#4a0945"/><path d="M200.06,170.92c-.64,2.56-4.1,4.1-8.94,5.07s-7.47-2.31-7.6-3.66a34.49,34.49,0,0,1,.18-4c.15-1.93.33-4.23.4-6.39l14.78-6.89,1.18-.55C199,158.93,200.06,170.92,200.06,170.92Z" transform="translate(-27.37 -91.57)" style="fill:#ff94a9"/><path d="M199,155.08c-.93,8.45-6.84,15.79-15.33,13.26.15-1.93.33-4.23.4-6.39l14.78-6.89Z" transform="translate(-27.37 -91.57)" style="fill:#d9568e"/><path d="M178.31,134.69c7.19,9.88,20.71,9,20.71,9s-1.64,8.09-.73,9.13,1.64-6.59,6.18-4.82,0,9.92-4.63,7.59c0,0-5.94,11.43-16.33,8.61S175.44,150,178.31,134.69Z" transform="translate(-27.37 -91.57)" style="fill:#ff94a9"/><path d="M202.11,154c-2.08-.51-.3-4.28,1.73-3.16" transform="translate(-27.37 -91.57)" style="fill:none;stroke:#d9568e;stroke-linecap:round;stroke-linejoin:round;stroke-width:0.539509px"/><path d="M186,147.94c-.12.14-1.89,2.39-3.17,4a1.59,1.59,0,0,0,.71,2.47l2.68,1" transform="translate(-27.37 -91.57)" style="fill:none;stroke:#d9568e;stroke-linecap:round;stroke-linejoin:round;stroke-width:0.539509px"/><path d="M193.57,152.07a1,1,0,1,1-2,0,1,1,0,0,1,2,0Z" transform="translate(-27.37 -91.57)" style="fill:#4a0945"/><path d="M181.07,148.32a1,1,0,1,1-1-1A1,1,0,0,1,181.07,148.32Z" transform="translate(-27.37 -91.57)" style="fill:#4a0945"/><path d="M191.54,147.94s2.81-.9,4.06,1.54" transform="translate(-27.37 -91.57)" style="fill:none;stroke:#4a0945;stroke-linecap:round;stroke-miterlimit:10;stroke-width:0.539509px"/><path d="M179,144.72s2.81-.9,4.06,1.54" transform="translate(-27.37 -91.57)" style="fill:none;stroke:#4a0945;stroke-linecap:round;stroke-miterlimit:10;stroke-width:0.539509px"/><path d="M185.82,158.49a3.94,3.94,0,0,0,4-.24" transform="translate(-27.37 -91.57)" style="fill:none;stroke:#d9568e;stroke-linecap:round;stroke-linejoin:round;stroke-width:0.539509px"/><path d="M45.15,262.08,117.53,276c1.57.3,2.6-.62,2.29-2.07L110.22,228a4.53,4.53,0,0,0-3.39-3.16L34.46,211c-1.57-.3-2.6.63-2.29,2.07l9.6,45.87A4.51,4.51,0,0,0,45.15,262.08Z" transform="translate(-27.37 -91.57)" style="fill:#4ca1ff;opacity:0.45"/><path d="M40.68,265.09,113.06,279c1.57.3,2.59-.63,2.29-2.07l-9.6-45.87a4.53,4.53,0,0,0-3.39-3.16L30,214c-1.57-.3-2.6.63-2.3,2.07l9.6,45.87A4.53,4.53,0,0,0,40.68,265.09Z" transform="translate(-27.37 -91.57)" style="fill:none;stroke:#4ca1ff;stroke-miterlimit:10;stroke-width:0.539509px;opacity:0.45"/><line x1="72.18" y1="146.01" x2="18.67" y2="134.22" style="fill:none;stroke:#fff;stroke-linecap:round;stroke-linejoin:round;stroke-width:1.61853px"/><line x1="73.6" y1="153.88" x2="20.09" y2="142.09" style="fill:none;stroke:#fff;stroke-linecap:round;stroke-linejoin:round;stroke-width:1.61853px"/><line x1="75.02" y1="161.75" x2="21.5" y2="149.95" style="fill:none;stroke:#fff;stroke-linecap:round;stroke-linejoin:round;stroke-width:1.61853px"/><line x1="76.44" y1="169.61" x2="42.81" y2="162.2" style="fill:none;stroke:#fff;stroke-linecap:round;stroke-linejoin:round;stroke-width:1.61853px"/><path d="M115.86,296.06l43.31,8.31c.94.19,1.55-.37,1.37-1.23l-5.74-27.45a2.71,2.71,0,0,0-2-1.89l-43.31-8.32c-.94-.18-1.56.37-1.38,1.24l5.75,27.45A2.71,2.71,0,0,0,115.86,296.06Z" transform="translate(-27.37 -91.57)" style="fill:#4ca1ff;opacity:0.45"/><path d="M112.38,299.39l43.31,8.32c.94.18,1.55-.38,1.37-1.24L151.32,279a2.73,2.73,0,0,0-2-1.89L106,268.81c-.94-.18-1.56.38-1.38,1.24l5.75,27.45A2.71,2.71,0,0,0,112.38,299.39Z" transform="translate(-27.37 -91.57)" style="fill:none;stroke:#4ca1ff;stroke-miterlimit:10;stroke-width:0.539509px;opacity:0.45"/><line x1="121.04" y1="189.83" x2="89.02" y2="182.77" style="fill:none;stroke:#fff;stroke-linecap:round;stroke-linejoin:round;stroke-width:0.9685579999999999px"/><line x1="121.89" y1="194.54" x2="89.86" y2="187.48" style="fill:none;stroke:#fff;stroke-linecap:round;stroke-linejoin:round;stroke-width:0.9685579999999999px"/><line x1="122.74" y1="199.24" x2="90.71" y2="192.19" style="fill:none;stroke:#fff;stroke-linecap:round;stroke-linejoin:round;stroke-width:0.9685579999999999px"/><line x1="123.59" y1="203.95" x2="103.46" y2="199.52" style="fill:none;stroke:#fff;stroke-linecap:round;stroke-linejoin:round;stroke-width:0.9685579999999999px"/><polygon points="66.07 268.87 51.45 248.13 64.49 223.62 79.11 244.36 66.07 268.87" style="fill:#4ca1ff"/><polygon points="91.44 269.42 66.07 268.87 79.11 244.36 104.48 244.91 91.44 269.42" style="fill:#0063bc"/><polygon points="64.49 223.62 89.73 224.41 104.48 244.91 79.11 244.36 64.49 223.62" style="fill:#80c3ff"/><polygon points="22.08 107.65 20.09 96.31 30.18 88.77 32.17 100.11 22.08 107.65" style="fill:#4ca1ff"/><polygon points="32.39 112.77 22.08 107.65 32.17 100.11 42.48 105.23 32.39 112.77" style="fill:#0063bc"/><polygon points="30.18 88.77 40.38 93.97 42.48 105.23 32.17 100.11 30.18 88.77" style="fill:#80c3ff"/><polyline points="4.91 120.24 84.92 117.25 92.45 182.35" style="fill:none;stroke:#4ca1ff;stroke-miterlimit:10;stroke-width:0.539509px;opacity:0.45"/><polyline points="82.09 173.91 84.92 117.25 127.42 184.12" style="fill:none;stroke:#4ca1ff;stroke-miterlimit:10;stroke-width:0.539509px;opacity:0.45"/><polyline points="51.45 248.13 84.92 117.25 104.48 244.91" style="fill:none;stroke:#4ca1ff;stroke-miterlimit:10;stroke-width:0.539509px;opacity:0.45"/><polyline points="30.18 88.77 84.92 117.25 32.39 112.77" style="fill:none;stroke:#4ca1ff;stroke-miterlimit:10;stroke-width:0.539509px;opacity:0.45"/></g></svg>