<svg id="Layer_1" data-name="Layer 1" xmlns="http://www.w3.org/2000/svg" viewBox="0 0 414.53 468.07"><g id="Background_Complete" data-name="Background Complete"><path d="M89.54,343.09c-2-2.1-5-2.9-7.67-3.9A41.21,41.21,0,0,1,63,276l-.41-2.11c-.93-9.86-12.83-16.92-21.93-13S28.47,278.27,35,285.75c-10.67.88-17.73,13-16.22,23.65S28,328.7,36.65,335a84.72,84.72,0,0,0,49.21,16.26,6.81,6.81,0,0,0,3.5-.63C91.86,349.19,91.54,345.2,89.54,343.09Z" transform="translate(0 0.01)" style="fill:#e0e0e0"/><path d="M386.89,300c2.45-4,2.8-9.35.31-13.31s-7.95-5.95-12.2-4a8.93,8.93,0,1,0-15.16-9.45c-2.84,4.39-1.34,10.28,1.1,14.91s5.79,9,6.59,14.13-1.2,10.68-4.36,15-7.37,7.7-11.54,11l-.79.76a28.66,28.66,0,0,0,23-2c3.92-2.17,7.55-5.76,7.81-10.23.14-2.5-.79-5-.41-7.48C381.75,305.75,385,303.11,386.89,300Z" transform="translate(0 0.01)" style="fill:#e0e0e0"/><path d="M171.84,463.44c-3.89-.48-7.79-2.18-10.08-5.36-1.46-2-2.17-4.52-3.44-6.68s-3.48-4.11-6-3.87c-3.86.38-6.47,5.72-10.24,4.78-2.26-.57-3.34-3.23-3.35-5.56s.66-4.66.37-7c-.81-6.51-9.17-9.71-15.41-7.67s-15.7,9.55-19.77,14.7c4.28,7.11,13,9.87,21.09,11.89q20.25,5.07,40.85,8.61c3.22.55,6.51,1.08,9.73.57s6.43-2.22,7.92-5.12C179.69,463.34,175.69,463.93,171.84,463.44Z" transform="translate(0 0.01)" style="fill:#e0e0e0"/><path d="M326.69,413.3c-1-5.56-6.54-10.46-12-9.18,4.56-3.76,4.59-11.32,1-16s-9.88-6.71-15.79-6.53-11.58,2.25-17.06,4.45c2.69-3.42-1.25-8.76-5.59-9s-8.23,2.47-11.76,5-7.59,5.16-11.89,4.49l4,1.62c9.65,1.46,19.38,3.71,27.73,8.75s15.24,13.26,16.68,22.91-3.64,20.45-12.79,23.83A38.79,38.79,0,0,0,321.69,429C325.13,424.5,327.69,418.85,326.69,413.3Z" transform="translate(0 0.01)" style="fill:#e0e0e0"/><path d="M9.62,269.1a85.07,85.07,0,0,1-.26-9.31,85.25,85.25,0,0,1,.26-9.32,82.82,82.82,0,0,1,.26,9.32A82.65,82.65,0,0,1,9.62,269.1Z" transform="translate(0 0.01)" style="fill:#e0e0e0"/><path d="M19.25,259.75a91,91,0,0,1-9.63.26A90.82,90.82,0,0,1,0,259.75a88.23,88.23,0,0,1,9.62-.26A88.41,88.41,0,0,1,19.25,259.75Z" transform="translate(0 0.01)" style="fill:#e0e0e0"/><path d="M381.11,364.84a82.65,82.65,0,0,1-.26-9.31,82.82,82.82,0,0,1,.26-9.32,85.25,85.25,0,0,1,.26,9.32A85.07,85.07,0,0,1,381.11,364.84Z" transform="translate(0 0.01)" style="fill:#e0e0e0"/><path d="M390.74,355.52a86,86,0,0,1-9.63.27,86,86,0,0,1-9.63-.27,91,91,0,0,1,9.63-.26A91,91,0,0,1,390.74,355.52Z" transform="translate(0 0.01)" style="fill:#e0e0e0"/><path d="M324.6,45.2a82.82,82.82,0,0,1-.26-9.32,82.65,82.65,0,0,1,.26-9.31,85.07,85.07,0,0,1,.26,9.31A85.25,85.25,0,0,1,324.6,45.2Z" transform="translate(0 0.01)" style="fill:#e0e0e0"/><path d="M334.23,35.88a88.41,88.41,0,0,1-9.63.26,88.41,88.41,0,0,1-9.63-.26,91,91,0,0,1,9.63-.26A91,91,0,0,1,334.23,35.88Z" transform="translate(0 0.01)" style="fill:#e0e0e0"/><circle cx="20.34" cy="181.61" r="5.69" style="fill:#e0e0e0"/><path d="M247.45,424a5.7,5.7,0,1,1-5.71-5.69h0a5.69,5.69,0,0,1,5.7,5.68Z" transform="translate(0 0.01)" style="fill:#e0e0e0"/><path d="M300.41,316.43a5.69,5.69,0,1,1-5.72-5.68,5.69,5.69,0,0,1,5.72,5.68Z" transform="translate(0 0.01)" style="fill:#e0e0e0"/><path d="M131.3,33a5.69,5.69,0,1,1-5.69-5.69A5.69,5.69,0,0,1,131.3,33Z" transform="translate(0 0.01)" style="fill:#e0e0e0"/><circle cx="155.43" cy="369.73" r="2.85" style="fill:#e0e0e0"/><path d="M89.6,355.52a2.85,2.85,0,1,1-2.86-2.84h0a2.84,2.84,0,0,1,2.85,2.83Z" transform="translate(0 0.01)" style="fill:#e0e0e0"/><path d="M159.76,38.75a2.85,2.85,0,1,1-2.85-2.85A2.86,2.86,0,0,1,159.76,38.75Z" transform="translate(0 0.01)" style="fill:#e0e0e0"/><path d="M285.12,192.69a2.85,2.85,0,1,1-2.85-2.85,2.86,2.86,0,0,1,2.85,2.85Z" transform="translate(0 0.01)" style="fill:#e0e0e0"/><path d="M11.82,30.25S5.48,33.52,14.36,46.8s14.7,19.68,14.7,19.68,1.67,3.13-1,4-8.89.59-9.72,4.11,2.07,6.66,7.58,9,17.33,7.66,18.41,8.16,2.21,1.89.46,2.76-15.25,3.91-13.42,10.24,18.21,10.18,20,10.64,2.28,1.13,2.25,2.08S49,119,45.15,120s-8,2.88-6.68,6.44,11.57,10.16,34.42,9.7l10.57-.9,4.68-9.58c8.77-21.1,6.35-33,3.53-35.59s-6.09.7-8.43,3.87-4.59,7.27-5.49,7-1.34-1-1.11-2.86S79.25,79.64,74,75.63,61,83.08,59.6,84.4s-2.33-.29-2.4-1.45-.83-14.28-1-20.2-1.85-9.83-5.56-10.36-5.62,5.36-7.38,7.55-4.07-.48-4.07-.48-3.84-7.76-13-20.87-14.55-8.26-14.55-8.26" transform="translate(0 0.01)" style="fill:#ebebeb"/><path d="M84.29,137.68c-6.66-9.65-18.2-27-28.2-41.87s-19-28.28-25.65-38L22.6,46.37C21.68,45,21,44,20.47,43.26c-.23-.36-.42-.63-.55-.82a1.73,1.73,0,0,1-.17-.29l.2.27.58.8,2.16,3.08c1.89,2.68,4.59,6.58,7.92,11.41,6.68,9.65,15.77,23,25.76,37.92s21.51,32.23,28.12,41.92" transform="translate(0 0.01)" style="fill:#e0e0e0"/><path d="M27,75.25a3.26,3.26,0,0,1,.76.12c.48.09,1.18.25,2,.46,1.71.4,4.07,1,6.65,1.76L43,79.5l2,.57a2.41,2.41,0,0,1,.73.24,3.26,3.26,0,0,1-.76-.12c-.48-.09-1.18-.25-2-.46-1.71-.43-4.06-1.08-6.65-1.82l-6.61-1.86-2-.56A3.36,3.36,0,0,1,27,75.25Z" transform="translate(0 0.01)" style="fill:#e0e0e0"/><path d="M46.39,79.55c-.08,0,1-4.93,2.4-11s2.64-10.92,2.72-10.9-1,4.94-2.4,11S46.48,79.57,46.39,79.55Z" transform="translate(0 0.01)" style="fill:#e0e0e0"/><path d="M60.69,103.05a3.06,3.06,0,0,1,.35-.7l1-1.86c.88-1.57,2.09-3.74,3.34-6.18s2.3-4.69,3-6.32l.89-1.94a3.24,3.24,0,0,1,.36-.69,3.2,3.2,0,0,1-.24.74c-.18.48-.45,1.15-.8,2-.69,1.66-1.72,3.93-3,6.38s-2.49,4.61-3.42,6.15c-.47.77-.86,1.38-1.14,1.8A3.74,3.74,0,0,1,60.69,103.05Z" transform="translate(0 0.01)" style="fill:#e0e0e0"/><path d="M42.27,103A2.93,2.93,0,0,1,43,103l2-.08c1.67,0,4-.09,6.5-.12s4.83,0,6.49,0h2a2.89,2.89,0,0,1,.72,0,2.93,2.93,0,0,1-.72.07l-2,.08c-1.67,0-4,.1-6.5.13s-4.83,0-6.49,0H43A3.47,3.47,0,0,1,42.27,103Z" transform="translate(0 0.01)" style="fill:#e0e0e0"/><path d="M52.27,125.38a5.62,5.62,0,0,1,.92-.08l2.52-.11c2.13-.08,5.07-.16,8.32-.23s6.19-.11,8.32-.13h2.53a7.06,7.06,0,0,1,.92,0,3.55,3.55,0,0,1-.92.09l-2.52.1c-2.13.08-5.07.16-8.32.23s-6.19.12-8.33.13H53.19A4.71,4.71,0,0,1,52.27,125.38Z" transform="translate(0 0.01)" style="fill:#e0e0e0"/><path d="M75.24,124.75a5.24,5.24,0,0,1,.42-.9l1.24-2.4c1-2,2.48-4.83,4-8s2.78-6,3.69-8.1l1.09-2.48a5.62,5.62,0,0,1,.43-.89,6.09,6.09,0,0,1-.31.94c-.23.6-.56,1.46-1,2.52-.86,2.11-2.11,5-3.62,8.16s-3,5.94-4.06,7.94c-.56,1-1,1.8-1.34,2.35A5.16,5.16,0,0,1,75.24,124.75Z" transform="translate(0 0.01)" style="fill:#e0e0e0"/><path d="M355.19,220.75c-11.27-9.83-12.34-25.93-10.32-40.09.33-2.37.34-4.9,1.7-6.86s4.14-3.1,6.15-1.87c1.67,1,2.22,3.15,3,5a14,14,0,0,0,5,5.91c1.43.95,3.25,1.63,4.83,1,2.17-.9,2.71-3.7,2.95-6.07q.67-6.6,1.34-13.2a22,22,0,0,1,1.47-6.93,7.37,7.37,0,0,1,5.13-4.45c2.31-.39,4.95,1.21,5.17,3.57a20.7,20.7,0,0,1-.25,2.94,2.48,2.48,0,0,0,1.2,2.49,2.85,2.85,0,0,0,2.71-.8,31.69,31.69,0,0,0,6.55-7.9,43.86,43.86,0,0,1,6.2-8.2c2.49-2.36,5.77-4.09,9.17-3.92s6.77,2.65,7.27,6-1.81,6.59-4.21,9a52.69,52.69,0,0,1-12.09,9.27,4.44,4.44,0,0,0-2.05,1.78c-.68,1.52.64,3.24,2.14,3.92,1.69.78,3.62.8,5.44,1.22s3.72,1.44,4.23,3.25c.71,2.52-1.58,4.83-3.75,6.27A45.3,45.3,0,0,1,390,188.4a15.22,15.22,0,0,0-5.22,1.88c-1.53,1.06-2.61,3.09-1.94,4.85s2.78,2.52,4.64,2.38a33.41,33.41,0,0,0,5.39-1.42c3.37-.88,7.53-.2,9.31,2.82a7.53,7.53,0,0,1,.08,6.69,17.32,17.32,0,0,1-4.2,5.45,45.76,45.76,0,0,1-20.84,11.52c-7.8,1.8-14.85,1.75-22-1.79" transform="translate(0 0.01)" style="fill:#f5f5f5"/><path d="M359.82,212.22a211.72,211.72,0,0,1,10.87-21.86l3.14-5.58c1-1.83,2.06-3.64,3.17-5.36a108.25,108.25,0,0,1,7-9.48c2.36-2.9,4.7-5.58,6.91-8.06s4.33-4.75,6.34-6.74a84.91,84.91,0,0,1,10.17-8.68c1.28-.92,2.3-1.61,3-2.06l.79-.52.28-.16a1.22,1.22,0,0,1-.25.2l-.77.55c-.68.48-1.68,1.19-2.94,2.13a90.2,90.2,0,0,0-10.06,8.76c-2,2-4.08,4.28-6.28,6.76s-4.53,5.17-6.87,8.08a105,105,0,0,0-6.91,9.46c-1.1,1.7-2.12,3.5-3.15,5.34l-3.14,5.58a219,219,0,0,0-10.85,21.8" transform="translate(0 0.01)" style="fill:#e0e0e0"/><path d="M377.1,179.42a5.58,5.58,0,0,1-.12-1c-.06-.67-.1-1.63-.14-2.83-.08-2.38-.08-5.68-.07-9.31s0-6.93-.14-9.31c-.06-1.19-.11-2.15-.16-2.81a5.57,5.57,0,0,1,0-1,4.9,4.9,0,0,1,.19,1c.1.66.2,1.62.29,2.81.2,2.38.3,5.68.28,9.33s0,6.83-.06,9.31v2.82A5.5,5.5,0,0,1,377.1,179.42Z" transform="translate(0 0.01)" style="fill:#e0e0e0"/><path d="M408,177a6.22,6.22,0,0,1-1.22,0h-3.33c-2.81,0-6.69.14-11,.48s-8.14.82-10.92,1.25c-1.39.2-2.51.4-3.29.53a7,7,0,0,1-1.21.16,6.09,6.09,0,0,1,1.18-.33c.77-.18,1.89-.43,3.28-.67,2.77-.51,6.64-1,10.93-1.38a109.15,109.15,0,0,1,11-.35c1.41,0,2.55.1,3.34.17A5.75,5.75,0,0,1,408,177Z" transform="translate(0 0.01)" style="fill:#e0e0e0"/><path d="M360.25,211.75a1.71,1.71,0,0,1-.17-.39c-.1-.31-.24-.69-.4-1.15-.34-1-.8-2.47-1.34-4.29-1.09-3.63-2.44-8.69-3.85-14.3s-2.71-10.69-3.72-14.34c-.49-1.77-.9-3.23-1.21-4.32-.13-.47-.23-.86-.32-1.18a2.1,2.1,0,0,1-.09-.42,1.18,1.18,0,0,1,.17.4l.4,1.15c.35,1,.81,2.47,1.35,4.28,1.09,3.64,2.43,8.7,3.84,14.31s2.71,10.68,3.72,14.34c.5,1.77.91,3.23,1.21,4.32l.33,1.17A1.2,1.2,0,0,1,360.25,211.75Z" transform="translate(0 0.01)" style="fill:#e0e0e0"/><path d="M402,203.06a3.31,3.31,0,0,1-.42.12l-1.21.26-4.47.94c-3.77.79-9,1.94-14.71,3.21s-10.95,2.39-14.74,3.1c-1.9.35-3.43.63-4.5.79l-1.23.19a1,1,0,0,1-.43,0l.42-.12,1.21-.26,4.47-.94c3.77-.79,9-1.94,14.71-3.22S392,204.75,395.8,204c1.9-.36,3.43-.63,4.5-.79l1.23-.19A1,1,0,0,1,402,203.06Z" transform="translate(0 0.01)" style="fill:#e0e0e0"/><path d="M268.32,51.75c1.81-10.42,6.78-25.65,12.73-34.39S296.17,1.75,306.69.25s22,3.5,26.7,12.93c2.53,5.07,3,10.91,4.84,16.26s5.88,10.72,11.53,11.15c5,.39,9.83-3.22,14.75-2.26,6.42,1.25,8.89,9.15,8.93,15.68s-.9,13.79,3.12,18.94c3.28,4.22,8.91,5.67,13.44,8.5,9.81,6.12,14,18.75,13,30.27S396.7,133.9,391.07,144a252.68,252.68,0,0,0-19-47.88c-4.55-8.72-12.86-16.13-20.21-22.66-11.29-10-36.06-14.81-51.05-16.65s-17.63-2.24-32.46-5" transform="translate(0 0.01)" style="fill:#e0e0e0"/></g><g id="Back_Screens" data-name="Back Screens"><path d="M168.4,64.05c-37.07,2.69-77.55,7.6-107.23,19l9.38,63.43s57.52-20.59,104.33-19.16Z" transform="translate(0 0.01)" style="fill:#c1daf3"/><g style="opacity:0.800000011920929"><path d="M168.4,64.05c-37.07,2.69-77.55,7.6-107.23,19l9.38,63.43s57.52-20.59,104.33-19.16Z" transform="translate(0 0.01)" style="fill:#fff"/></g><path d="M165.69,119l-.36.06-1.05.15-4,.5c-1.76.21-3.91.47-6.4.83s-5.33.72-8.45,1.24a493.09,493.09,0,0,0-48.43,10c-6.5,1.68-12.77,3.41-18.5,5.21l-.29.08v-.29c-2-14.54-3.94-27.08-5.43-36-.76-4.42-1.37-8-1.79-10.41-.21-1.19-.37-2.12-.49-2.78a3.66,3.66,0,0,0-.11-.72,1,1,0,0,1,0-.25,1.09,1.09,0,0,1,.07.24,4,4,0,0,0,.16.71c.13.66.32,1.58.57,2.77.48,2.41,1.15,5.94,1.93,10.38,1.58,8.88,3.58,21.42,5.62,36l-.33-.2c5.75-1.82,12-3.56,18.53-5.24a470.6,470.6,0,0,1,48.5-9.82c3.13-.49,6-.82,8.47-1.15s4.65-.57,6.41-.75l4.06-.41,1.06-.09A1,1,0,0,1,165.69,119Z" transform="translate(0 0.01)" style="fill:#c1daf3"/><path d="M167,103.53s-.14-.44-.43-1.27A13.22,13.22,0,0,0,164.65,99a16.51,16.51,0,0,0-4.5-3.95c-.48-.32-1.05-.56-1.6-.85a14.45,14.45,0,0,0-1.81-.65,10,10,0,0,0-4.13-.4,8.69,8.69,0,0,0-4.2,1.65,14.24,14.24,0,0,0-3.36,3.65c-2,2.89-3.21,6.41-4.71,10.06a12.43,12.43,0,0,1-3.49,5,6.54,6.54,0,0,1-2.89,1.39,5.87,5.87,0,0,1-3.26-.38c-4.22-1.67-6.1-6.54-10.37-8A8.34,8.34,0,0,0,114,107a7.92,7.92,0,0,0-2.51,1.94,13.22,13.22,0,0,0-1.67,2.68c-.95,1.88-1.67,4-3.28,5.45a4.86,4.86,0,0,1-2.88,1.29,5.77,5.77,0,0,1-3-.64,10.93,10.93,0,0,1-4.14-4.07,35.24,35.24,0,0,1-2.19-5,23.41,23.41,0,0,0-2.17-4.51,9,9,0,0,0-3.31-3.08,8.6,8.6,0,0,0-7.6-.22,13,13,0,0,0-4.83,3.48,9.4,9.4,0,0,0-1.81,3.31c-.26.83-.29,1.3-.33,1.29a5.37,5.37,0,0,1,.23-1.32,9,9,0,0,1,1.75-3.41,13.1,13.1,0,0,1,4.87-3.62,8.87,8.87,0,0,1,7.89.17A9.33,9.33,0,0,1,92.5,104a23.65,23.65,0,0,1,2.23,4.58,36.55,36.55,0,0,0,2.19,4.91,10.29,10.29,0,0,0,4,3.88,5.27,5.27,0,0,0,2.75.59,4.43,4.43,0,0,0,2.59-1.18c1.48-1.35,2.2-3.39,3.15-5.3a13.5,13.5,0,0,1,1.74-2.8,8.4,8.4,0,0,1,2.67-2.06,8.89,8.89,0,0,1,6.73-.55c2.27.75,3.9,2.5,5.41,4.08a15.18,15.18,0,0,0,5,4,5.41,5.41,0,0,0,3,.35,6.09,6.09,0,0,0,2.67-1.28,12.17,12.17,0,0,0,3.36-4.8c1.49-3.61,2.8-7.18,4.8-10.11a14.08,14.08,0,0,1,3.48-3.74,9.08,9.08,0,0,1,4.39-1.69,10.24,10.24,0,0,1,4.26.45,15.23,15.23,0,0,1,1.85.69,17.29,17.29,0,0,1,6.13,5,12.72,12.72,0,0,1,1.85,3.37,8.64,8.64,0,0,1,.26,1A1.23,1.23,0,0,1,167,103.53Z" transform="translate(0 0.01)" style="fill:#c1daf3"/><path d="M68.74,95.2c0,.14-.46.35-1.08.47s-1.15.1-1.17,0,.45-.35,1.07-.47S68.69,95.06,68.74,95.2Z" transform="translate(0 0.01)" style="fill:#c1daf3"/><path d="M70.38,106.75c.06.14-.3.43-.81.67s-1,.32-1,.19.31-.42.82-.66S70.32,106.65,70.38,106.75Z" transform="translate(0 0.01)" style="fill:#c1daf3"/><path d="M72.43,119.44c0,.14-.33.39-.84.57s-1,.21-1,.08.33-.39.84-.57S72.38,119.31,72.43,119.44Z" transform="translate(0 0.01)" style="fill:#c1daf3"/><path d="M74.89,131.88c0,.14-.39.4-1,.57s-1.06.22-1.1.08.38-.39.94-.57S74.84,131.75,74.89,131.88Z" transform="translate(0 0.01)" style="fill:#c1daf3"/><path d="M144.8,72.11a5.06,5.06,0,0,1,1.21-.28l3.45-.52c3-.42,7.21-1,12.26-1.59H162V70c.39,4.26.85,9.16,1.33,14.36v.47H163l-16.57,2h-.23v-.22c-.46-4.35-.85-8-1.13-10.59-.12-1.22-.21-2.19-.29-2.93a8.39,8.39,0,0,1-.06-1,9.38,9.38,0,0,1,.18,1.06c.11.74.24,1.73.41,3,.33,2.58.78,6.16,1.33,10.46l-.25-.2L163,84.26l-.23.28v-.21c-.46-5.2-.89-10.11-1.27-14.37l.26.21Z" transform="translate(0 0.01)" style="fill:#c1daf3"/><path d="M160.2,74.63c0,.16-2.85.15-6.33.53s-6.27,1-6.31.81A30.75,30.75,0,0,1,160.2,74.63Z" transform="translate(0 0.01)" style="fill:#c1daf3"/><path d="M160.38,78.35c0,.15-2.66.25-5.91.57s-5.89.72-5.92.57a23.4,23.4,0,0,1,5.87-1.09A22.87,22.87,0,0,1,160.38,78.35Z" transform="translate(0 0.01)" style="fill:#c1daf3"/><path d="M156.41,81.59a10.83,10.83,0,0,1-3.38.69,11.61,11.61,0,0,1-3.43.18,11.43,11.43,0,0,1,3.37-.69A11.68,11.68,0,0,1,156.41,81.59Z" transform="translate(0 0.01)" style="fill:#c1daf3"/><path d="M349.12,82.75c-36.3-11.06-66.93-20.51-108-20.25l-6.28,64.63c42.71,3.78,57,6.58,96.42,20.85Z" transform="translate(0 0.01)" style="fill:#c1daf3"/><g style="opacity:0.800000011920929"><path d="M349.12,82.75c-36.3-11.06-66.93-20.51-108-20.25l-6.28,64.63c42.71,3.78,57,6.58,96.42,20.85Z" transform="translate(0 0.01)" style="fill:#fff"/></g><path d="M266.94,93.82l1.6-13.71a16.06,16.06,0,0,0-11.19,3.1,16.81,16.81,0,0,0-6.88,13.54,19.08,19.08,0,0,0,.05,2h0l16-1.8Z" transform="translate(0 0.01)" style="fill:#c1daf3"/><path d="M283.49,91.58a15.51,15.51,0,0,0-11.41-10.83l-.48-.1-.31-.07-.94-.14h-.08l-1.58,13.65-.38,3.22,15.12,5.52h0a17.63,17.63,0,0,0,.78-3.51A18.94,18.94,0,0,0,283.49,91.58Z" transform="translate(0 0.01)" style="fill:#c1daf3"/><g style="opacity:0.30000001192092896"><path d="M283.49,91.58a15.51,15.51,0,0,0-11.41-10.83l-.48-.1-.31-.07-.94-.14h-.08l-1.58,13.65-.38,3.22,15.12,5.52h0a17.63,17.63,0,0,0,.78-3.51A18.94,18.94,0,0,0,283.49,91.58Z" transform="translate(0 0.01)"/></g><path d="M267.17,98.85l-16,1.8c.67,7.76,6.33,14.19,13.93,15.13s14.73-4,17.23-11.4l-15.12-5.52" transform="translate(0 0.01)" style="fill:#c1daf3"/><path d="M335.09,95a8.66,8.66,0,0,1-1.41-.57c-.89-.41-2.19-1-3.81-1.65A114.94,114.94,0,0,0,317,88.29a116.88,116.88,0,0,0-13.34-3c-1.72-.28-3.13-.48-4.1-.61a7.6,7.6,0,0,1-1.5-.26,9.79,9.79,0,0,1,1.53.06c1,.07,2.39.22,4.13.45A96.13,96.13,0,0,1,330,92.43c1.6.72,2.88,1.34,3.75,1.8A9.87,9.87,0,0,1,335.09,95Z" transform="translate(0 0.01)" style="fill:#c1daf3"/><path d="M334,101.75a10.19,10.19,0,0,1-1.41-.58c-.89-.4-2.19-1-3.81-1.64a113.38,113.38,0,0,0-26.22-7.48c-1.72-.28-3.13-.48-4.1-.61a10.69,10.69,0,0,1-1.5-.26,7.84,7.84,0,0,1,1.53.06c1,.06,2.39.21,4.13.44A96.11,96.11,0,0,1,316,94.5a98.26,98.26,0,0,1,12.89,4.69c1.6.72,2.88,1.34,3.75,1.8A7.53,7.53,0,0,1,334,101.75Z" transform="translate(0 0.01)" style="fill:#c1daf3"/><path d="M332.89,108.52a8.66,8.66,0,0,1-1.41-.57c-.89-.4-2.19-1-3.81-1.65a119.26,119.26,0,0,0-12.88-4.55,121.82,121.82,0,0,0-13.34-3c-1.72-.27-3.12-.48-4.1-.61a7.6,7.6,0,0,1-1.5-.26,9.79,9.79,0,0,1,1.53.06c1,.07,2.39.22,4.13.45a96.78,96.78,0,0,1,26.31,7.51c1.6.72,2.88,1.34,3.75,1.8A7.47,7.47,0,0,1,332.89,108.52Z" transform="translate(0 0.01)" style="fill:#c1daf3"/><path d="M330.69,115.27a11,11,0,0,1-1.37-.57c-.86-.41-2.12-1-3.68-1.64a108,108,0,0,0-25.44-7.49c-1.68-.28-3-.48-4-.61a8.13,8.13,0,0,1-1.46-.26,7.41,7.41,0,0,1,1.49.06c.95.06,2.32.21,4,.45a91.11,91.11,0,0,1,13,2.82,92.86,92.86,0,0,1,12.51,4.72c1.55.72,2.79,1.34,3.62,1.8A7.65,7.65,0,0,1,330.69,115.27Z" transform="translate(0 0.01)" style="fill:#c1daf3"/><path d="M325.91,120.65a8.08,8.08,0,0,1-1.23-.49l-3.31-1.47a80.59,80.59,0,0,0-22.82-6.51l-3.59-.5a8.36,8.36,0,0,1-1.31-.23,5.92,5.92,0,0,1,1.33,0c.86,0,2.09.16,3.61.33a69.57,69.57,0,0,1,22.93,6.54c1.39.66,2.49,1.22,3.25,1.63A6.34,6.34,0,0,1,325.91,120.65Z" transform="translate(0 0.01)" style="fill:#c1daf3"/><path d="M309.78,121.41a17.63,17.63,0,0,1-2.58-.53c-1.58-.37-3.77-.85-6.21-1.26s-4.67-.73-6.28-1a16.25,16.25,0,0,1-2.6-.45,12.26,12.26,0,0,1,2.64.08c1.63.14,3.87.38,6.33.81a57,57,0,0,1,6.21,1.42A11.67,11.67,0,0,1,309.78,121.41Z" transform="translate(0 0.01)" style="fill:#c1daf3"/><path d="M247.37,70.12l.84-.05,2.5-.08c2.2,0,5.4,0,9.48.21a151.3,151.3,0,0,1,33.3,6l.18.06v.19c-2.5,14.33-5.48,31.36-8.66,49.58-.13.74-.26,1.48-.39,2.2v.28l-.28-.07a215.3,215.3,0,0,0-22.23-4.59c-7.17-1.1-14-1.88-20.38-2.28h-.25v-.24c1.75-15.29,3.22-28.09,4.25-37.1.52-4.46.94-8,1.22-10.4.14-1.18.26-2.09.33-2.73a4.85,4.85,0,0,1,.09-.7c0-.18,0-.23,0-.22a1,1,0,0,1,0,.25,3,3,0,0,1-.07.72c-.06.65-.16,1.58-.28,2.78-.25,2.44-.63,6-1.1,10.46-1,9-2.36,21.75-4,37l-.22-.25c6.39.38,13.25,1.15,20.43,2.24A216.93,216.93,0,0,1,284.42,128l-.32.21c.13-.72.26-1.46.39-2.2,3.21-18.22,6.21-35.24,8.73-49.56l.15.25a154.64,154.64,0,0,0-33.18-6.13c-4.06-.27-7.28-.34-9.44-.33h-3.36Z" transform="translate(0 0.01)" style="fill:#c1daf3"/></g><g id="Character"><polyline points="207.74 202.2 243.14 210.04 248.55 202.2 247.67 192.11 242.29 187.19 223.75 187.19 206.44 202.78" style="fill:#c1daf3"/><g style="opacity:0.30000001192092896"><polyline points="207.74 202.2 243.14 210.04 248.55 202.2 247.67 192.11 242.29 187.19 223.75 187.19 206.44 202.78"/></g><path d="M261.69,129.29l44.69-6,7-2s16.11-3.54,17.61-4.08c1.74-.62,2.46.07,2.64.72.29,1-.69,2.17-2.17,2.75-.5.2-8.67,3-8.67,3a20.27,20.27,0,0,1,2.76.8c1.95.66,3.82,3.18,4.76,6.12s.95,3.84-.18,4.26a1.57,1.57,0,0,1-1.3-.18,3.1,3.1,0,0,1-1.34-1.68c-1.57-4.69-4.5-5.06-4.5-5.06l-.92.26s3,2.11,3,4.67a2.88,2.88,0,0,1-.24,1.09,3.88,3.88,0,0,1-2.38,4.93,3.84,3.84,0,0,1-1.93.16c-.64-.12-1.34-.5-1.43-1.14a1.92,1.92,0,0,1,.21-1,4.64,4.64,0,0,0,.16-.53l-2.68.37s-6.07.5-8.68,1l-41.84,12.6a10.83,10.83,0,0,1-13.52-7.22s0-.11-.05-.16h0a10.83,10.83,0,0,1,7.48-13.37A11.38,11.38,0,0,1,261.69,129.29Z" transform="translate(0 0.01)" style="fill:#ffbe9d"/><path d="M307.43,124.41a2.24,2.24,0,0,0,1.93,1.78c.92.19,1.88.07,2.81.19,2.78.38,4.95,2.91,7.74,3.15.39,0,.89,0,1-.42s-.19-.67-.46-.91l-7-6.17" transform="translate(0 0.01)" style="fill:#ffbe9d"/><path d="M313.48,122a5.33,5.33,0,0,1,.82.59c.5.41,1.23,1,2.11,1.76L319.5,127l.88.77c.27.27.73.5.81,1.14a.78.78,0,0,1-.48.74,1.6,1.6,0,0,1-.75.12,5.5,5.5,0,0,1-1.34-.27,36,36,0,0,1-4.47-2.26,7,7,0,0,0-2-.66c-.65-.1-1.29-.08-1.87-.12a3.31,3.31,0,0,1-2.55-1.1,1.23,1.23,0,0,1-.31-1,3,3,0,0,0,.47.84,3.13,3.13,0,0,0,2.4.86q1,0,1.92.06a7.68,7.68,0,0,1,2.14.65,40.49,40.49,0,0,0,4.42,2.21,6.17,6.17,0,0,0,1.21.24c.39,0,.72-.11.68-.31a2,2,0,0,0-.62-.78l-.88-.78-3-2.74-2-1.88C313.69,122.32,313.45,122.06,313.48,122Z" transform="translate(0 0.01)" style="fill:#eb996e"/><path d="M322,128.14a3.74,3.74,0,0,1,1.76,0,2.92,2.92,0,0,1,1.53,1,7.22,7.22,0,0,1,1.1,2.09,12,12,0,0,0,1,2.22,3.87,3.87,0,0,0,1.46,1.41,1.5,1.5,0,0,0,1.37,0c.29-.15.4-.3.39-.31s-.16.08-.44.19a1.51,1.51,0,0,1-1.21-.12,3.94,3.94,0,0,1-1.3-1.36,12.72,12.72,0,0,1-1-2.19,7.45,7.45,0,0,0-1.18-2.16,3.1,3.1,0,0,0-1.71-1.09,2.89,2.89,0,0,0-1.37,0A2.42,2.42,0,0,0,322,128.14Z" transform="translate(0 0.01)" style="fill:#eb996e"/><path d="M332.08,120.45a8.45,8.45,0,0,0-1.63.55l-3.88,1.43-3.88,1.37a8.37,8.37,0,0,0-1.6.61,8,8,0,0,0,1.68-.38c1-.29,2.42-.73,3.94-1.28s2.89-1.09,3.86-1.52A7.2,7.2,0,0,0,332.08,120.45Z" transform="translate(0 0.01)" style="fill:#eb996e"/><path d="M320.86,130.63s.12.16.35.41a1.6,1.6,0,0,1,.51,1.23.86.86,0,0,1-.53.66,5.1,5.1,0,0,1-1.08.3,1.9,1.9,0,0,0-1.21.64,1.67,1.67,0,0,0-.2,1.47,1.87,1.87,0,0,0,1,1.08,2.29,2.29,0,0,0,1.34.2,7.39,7.39,0,0,0,2.07-.77,4.57,4.57,0,0,0,1.2-.89,1.08,1.08,0,0,0,.28-.47,4.36,4.36,0,0,1-.38.37,5.08,5.08,0,0,1-1.21.77,7.88,7.88,0,0,1-2,.68,1.84,1.84,0,0,1-2-1.07,1.31,1.31,0,0,1,.14-1.17,1.62,1.62,0,0,1,1-.53,4.58,4.58,0,0,0,1.14-.36,1.13,1.13,0,0,0,.64-.88,1.69,1.69,0,0,0-.65-1.36A2,2,0,0,0,320.86,130.63Z" transform="translate(0 0.01)" style="fill:#eb996e"/><path d="M319.9,136.2a.76.76,0,0,0-.44.21,1.49,1.49,0,0,0-.5,1.24,2,2,0,0,0,1.19,1.59,3.26,3.26,0,0,0,2.42,0,3.91,3.91,0,0,0,1.93-1.47,3.75,3.75,0,0,0,.65-1.86,3.28,3.28,0,0,0-.15-1.32,1,1,0,0,0-.2-.44,6.69,6.69,0,0,1,.11,1.73,3.71,3.71,0,0,1-2.45,3,3,3,0,0,1-2.18,0,1.76,1.76,0,0,1-1.08-1.32,1.43,1.43,0,0,1,.35-1.12C319.75,136.29,319.92,136.23,319.9,136.2Z" transform="translate(0 0.01)" style="fill:#eb996e"/><path d="M312.47,132.53a1.63,1.63,0,0,0-.29-.78,3.28,3.28,0,0,0-1.63-1.33v.3a9,9,0,0,0,3.8-3.45,19,19,0,0,1-3,2.6,11.3,11.3,0,0,1-1,.56l-.34.18.36.12a3.44,3.44,0,0,1,1.57,1.14C312.31,132.26,312.42,132.54,312.47,132.53Z" transform="translate(0 0.01)" style="fill:#eb996e"/><path d="M326.38,127.75c-.06-.06-.53.46-.59,1.29s.34,1.4.42,1.35-.13-.61-.07-1.33S326.47,127.81,326.38,127.75Z" transform="translate(0 0.01)" style="fill:#eb996e"/><path d="M117.87,143.3s-6.52-10.57-7.68-11.47-11.49-4.68-12.37-4.4-13.4,2.41-12,3.9S96,131.2,96,131.2l1.18.59S89.62,133,88,133.91s-1,2.63.43,2.49,7.93-1.41,8.32-1.14-7.13,1.77-7.94,2.24c-1.09.65-1.2,2.58.18,2.49.81-.06,7.9-1.89,7.9-1.89a60.51,60.51,0,0,0-6.14,2.66,1,1,0,0,0,1,1.76c.84-.18,4.81-2.08,5.93-2.32,0,0,1,.28,2,2.4.44,1,2.46,7.15,6.15,7.07,3.27-.07,6.48,2.62,6.48,2.62Z" transform="translate(0 0.01)" style="fill:#ffbe9d"/><path d="M85.88,131.36a5.67,5.67,0,0,0,2.28.63,13.09,13.09,0,0,0,2.58.11c1-.11,2-.25,3.1-.41l2.34-.34H96a32.83,32.83,0,0,0,5.4,1.69,35.15,35.15,0,0,0-5.21-2.22h-.14l-2.32.31-3.07.45a17.38,17.38,0,0,1-2.5,0C86.78,131.48,85.9,131.27,85.88,131.36Z" transform="translate(0 0.01)" style="fill:#eb996e"/><path d="M113,142.05a2.51,2.51,0,0,1-2.91,0c-.89-.54-1.58-1.36-2.43-2-2.54-1.8-6.21-1.37-8.67-3.29-.34-.26-.68-.7-.49-1.09s.66-.4,1.07-.39l10.31.24" transform="translate(0 0.01)" style="fill:#ffbe9d"/><path d="M109.86,135.56a4.63,4.63,0,0,0-1.11-.14c-.72,0-1.76-.11-3-.16l-4.51-.18H99.93a2,2,0,0,0-1.51.32.88.88,0,0,0-.17,1,1.79,1.79,0,0,0,.52.67,7.08,7.08,0,0,0,1.29.79,39.8,39.8,0,0,0,5.35,1.53,7.86,7.86,0,0,1,2.11,1c.6.41,1.1.91,1.61,1.32a3.65,3.65,0,0,0,2.9,1,1.39,1.39,0,0,0,1-.56,3.2,3.2,0,0,1-1,.34,3.61,3.61,0,0,1-2.6-1.12c-.47-.41-1-.93-1.6-1.4a8.07,8.07,0,0,0-2.23-1.08,45.73,45.73,0,0,1-5.25-1.54,6.16,6.16,0,0,1-1.18-.71c-.33-.27-.49-.64-.31-.78a2.15,2.15,0,0,1,1.09-.16h8.82A4.46,4.46,0,0,0,109.86,135.56Z" transform="translate(0 0.01)" style="fill:#eb996e"/><path d="M168.69,377.53l-2.37,26.22L158.45,424a2.7,2.7,0,0,0,1.54,3.49l.17.06h0a2.7,2.7,0,0,0,2.44-.42c4.43-3.37,20.66-15.87,20.73-17.8.08-2.23,4.36-27.54,4.36-27.54Z" transform="translate(0 0.01)" style="fill:#c1daf3"/><g style="opacity:0.6000000238418579"><path d="M160.16,427.52l23.37-20-.12,1.11a4.1,4.1,0,0,1-1.26,2.51c-1.88,1.76-7.19,6.52-19.47,16a2.68,2.68,0,0,1-2.52.41Z" transform="translate(0 0.01)" style="fill:#fff"/></g><g style="opacity:0.6000000238418579"><path d="M179.12,398.48a1.64,1.64,0,0,0-.68,2.07,1.56,1.56,0,0,0,2,.69,1.71,1.71,0,0,0,.72-2.19,1.63,1.63,0,0,0-2.21-.49" transform="translate(0 0.01)" style="fill:#fff"/></g><path d="M167.45,416.75c-.16.06-.59-1.38-2.07-2.3a8.21,8.21,0,0,0-2.94-.92c0-.06.34-.23,1-.25a4.17,4.17,0,0,1,2.3.69,4.09,4.09,0,0,1,1.57,1.8C167.52,416.37,167.51,416.75,167.45,416.75Z" transform="translate(0 0.01)" style="fill:#263238"/><path d="M165.18,420.06c-.13.1-.88-.85-2.19-1.39a23.58,23.58,0,0,0-2.51-.62,3,3,0,0,1,2.74.09C164.69,418.75,165.33,420,165.18,420.06Z" transform="translate(0 0.01)" style="fill:#263238"/><path d="M171.43,412.67a26.9,26.9,0,0,0-3.24-2.37c-1.94-1.05-3.79-1.17-3.77-1.35a7.39,7.39,0,0,1,7,3.72Z" transform="translate(0 0.01)" style="fill:#263238"/><path d="M172.82,404.75c-.09.15-1.46-.62-3.34-.9s-3.41,0-3.45-.17A6.72,6.72,0,0,1,172.82,404.75Z" transform="translate(0 0.01)" style="fill:#263238"/><path d="M173.69,397.08a13,13,0,0,0-3.45-1,13.41,13.41,0,0,0-3.57.47c0-.06.28-.35.93-.63a5.73,5.73,0,0,1,2.68-.42,5.94,5.94,0,0,1,2.59.83C173.49,396.68,173.76,397,173.69,397.08Z" transform="translate(0 0.01)" style="fill:#263238"/><path d="M170.48,394.59a2.25,2.25,0,0,1,.08-1,6.89,6.89,0,0,1,1.08-2.5,3.17,3.17,0,0,1,1.47-1.31,1.11,1.11,0,0,1,1.19.38,1.78,1.78,0,0,1,.28,1.23,3.82,3.82,0,0,1-3.72,3.13,4.42,4.42,0,0,1-4.06-2.79,1.55,1.55,0,0,1,.07-1.28A1.07,1.07,0,0,1,168,390a3.67,3.67,0,0,1,1.62,1.09,7.72,7.72,0,0,1,1.56,2.24,2.46,2.46,0,0,1,.3.95,12.44,12.44,0,0,0-2.14-2.9,3.47,3.47,0,0,0-1.44-.91.57.57,0,0,0-.64.23,1,1,0,0,0,0,.84,3.93,3.93,0,0,0,3.54,2.38,3.31,3.31,0,0,0,3.2-2.61,1.29,1.29,0,0,0-.16-.86.57.57,0,0,0-.65-.22,2.73,2.73,0,0,0-1.27,1.08A10.24,10.24,0,0,0,170.48,394.59Z" transform="translate(0 0.01)" style="fill:#263238"/><path d="M192.83,392.92l19.63-155.45-6.28-36.14-37,2-4.63,186.72a2.83,2.83,0,0,0,2.3,2.87l21.56,3.33a3.87,3.87,0,0,0,4.41-3.24S192.83,393,192.83,392.92Z" transform="translate(0 0.01)" style="fill:#263238"/><path d="M211.89,242.68,247.6,278l-51.37,12.49,3.65,25.92L269.42,307a21.92,21.92,0,0,0,14.8-8.89h0a21.88,21.88,0,0,0,.34-25.12l-54.18-79.52-24.2,7.89Z" transform="translate(0 0.01)" style="fill:#263238"/><path d="M209.92,233.69a20.21,20.21,0,0,1,1.24,4.44,19.46,19.46,0,0,1,.73,4.55,21.37,21.37,0,0,1-1.24-4.44A20.66,20.66,0,0,1,209.92,233.69Z" transform="translate(0 0.01)" style="fill:#455a64"/><path d="M204.69,293.75l.85-.28,2.5-.78,9.58-2.91,34.86-10.48-.09.33L209.53,234l.45-.14c-.85,7.17-1.74,14.66-2.64,22.3-4.42,37-8.58,70.52-11.79,94.74-1.6,12.11-3,21.9-4,28.66-.57,3.36-1,6-1.34,7.75-.18.87-.33,1.53-.43,2s-.16.68-.16.68a3.26,3.26,0,0,1,.11-.69c.11-.45.22-1.14.38-2,.36-1.76.7-4.39,1.24-7.76,1-6.77,2.32-16.56,3.86-28.68,3.13-24.22,7.22-57.73,11.64-94.75.91-7.64,1.8-15.13,2.65-22.3l.06-.55.38.4,42.75,45.73.22.24-.31.09L217.69,290l-9.62,2.81-2.51.72A2.79,2.79,0,0,1,204.69,293.75Z" transform="translate(0 0.01)" style="fill:#455a64"/><path d="M193.16,390c-.14,0,3.94-33,9.11-73.69s9.48-73.64,9.62-73.62-3.93,33-9.1,73.69S193.31,390,193.16,390Z" transform="translate(0 0.01)" style="fill:#455a64"/><path d="M206.1,217.24a12,12,0,0,1,.82,2.41c.44,1.5,1,3.61,1.5,5.95s.89,4.48,1.12,6a11.31,11.31,0,0,1,.25,2.53,13.11,13.11,0,0,1-.61-2.47c-.37-1.71-.8-3.74-1.27-6s-1-4.26-1.34-6A11.77,11.77,0,0,1,206.1,217.24Z" transform="translate(0 0.01)" style="fill:#455a64"/><path d="M208.39,214.19a1.41,1.41,0,0,1,1.45-.16,1.7,1.7,0,0,1,1.08,1.28,1.85,1.85,0,0,1-.81,1.9,1.79,1.79,0,0,1-2-.21,1.53,1.53,0,0,1-.46-1.61,1.5,1.5,0,0,1,.67-.89c.23-.13.38-.13.39-.1a2,2,0,0,0-.7,1.07,1.15,1.15,0,0,0,.41,1.16,1.37,1.37,0,0,0,1.48.13,1.43,1.43,0,0,0,.6-1.37,1.35,1.35,0,0,0-.76-1A2.72,2.72,0,0,0,208.39,214.19Z" transform="translate(0 0.01)" style="fill:#455a64"/><path d="M258.12,284.07c-.11.11-2.12-1.74-5-3.4s-5.48-2.52-5.43-2.67a19.67,19.67,0,0,1,10.43,6.07Z" transform="translate(0 0.01)" style="fill:#455a64"/><path d="M180.94,95.36l-20.5,9.9,8.84,61.68-3.47,27.68a10.8,10.8,0,0,0,3.61,9.49h0l33.11-.65,23.16-12.71,10.65-1.8L232,167.88,234,138l24.23,12.93a8.43,8.43,0,0,0,6.09.73l44.39-11.53L306.38,123l-40.22,4.55-30.63-27.06-22.8-5.13-4-6.71H185.36l-1.67,1.22A4.93,4.93,0,0,0,182,92.18Z" transform="translate(0 0.01)" style="fill:#c1daf3"/><path d="M160.44,105.26a24.62,24.62,0,0,0-9.23,12c-2.34,7.28-7.63,36.71-7.63,36.71l-23.29-14.42-13.42,14.11,31,27.38a15.79,15.79,0,0,0,17.29,2.39h0A15.8,15.8,0,0,0,164,171.34l3.81-27.91Z" transform="translate(0 0.01)" style="fill:#c1daf3"/><polygon points="230.39 193.45 228.95 191.33 213.62 194.16 210.79 200.69 230.39 193.45" style="fill:#ffbe9d"/><path d="M169.42,204.11c13.7,5.51,28.33,3.48,41.37-3.43,3.94-2.09,7.59-4.68,11.55-6.74s8.34-3.57,12.79-3.26,8.93,2.76,10.71,6.85,0,9.65-4.19,11.18l1.48,1.32c6.15-2.86,9.07-11.14,6.07-17.23-2.3-4.66-7.14-7.45-10.68-11.26-5.21-5.6-5.75-16.44-5.79-24.88" transform="translate(0 0.01)" style="fill:#c1daf3"/><path d="M199.47,107.29a5.57,5.57,0,0,1-1,0,3.85,3.85,0,0,0-2.43,1.12,5.74,5.74,0,0,0-1.21,3.91,13.36,13.36,0,0,0,1.11,5.25l.39.86-.75-.56a40.06,40.06,0,0,1-5.17-4.57,38.07,38.07,0,0,1-7.94-12.16,28.16,28.16,0,0,1-1.29-4.22,11,11,0,0,1-.23-1.61,47.85,47.85,0,0,0,1.86,5.69,40.3,40.3,0,0,0,8,11.94,42.82,42.82,0,0,0,5.08,4.53l-.37.31a12,12,0,0,1-.85-2.81,12.38,12.38,0,0,1-.23-2.65,5.9,5.9,0,0,1,1.41-4.12,3.86,3.86,0,0,1,2.63-1.07A4.1,4.1,0,0,1,199.47,107.29Z" transform="translate(0 0.01)" style="fill:#263238"/><path d="M200.69,107.29c1.69-.73,4.19.34,5.4,1.72.8.92,1.25,2.18,2.3,2.78s4.39,1.07,5.36.33c0,0,.59-2.85.91-4a89.15,89.15,0,0,0,2.27-13.68c-3.22-1.57-2.33-3.63-8.14-3.23a14.78,14.78,0,0,1,.21,8.18" transform="translate(0 0.01)" style="fill:#c1daf3"/><path d="M209,99.36c-.06,0,.21-.77.33-2.19a16.1,16.1,0,0,0-.72-5.93l-.07-.24h.24a9.84,9.84,0,0,1,4.28.38,6.6,6.6,0,0,1,2,1.43,7.85,7.85,0,0,0,2,1.38l.16.08v.17c-.26,2.43-.55,5.08-1,7.82-.3,1.79-.66,3.52-1.08,5.17s-.75,3.24-1.1,4.74v.1l-.06,0a3.13,3.13,0,0,1-1.72.41,10.66,10.66,0,0,1-1.6-.1,9.55,9.55,0,0,1-1.5-.33,3.17,3.17,0,0,1-1.31-.71,12.9,12.9,0,0,1-1.54-2.12,5.4,5.4,0,0,0-1.58-1.43,4.63,4.63,0,0,0-4-.74,2.29,2.29,0,0,1,1.08-.31,6,6,0,0,1,4.71,2.28,13.41,13.41,0,0,0,1.53,2,5,5,0,0,0,2.6.9,9.81,9.81,0,0,0,1.53.08,2.88,2.88,0,0,0,1.44-.33l-.09.14c.34-1.51.66-3.13,1.07-4.77s.77-3.36,1.06-5.14c.46-2.72.76-5.36,1-7.78l.14.25a8.6,8.6,0,0,1-2.16-1.47,6,6,0,0,0-1.83-1.36,9.74,9.74,0,0,0-4.08-.42l.17-.25a15.58,15.58,0,0,1,.57,6.07,11.23,11.23,0,0,1-.34,1.63A2,2,0,0,1,209,99.36Z" transform="translate(0 0.01)" style="fill:#263238"/><path d="M243.17,193.75v-1.14a7.09,7.09,0,0,0-1-3.09,10.43,10.43,0,0,0-3.68-3.55,15.55,15.55,0,0,0-6.56-1.8c-2.54-.23-5.36-.09-8.39-.3a31.59,31.59,0,0,1-9.46-2,19.47,19.47,0,0,1-8.53-6.38,14.91,14.91,0,0,1-2.45-5.13,19.39,19.39,0,0,1-.56-5.83c.15-4,1.06-7.71,1.61-11.35a85.87,85.87,0,0,0-3.27-40.24c-.42-1.37-.81-2.41-1.06-3.12-.12-.34-.21-.61-.28-.82a1.29,1.29,0,0,1-.08-.28,2.34,2.34,0,0,1,.13.26c.08.18.19.47.33.8.28.7.7,1.73,1.16,3.1a82.48,82.48,0,0,1,3.12,11.76,83.13,83.13,0,0,1,.43,28.63c-.54,3.66-1.44,7.4-1.59,11.29a16.25,16.25,0,0,0,2.9,10.64,19,19,0,0,0,8.3,6.23,31.25,31.25,0,0,0,9.31,2c3,.22,5.82.11,8.4.37a15.67,15.67,0,0,1,6.74,1.95,10.41,10.41,0,0,1,3.7,3.7,6.85,6.85,0,0,1,.92,3.18,4.24,4.24,0,0,1-.05.87A1,1,0,0,1,243.17,193.75Z" transform="translate(0 0.01)" style="fill:#263238"/><path d="M228.21,175.54a9.32,9.32,0,0,1-1.15,1.2c-.38.37-.86.82-1.44,1.31s-1.22,1.08-2,1.65a53.89,53.89,0,0,1-5.53,3.83,56.74,56.74,0,0,1-15.16,6.35,55,55,0,0,1-6.61,1.25c-.95.15-1.81.2-2.57.26s-1.41.1-1.95.11a9.2,9.2,0,0,1-1.66,0,11.42,11.42,0,0,1,1.65-.19,16,16,0,0,0,1.93-.19c.75-.1,1.61-.16,2.55-.33a63.24,63.24,0,0,0,6.54-1.36,59.28,59.28,0,0,0,15-6.3,62.38,62.38,0,0,0,5.56-3.7c.77-.55,1.43-1.11,2-1.58s1.09-.89,1.49-1.24A11.22,11.22,0,0,1,228.21,175.54Z" transform="translate(0 0.01)" style="fill:#263238"/><path d="M221.77,142.75a1.71,1.71,0,0,1-.09.55l-.35,1.56a20.43,20.43,0,0,1-.66,2.44c-.3.94-.59,2-1.06,3.18-.23.58-.46,1.19-.7,1.82s-.57,1.26-.86,1.93c-.58,1.35-1.34,2.71-2.11,4.16a57.71,57.71,0,0,1-13.68,16.31c-1.3,1-2.51,2-3.74,2.8-.6.41-1.17.83-1.75,1.19l-1.67,1a29.64,29.64,0,0,1-2.95,1.61,23.66,23.66,0,0,1-2.28,1.07l-1.48.62a2.55,2.55,0,0,1-.53.18,2.39,2.39,0,0,1,.49-.28l1.43-.7c.63-.29,1.39-.66,2.24-1.15s1.86-1,2.89-1.66l1.64-1c.57-.36,1.13-.79,1.73-1.2,1.2-.81,2.39-1.8,3.67-2.82a59.46,59.46,0,0,0,13.57-16.17c.78-1.44,1.55-2.78,2.13-4.11.31-.66.63-1.29.89-1.91l.72-1.8c.5-1.13.81-2.2,1.13-3.13s.57-1.74.75-2.41l.44-1.53A2.11,2.11,0,0,1,221.77,142.75Z" transform="translate(0 0.01)" style="fill:#263238"/><path d="M179.6,209.13a6,6,0,0,1-1.83-1.36,13.84,13.84,0,0,1-4.17-9.93,6.15,6.15,0,0,1,.3-2.25,21.09,21.09,0,0,1,.07,2.24,15.69,15.69,0,0,0,4.07,9.69C179,208.53,179.69,209.06,179.6,209.13Z" transform="translate(0 0.01)" style="fill:#263238"/><path d="M178.87,201.34c.15,0-.13,1.33,0,2.9s.62,2.8.48,2.87a6,6,0,0,1-.49-5.77Z" transform="translate(0 0.01)" style="fill:#263238"/><path d="M169,165.54a1.91,1.91,0,0,1-.12-.47c-.07-.37-.15-.82-.25-1.36-.21-1.26-.5-3-.84-5-.7-4.23-1.7-10.07-2.9-16.5s-2.37-12.25-3.2-16.46c-.42-2-.77-3.72-1-5-.11-.54-.19-1-.26-1.35a1.35,1.35,0,0,1-.06-.49,1.93,1.93,0,0,1,.16.46c.1.37.21.81.35,1.34.3,1.16.71,2.85,1.19,4.94,1,4.18,2.19,10,3.4,16.42s2.13,12.3,2.74,16.54c.31,2.13.54,3.85.68,5,.06.55.11,1,.15,1.38A1.46,1.46,0,0,1,169,165.54Z" transform="translate(0 0.01)" style="fill:#263238"/><path d="M233,165.54a2.72,2.72,0,0,1-.05-.49V158.4c0-4.41.24-10.5.75-17.21s1.18-12.77,1.7-17.15c.27-2.13.49-3.88.66-5.18q.12-.84.21-1.41a2.73,2.73,0,0,1,.1-.48,1.4,1.4,0,0,1,0,.5c0,.38-.07.85-.11,1.41-.12,1.31-.29,3.06-.49,5.2-.43,4.38-1,10.44-1.55,17.15s-.76,12.78-.9,17.18c-.06,2.14-.11,3.9-.15,5.22l0,1.42A1.41,1.41,0,0,1,233,165.54Z" transform="translate(0 0.01)" style="fill:#263238"/><path d="M153,168.12c-.17.07-1.49-3.57-4-7.53s-5.55-6.45-5.42-6.58a9,9,0,0,1,2,1.59,27.44,27.44,0,0,1,3.9,4.7,32.32,32.32,0,0,1,2.8,5.42A10.06,10.06,0,0,1,153,168.12Z" transform="translate(0 0.01)" style="fill:#263238"/><path d="M154.76,163.75a18.6,18.6,0,0,1-1.12-2,15.6,15.6,0,0,0-3.46-4,22,22,0,0,0-4.57-2.79,13.83,13.83,0,0,1-2-1,7.85,7.85,0,0,1,2.17.64,17.47,17.47,0,0,1,4.76,2.73A13.35,13.35,0,0,1,154,161.6,6.59,6.59,0,0,1,154.76,163.75Z" transform="translate(0 0.01)" style="fill:#263238"/><path d="M165.06,139.75a2.52,2.52,0,0,1-.21.44,4.24,4.24,0,0,1-.91,1.07,6.07,6.07,0,0,1-4.9,1.32,9.48,9.48,0,0,1-6.16-4.35,20.76,20.76,0,0,1-2-4c-.28-.73-.56-1.47-.8-2.25a6.15,6.15,0,0,1-.28-2.52,3.47,3.47,0,0,1,1.22-2.27,2.86,2.86,0,0,1,2.47-.44,4.85,4.85,0,0,1,3.29,3.12,4.69,4.69,0,0,1-.41,4.09,5.11,5.11,0,0,1-2.85,2.19,4.48,4.48,0,0,1-3-.14,5,5,0,0,1-1.85-1.26,4,4,0,0,1-.78-1.17c-.13-.3-.17-.46-.15-.47a6.31,6.31,0,0,0,1.07,1.5,5,5,0,0,0,1.81,1.13,4.32,4.32,0,0,0,2.75.06,4.72,4.72,0,0,0,2.59-2.06,4.27,4.27,0,0,0,.33-3.7,4.35,4.35,0,0,0-3-2.79,2.41,2.41,0,0,0-2,.36,2.9,2.9,0,0,0-1,1.92c-.18,1.55.52,3.07,1,4.51a20.48,20.48,0,0,0,2,4,9.21,9.21,0,0,0,5.82,4.26,6,6,0,0,0,4.71-1.12A7.37,7.37,0,0,0,165.06,139.75Z" transform="translate(0 0.01)" style="fill:#fafafa"/><path d="M204.38,155.08l-.28.23c-.2.17-.48.38-.83.65a22.31,22.31,0,0,1-3.44,2.16,10.69,10.69,0,0,1-2.81.94,7.33,7.33,0,0,1-3.51-.23,12.38,12.38,0,0,1-6.33-5.58,20.38,20.38,0,0,1,.18-21.25,11.05,11.05,0,0,1,4.71-4.4,6.09,6.09,0,0,1,3.37-.43,4.61,4.61,0,0,1,3,1.71,4.9,4.9,0,0,1,.94,3.41,7.73,7.73,0,0,1-1.08,3.4,11.07,11.07,0,0,1-5.56,4.51,14.35,14.35,0,0,1-7.14.74,14.69,14.69,0,0,1-6.43-2.67,22.1,22.1,0,0,1-7.57-10.6,12.86,12.86,0,0,1-.92-6.07,6.11,6.11,0,0,1,1.17-2.76,4.21,4.21,0,0,1,2.44-1.59,5.33,5.33,0,0,1,5,1.74,5.72,5.72,0,0,1,1.21,4.79,7.59,7.59,0,0,1-2.05,4,9.62,9.62,0,0,1-3.38,2.21,15.29,15.29,0,0,1-6.35,1,35.66,35.66,0,0,1-4-.41l-1.05-.17-.35-.07h.36l1,.12c.92.09,2.28.27,4,.31a15.44,15.44,0,0,0,6.24-1,9.51,9.51,0,0,0,3.25-2.17,7.28,7.28,0,0,0,1.93-3.87,5.35,5.35,0,0,0-1.15-4.47,5,5,0,0,0-4.64-1.58,4.59,4.59,0,0,0-3.25,4,12.17,12.17,0,0,0,.92,5.84,21.62,21.62,0,0,0,7.4,10.35,14.27,14.27,0,0,0,6.22,2.56,13.74,13.74,0,0,0,6.87-.71,10.5,10.5,0,0,0,5.3-4.28,7.32,7.32,0,0,0,1-3.18,4.34,4.34,0,0,0-.83-3,4.16,4.16,0,0,0-2.7-1.53,5.68,5.68,0,0,0-3.1.39,10.52,10.52,0,0,0-4.49,4.2,19.54,19.54,0,0,0-3,11.1,19.85,19.85,0,0,0,2.77,9.7,12.08,12.08,0,0,0,6.11,5.49,8.24,8.24,0,0,0,6.14-.61,24.83,24.83,0,0,0,3.47-2.07l.86-.6A2,2,0,0,1,204.38,155.08Z" transform="translate(0 0.01)" style="fill:#fafafa"/><path d="M176.79,99a3.16,3.16,0,0,1-.32.89,13.94,13.94,0,0,1-1.29,2.25,16.43,16.43,0,0,1-14.82,7.07,13.83,13.83,0,0,1-2.55-.41,3.12,3.12,0,0,1-.9-.32c0-.09,1.32.29,3.47.37a17.23,17.23,0,0,0,14.51-6.92C176.18,100.18,176.69,98.92,176.79,99Z" transform="translate(0 0.01)" style="fill:#fafafa"/><path d="M191.56,103.22a6.46,6.46,0,0,0-4.65,4c-.06,0-.08-.4.12-1a4.65,4.65,0,0,1,3.54-3C191.18,103.08,191.56,103.16,191.56,103.22Z" transform="translate(0 0.01)" style="fill:#fafafa"/><path d="M212.69,109.1a2.2,2.2,0,0,1-.85-.39,7.09,7.09,0,0,1-3.27-5.27,3.34,3.34,0,0,1,.62-2.25,2.31,2.31,0,0,1,2.31-1,2.57,2.57,0,0,1,1.82,1.75,2.4,2.4,0,0,1-.46,2.3,3.24,3.24,0,0,1-3.62,1,4.08,4.08,0,0,1-2-1.64,2,2,0,0,1-.37-.86,8.53,8.53,0,0,0,.54.74,4.12,4.12,0,0,0,1.93,1.41,2.87,2.87,0,0,0,3.13-.91,1.93,1.93,0,0,0,.35-1.85,2.09,2.09,0,0,0-1.45-1.39,1.8,1.8,0,0,0-1.8.78,3,3,0,0,0-.54,1.91,6.68,6.68,0,0,0,1.21,3.36A10.34,10.34,0,0,0,212.69,109.1Z" transform="translate(0 0.01)" style="fill:#fafafa"/><path d="M216.69,97.43a12.71,12.71,0,0,0-3.31-2.31,13.27,13.27,0,0,0-4-.68c0-.06.43-.24,1.2-.29a6.57,6.57,0,0,1,3,.49A6.87,6.87,0,0,1,216,96.37C216.56,97,216.75,97.4,216.69,97.43Z" transform="translate(0 0.01)" style="fill:#fafafa"/><path d="M244.19,109.07a1.25,1.25,0,0,1-.19.12l-.6.32a24,24,0,0,1-2.41,1,28.85,28.85,0,0,1-9.42,1.77,13.73,13.73,0,0,1-3.2-.31,7.05,7.05,0,0,1-3.15-1.54,4.69,4.69,0,0,1-1.55-3.42,5.86,5.86,0,0,1,1.33-3.76,7.73,7.73,0,0,1,8-2,9.29,9.29,0,0,1,6.38,6.18,9.13,9.13,0,0,1-1.91,8.67,14,14,0,0,1-7.4,4,42.94,42.94,0,0,1-7.59.77,41.05,41.05,0,0,0-6.55.64,13.25,13.25,0,0,0-8.05,4.59,9.53,9.53,0,0,0-1.54,3.11.89.89,0,0,1,0-.23,2.64,2.64,0,0,1,.16-.66,8.44,8.44,0,0,1,1.18-2.34,13.25,13.25,0,0,1,8.15-4.83,39.54,39.54,0,0,1,6.6-.71,42,42,0,0,0,7.5-.8,13.62,13.62,0,0,0,7.13-3.86,8.61,8.61,0,0,0,1.79-8.18,8.77,8.77,0,0,0-6-5.84,7.28,7.28,0,0,0-7.46,1.86,5.31,5.31,0,0,0-1.24,3.45,4.21,4.21,0,0,0,1.38,3.11,6.66,6.66,0,0,0,3,1.47,13.5,13.5,0,0,0,3.1.33,30.15,30.15,0,0,0,9.36-1.59c1.06-.37,1.87-.7,2.42-.93A5.68,5.68,0,0,1,244.19,109.07Z" transform="translate(0 0.01)" style="fill:#fafafa"/><path d="M219.25,148.34c-.09,0-.43-.84-1.35-2a10.28,10.28,0,0,0-10.21-3.85c-1.45.28-2.29.7-2.33.62a5.45,5.45,0,0,1,2.25-1,9.87,9.87,0,0,1,10.6,4A5.44,5.44,0,0,1,219.25,148.34Z" transform="translate(0 0.01)" style="fill:#fafafa"/><path d="M230.93,155.9a4.85,4.85,0,0,1-1.37,2,8.39,8.39,0,0,1-11,.87,5,5,0,0,1-1.67-1.78c.07-.07.64.68,1.88,1.47a8.79,8.79,0,0,0,5.39,1.4,8.92,8.92,0,0,0,5.11-2.23C230.4,156.67,230.85,155.84,230.93,155.9Z" transform="translate(0 0.01)" style="fill:#fafafa"/><path d="M234,136c0,.08-.65-.29-1.71-.57a7.34,7.34,0,0,0-7.66,2.45c-.7.85-1,1.49-1.06,1.46a3.5,3.5,0,0,1,.77-1.68,7,7,0,0,1,8.06-2.58A3.58,3.58,0,0,1,234,136Z" transform="translate(0 0.01)" style="fill:#fafafa"/><path d="M271.23,126.8a7.76,7.76,0,0,1,.3,1.66,6.74,6.74,0,0,1,0,1.27,12.57,12.57,0,0,1-2.87,7.45,12.82,12.82,0,0,1-10.51,5,16.79,16.79,0,0,1-12.85-6.35,10.2,10.2,0,0,1-1.81-3.47,6.59,6.59,0,0,1,.06-3.81,4.93,4.93,0,0,1,2.34-2.86,5.34,5.34,0,0,1,3.52-.41,5.86,5.86,0,0,1,3,1.57,6.93,6.93,0,0,1,1.64,2.71,9.09,9.09,0,0,1-.05,5.58,10.61,10.61,0,0,1-2.36,4,11.11,11.11,0,0,1-2.75,2.12,10.52,10.52,0,0,1-2,.82,4.85,4.85,0,0,1-.76.14,15.25,15.25,0,0,0,2.7-1.13,10.83,10.83,0,0,0,4.86-6,8.82,8.82,0,0,0,0-5.33,6.34,6.34,0,0,0-1.55-2.52,5.47,5.47,0,0,0-2.74-1.43,4.91,4.91,0,0,0-3.2.38,4.39,4.39,0,0,0-2.08,2.58,6,6,0,0,0-.05,3.51,9.35,9.35,0,0,0,1.72,3.29,16.43,16.43,0,0,0,12.44,6.19,13.07,13.07,0,0,0,13.22-12A20,20,0,0,0,271.23,126.8Z" transform="translate(0 0.01)" style="fill:#fafafa"/><path d="M278.94,147.51a2.86,2.86,0,0,1-.61-.69,7.27,7.27,0,0,1-1.09-2.26,9.33,9.33,0,0,1-.15-3.72,35.3,35.3,0,0,1,1-4.42,31.67,31.67,0,0,1,3.58-7.38c.56-.88,1-1.59,1.38-2.06a3.61,3.61,0,0,1,.57-.72,24.13,24.13,0,0,1-1.63,3,37,37,0,0,0-3.4,7.34,40.68,40.68,0,0,0-1,4.34,9.27,9.27,0,0,0,0,3.56A13.14,13.14,0,0,0,278.94,147.51Z" transform="translate(0 0.01)" style="fill:#fafafa"/><path d="M297.88,124.5a2.39,2.39,0,0,1,.3.72,13,13,0,0,1,.5,2,18.3,18.3,0,0,1-3,13.37,11.65,11.65,0,0,1-1.32,1.65c-.35.36-.55.55-.58.53s.67-.89,1.59-2.38a20.92,20.92,0,0,0,2.57-6.31,20.44,20.44,0,0,0,.33-6.8C298.11,125.58,297.79,124.53,297.88,124.5Z" transform="translate(0 0.01)" style="fill:#fafafa"/><path d="M232.44,171.27A2.22,2.22,0,0,1,232,171a13,13,0,0,0-1.22-.66,14.58,14.58,0,0,0-4.88-1.37,14.79,14.79,0,0,0-7.34,1.18,12.55,12.55,0,0,0-3.67,2.43,7.71,7.71,0,0,0-1.44,1.78,3.54,3.54,0,0,0-.5,2.2,2.63,2.63,0,0,0,1.06,1.88,2.15,2.15,0,0,0,2,.09,3.58,3.58,0,0,0,1.86-3.51,7.11,7.11,0,0,0-3.71-6,7.24,7.24,0,0,0-4.9-.64,18.42,18.42,0,0,0-1.78.57,1.88,1.88,0,0,1,.42-.27,6.93,6.93,0,0,1,1.31-.5,7.32,7.32,0,0,1,5.12.52,7.47,7.47,0,0,1,4,6.33,5.29,5.29,0,0,1-.43,2.26,3.38,3.38,0,0,1-1.7,1.73,2.65,2.65,0,0,1-2.53-.13,3.15,3.15,0,0,1-1.3-2.25,4,4,0,0,1,.57-2.51,7.83,7.83,0,0,1,1.54-1.9,13.13,13.13,0,0,1,3.83-2.5,15,15,0,0,1,7.57-1.11,13.61,13.61,0,0,1,4.93,1.56A9.16,9.16,0,0,1,232,171C232.32,171.14,232.46,171.25,232.44,171.27Z" transform="translate(0 0.01)" style="fill:#fafafa"/><path d="M236.06,179.54a6.55,6.55,0,0,1-1.21,2.29c-.79,1.19-1.52,2.09-1.64,2a6.55,6.55,0,0,1,1.21-2.29C235.21,180.36,235.94,179.46,236.06,179.54Z" transform="translate(0 0.01)" style="fill:#fafafa"/><path d="M248.76,193.85c-.08,0-.22-.35-.57-.87a5.17,5.17,0,0,0-4.07-2.26,5.24,5.24,0,0,1-1,0,1.63,1.63,0,0,1,1-.34,4.55,4.55,0,0,1,4.4,2.45C248.8,193.41,248.82,193.84,248.76,193.85Z" transform="translate(0 0.01)" style="fill:#fafafa"/><path d="M207.45,188.75c0,.07-1.2.68-3.13,1.79a27.14,27.14,0,0,0-6.8,5.25,14.54,14.54,0,0,0-3.61,7.64A17.75,17.75,0,0,0,194,207a3.09,3.09,0,0,1-.28-.94,9.12,9.12,0,0,1-.14-2.66,14,14,0,0,1,3.58-8,24.47,24.47,0,0,1,7-5.24c1-.51,1.82-.89,2.39-1.14A3.42,3.42,0,0,1,207.45,188.75Z" transform="translate(0 0.01)" style="fill:#fafafa"/><path d="M222.14,193.64a3.63,3.63,0,0,1-1.09-1.2,6.68,6.68,0,0,1,.63-7.47,2.9,2.9,0,0,1,1.27-1c.06.08-.43.45-1,1.23a7.18,7.18,0,0,0-.59,7.07C221.79,193.12,222.21,193.58,222.14,193.64Z" transform="translate(0 0.01)" style="fill:#fafafa"/><path d="M199.18,175.52a6,6,0,0,0-.58-.58,4.1,4.1,0,0,0-2.08-.92,5.21,5.21,0,0,0-3.49.72,10.65,10.65,0,0,0-3.31,3.5c-1,1.52-1.82,3.35-3.09,5.13a10.94,10.94,0,0,1-5.51,4.12,10.23,10.23,0,0,1-7.57-.44,10.81,10.81,0,0,1-5.57-5.94,6.53,6.53,0,0,1-.17-4.21,5.88,5.88,0,0,1,2.6-3.18,6,6,0,0,1,3.86-.89,6.36,6.36,0,0,1,3.43,1.63,8.39,8.39,0,0,1,2.71,6.29,10.33,10.33,0,0,1-1.86,5.71,11.64,11.64,0,0,1-3.62,3.4,14.35,14.35,0,0,1-3.43,1.5,15.29,15.29,0,0,1-2.31.48l-.61.07h-.22a5.84,5.84,0,0,1,.81-.17,17.56,17.56,0,0,0,2.27-.58,14.28,14.28,0,0,0,3.34-1.55,11.4,11.4,0,0,0,3.46-3.35,10,10,0,0,0,1.74-5.51,8,8,0,0,0-2.6-5.93,5.85,5.85,0,0,0-3.17-1.49,5.57,5.57,0,0,0-3.54.82,5.45,5.45,0,0,0-2.37,2.91,5.94,5.94,0,0,0,.17,3.88,10.37,10.37,0,0,0,5.3,5.65,9.7,9.7,0,0,0,7.2.44,10.48,10.48,0,0,0,5.31-3.92c1.25-1.71,2.11-3.54,3.13-5.07a10.83,10.83,0,0,1,3.48-3.55,5.38,5.38,0,0,1,3.66-.67,4.1,4.1,0,0,1,2.12,1A2.52,2.52,0,0,1,199.18,175.52Z" transform="translate(0 0.01)" style="fill:#fafafa"/><path d="M199.51,191.1a4.55,4.55,0,0,1-1.61-1.27,11,11,0,0,1-2.77-9.28,4.86,4.86,0,0,1,.65-2c.09,0-.15.77-.28,2a12.19,12.19,0,0,0,2.67,9C199,190.54,199.57,191,199.51,191.1Z" transform="translate(0 0.01)" style="fill:#fafafa"/><path d="M203.19,168.05s-.7-.34-2-.85a24,24,0,0,0-14.4-1.08,19.58,19.58,0,0,0-4.8,1.8,3.26,3.26,0,0,0-1.59,1.9,1.83,1.83,0,0,0,1,2,1,1,0,0,0,1-.32,2.46,2.46,0,0,0,.6-1.11,9.16,9.16,0,0,0,.23-2.66,12,12,0,0,0-1.28-4.91,11.47,11.47,0,0,0-2.82-3.63,11.24,11.24,0,0,0-3.49-2,12.26,12.26,0,0,0-5.79-.58c-1.38.22-2.11.53-2.12.48a2.38,2.38,0,0,1,.51-.24,11.07,11.07,0,0,1,7.53,0,11.57,11.57,0,0,1,3.64,2,12,12,0,0,1,3,3.74,12.34,12.34,0,0,1,1.36,5.11,9.54,9.54,0,0,1-.24,2.82,3.14,3.14,0,0,1-.73,1.34,1.62,1.62,0,0,1-1.56.45,2,2,0,0,1-1.19-1.07,2.64,2.64,0,0,1-.22-1.54,3.7,3.7,0,0,1,1.84-2.24,19.37,19.37,0,0,1,5-1.82,23.59,23.59,0,0,1,8.86-.33,22.46,22.46,0,0,1,5.73,1.68,13.77,13.77,0,0,1,1.48.76C203,167.93,203.2,168,203.19,168.05Z" transform="translate(0 0.01)" style="fill:#fafafa"/><path d="M125.26,170.92a18.5,18.5,0,0,0,1.61-1.48,14,14,0,0,0,3.14-5,10.9,10.9,0,0,0-.25-8.46,10.72,10.72,0,0,0-3.19-3.94,9,9,0,0,0-5-1.89,5.72,5.72,0,0,0-2.64.55,3.42,3.42,0,0,0-1.76,1.79,2.56,2.56,0,0,0,.36,2.32,3.8,3.8,0,0,0,1.89,1.41,5.16,5.16,0,0,0,4.33-.74,7.27,7.27,0,0,0,2.63-3,15.1,15.1,0,0,0,1.25-5.74,11,11,0,0,1,.07-1.63,2.09,2.09,0,0,1,0-.56,1.75,1.75,0,0,1,0,.56v1.63a14.38,14.38,0,0,1-1.06,6,7.69,7.69,0,0,1-2.72,3.18,5.59,5.59,0,0,1-4.71.83,4.22,4.22,0,0,1-2.16-1.58,3.08,3.08,0,0,1-.43-2.77,3.81,3.81,0,0,1,2-2.08,6.27,6.27,0,0,1,2.89-.61,9.42,9.42,0,0,1,5.33,2,11.28,11.28,0,0,1,3.32,4.15,10.56,10.56,0,0,1,1,4.69,12,12,0,0,1-.82,4.1,13.69,13.69,0,0,1-3.35,5,8.65,8.65,0,0,1-1.26,1A2.72,2.72,0,0,1,125.26,170.92Z" transform="translate(0 0.01)" style="fill:#fafafa"/><path d="M146,185.8a3.63,3.63,0,0,1-.78-.83,16,16,0,0,1-1.72-2.6,18.45,18.45,0,0,1,1.29-19.57,16.57,16.57,0,0,1,2-2.35,4.41,4.41,0,0,1,.91-.7c.07.08-1.18,1.14-2.62,3.29a19,19,0,0,0-1.27,19.19A40.6,40.6,0,0,0,146,185.8Z" transform="translate(0 0.01)" style="fill:#fafafa"/><path d="M165.53,164.05c-.09,0-.51-1.5-1.75-3.71A20.56,20.56,0,0,0,148,149.89c-2.52-.28-4.1-.06-4.1-.16a4.16,4.16,0,0,1,1.1-.19,18.78,18.78,0,0,1,3,0,19.76,19.76,0,0,1,16.1,10.65,17.61,17.61,0,0,1,1.17,2.8A4,4,0,0,1,165.53,164.05Z" transform="translate(0 0.01)" style="fill:#fafafa"/><g style="opacity:0.30000001192092896"><path d="M192.86,192c-1,.41-.87,1.93-.07,2.59a4.3,4.3,0,0,0,3,.64,38.6,38.6,0,0,0,29.63-16.64c-9,7.41-20.9,10.22-32.31,12.8" transform="translate(0 0.01)"/></g><g style="opacity:0.30000001192092896"><path d="M191.07,181.84c-1-1.51-.32-3.63,1-4.91a16.63,16.63,0,0,1,4.62-2.75,29.18,29.18,0,0,0,13.48-13.83c1.82-3.94,3.19-8.77,7.22-10.39a39.06,39.06,0,0,1-25.71,30.66" transform="translate(0 0.01)"/></g><g style="opacity:0.30000001192092896"><path d="M162.69,130a101.48,101.48,0,0,1-2.3,32.68,27.77,27.77,0,0,0-1.11,6.89A9.19,9.19,0,0,0,162.6,176c1.66-3.83,1.69-7.52,2.39-11.64.63-3.71,1.69-12.38,1.69-12.51.15-7.58-1.64-14.08-4.56-20.91" transform="translate(0 0.01)"/></g><g style="opacity:0.30000001192092896"><path d="M181.53,97.16a39.92,39.92,0,0,0,11.32,21.24c2.21,2.15,5,4.14,8.05,4a18.85,18.85,0,0,1-1.55-11.78,49,49,0,0,0,8.24,4.48,16.37,16.37,0,0,0,9.2,1l1.9-16.53a3,3,0,0,0-.17-1.86,1.07,1.07,0,0,0-1.44-.47.6.6,0,0,0-.15.09,1.59,1.59,0,0,0-.31.73c-1.12,4.85-1.75,9.2-2.88,14.06-.81.8-3.3.47-4.94-.14-1.43-.53-2-1.71-2.92-2.9s-.78-1-2.18-1.58c-2.58-1.09-7.53-.22-8.61,2.09s-.26,5.36.46,7.64A34.65,34.65,0,0,1,181,97" transform="translate(0 0.01)"/></g><g style="opacity:0.30000001192092896"><path d="M236.06,120.62c-.2.4,6.23,22.08,6.23,22.08L234,138Z" transform="translate(0 0.01)"/></g><path d="M184.3,57.75V92.26a8.37,8.37,0,0,0,2,5.39h0a25.08,25.08,0,0,0,6.94,5.74l7,3.93,5.76-5.15a8.37,8.37,0,0,0,2.79-5.91c.1-2.52.09-5,.09-5s9.76-.7,10.68-10.32c.43-4.54.57-13.82.59-22.37a18.73,18.73,0,0,0-17.26-18.82h-.27A17.89,17.89,0,0,0,184.3,57.2Z" transform="translate(0 0.01)" style="fill:#ffbe9d"/><path d="M208.8,91.18a23.32,23.32,0,0,1-12.23-4.75s2.52,7.3,12.21,7.23Z" transform="translate(0 0.01)" style="fill:#eb996e"/><path d="M217.22,64.68A1.38,1.38,0,0,1,215.78,66a1.32,1.32,0,0,1-1.31-1.33v0a1.38,1.38,0,0,1,1.44-1.28,1.31,1.31,0,0,1,1.31,1.31Z" transform="translate(0 0.01)" style="fill:#263238"/><path d="M217.61,62.38c-.18.16-1.16-.7-2.64-.82s-2.63.54-2.77.34.12-.39.63-.7a3.78,3.78,0,0,1,2.23-.49,3.62,3.62,0,0,1,2.09.87C217.58,62,217.69,62.3,217.61,62.38Z" transform="translate(0 0.01)" style="fill:#263238"/><path d="M203.26,64a1.38,1.38,0,0,1-1.44,1.28,1.34,1.34,0,0,1-1.32-1.34v0a1.39,1.39,0,0,1,1.44-1.28,1.32,1.32,0,0,1,1.32,1.32Z" transform="translate(0 0.01)" style="fill:#263238"/><path d="M203,61.45c-.19.16-1.17-.69-2.65-.81s-2.62.53-2.77.33.13-.39.63-.7a3.83,3.83,0,0,1,2.24-.52,3.68,3.68,0,0,1,2.09.87C203,61,203.13,61.37,203,61.45Z" transform="translate(0 0.01)" style="fill:#263238"/><path d="M207.5,72.87a10,10,0,0,1,2.44-.24c.38,0,.75,0,.83-.3a1.86,1.86,0,0,0-.16-1.14c-.28-1-.57-1.94-.88-3a57.49,57.49,0,0,1-1.88-7.74,57.2,57.2,0,0,1,2.5,7.57c.29,1,.57,2,.83,3a2.21,2.21,0,0,1,.08,1.5,1,1,0,0,1-.67.5,2.36,2.36,0,0,1-.65,0A10,10,0,0,1,207.5,72.87Z" transform="translate(0 0.01)" style="fill:#263238"/><path d="M203.06,73.53c.24,0,.11,1.62,1.39,2.87s3,1.22,3,1.44-.4.29-1.13.25A4,4,0,0,1,203.81,77a3.5,3.5,0,0,1-1.06-2.4C202.74,73.9,203,73.51,203.06,73.53Z" transform="translate(0 0.01)" style="fill:#263238"/><path d="M203.9,55.68c-.18.39-1.64.08-3.39.14s-3.2.42-3.4,0c-.09-.18.18-.54.78-.88a5.89,5.89,0,0,1,5.18-.14C203.69,55.15,204,55.49,203.9,55.68Z" transform="translate(0 0.01)" style="fill:#263238"/><path d="M217.42,58.05c-.29.31-1.28-.12-2.5-.24s-2.28,0-2.49-.33c-.1-.18.1-.51.58-.79a3.64,3.64,0,0,1,4,.46C217.44,57.53,217.55,57.89,217.42,58.05Z" transform="translate(0 0.01)" style="fill:#263238"/><path d="M195.63,48h-.06a7.61,7.61,0,0,0-3.22,4.73V53c-.61,2.71-.77,5.51-1.4,8.22s-.51,4.78-3.23,5.39A3.6,3.6,0,0,1,183.94,65a2.47,2.47,0,0,1-.25-1.28c0-6.68-1.3-9.27-.72-16.2A5.87,5.87,0,0,1,185.79,43c1.54-.92,3.4-1.86,5-1s3.4,4.09,4.54,5.48" transform="translate(0 0.01)" style="fill:#263238"/><path d="M187.18,62.34c-.15-.08-6.45-2.5-6.79,4.1s6.37,5.58,6.39,5.39S187.18,62.34,187.18,62.34Z" transform="translate(0 0.01)" style="fill:#ffbe9d"/><path d="M184.89,69.22a1.91,1.91,0,0,1-.32.16,1.16,1.16,0,0,1-.86,0,2.83,2.83,0,0,1-1.19-2.63,3.68,3.68,0,0,1,.41-1.63,1.34,1.34,0,0,1,.91-.84.58.58,0,0,1,.66.35c.08.19,0,.32.06.33s.15-.1.11-.37a.72.72,0,0,0-.24-.43.82.82,0,0,0-.62-.2,1.6,1.6,0,0,0-1.26,1,4,4,0,0,0-.49,1.82,3,3,0,0,0,1.53,2.94,1.28,1.28,0,0,0,1.06-.12C184.87,69.38,184.91,69.24,184.89,69.22Z" transform="translate(0 0.01)" style="fill:#eb996e"/><path d="M190.41,43c-1.41-2.77,3.35-6.18,6.68-6.94s7.49,1.19,10.64,2.53c2,.84,3.94,2,6.09,2a15,15,0,0,0,4.26-.71,10.75,10.75,0,0,1,4.29-.49,4,4,0,0,1,3.32,2.53A2.49,2.49,0,0,1,224.08,45l-.39.09a3.25,3.25,0,0,1,2.65,5.93,3.18,3.18,0,0,1-2.29.14c1-.64,2.34.65,2.12,1.81a3.39,3.39,0,0,1-2.45,2.31c-2.85,1-6,.33-8.78-.86s-5.28-2.9-8-4.16-7.3-3.5-10.21-2.73c-2.15.56-3.8,3-4.93,2.29A4,4,0,0,1,190,46.75a11.52,11.52,0,0,1,.44-3.74" transform="translate(0 0.01)" style="fill:#263238"/><path d="M224.52,45c-.05,0-.38.45-1.15,1.16a9,9,0,0,1-3.86,2.06,8.33,8.33,0,0,1-6.26-.78c-2.15-1.18-3.9-3.35-5.95-5.43a13.77,13.77,0,0,0-7.11-4.16,7.62,7.62,0,0,0-6.5,1.66,5.75,5.75,0,0,0-1.84,4.13,4.26,4.26,0,0,0,.18,1.23,1.44,1.44,0,0,0,.18.4,9.8,9.8,0,0,1-.11-1.62,5.63,5.63,0,0,1,1.9-3.8,7.22,7.22,0,0,1,6.06-1.41,13.33,13.33,0,0,1,6.76,4c2,2,3.81,4.25,6.12,5.49a9,9,0,0,0,10.58-1.62,6.88,6.88,0,0,0,.78-1C224.47,45.16,224.54,45,224.52,45Z" transform="translate(0 0.01)" style="fill:#455a64"/><path d="M185.53,61.92a1.75,1.75,0,0,0,.59-.66,4.5,4.5,0,0,0,.53-2.36c0-2.14-1.66-4.57-1.66-7.52a6.7,6.7,0,0,1,1.06-3.87,5,5,0,0,1,2.64-1.91,4.4,4.4,0,0,1,2.22-.12c.53.13.8.28.83.23s-.22-.26-.75-.47a4.16,4.16,0,0,0-2.42-.09,5.38,5.38,0,0,0-3,2,7,7,0,0,0-1.22,4.23,12.19,12.19,0,0,0,.93,4.25,12.92,12.92,0,0,1,.92,3.28A5.11,5.11,0,0,1,185.53,61.92Z" transform="translate(0 0.01)" style="fill:#455a64"/></g><g id="Lines"><path d="M212.69,252.63H211.2l-4.36.06c-3.84.06-9.5.21-16.78.56s-16.18,1-26.47,2.2c-5.13.62-10.63,1.32-16.42,2.28s-11.89,2.08-18.24,3.53-13,3.17-19.72,5.38a131.51,131.51,0,0,0-20.45,8.43,67.05,67.05,0,0,0-9.8,6.27,31.33,31.33,0,0,0-8,8.78c-.25.44-.51.87-.74,1.32l-.56,1.41-.29.71c-.08.24-.12.49-.19.74l-.35,1.48a14.81,14.81,0,0,0,.3,6.11c1,4.05,3.65,7.54,6.72,10.48,6.26,5.89,14.25,10,22.54,13.42a185.9,185.9,0,0,0,26.27,8.31A345.63,345.63,0,0,0,182,342.54a458.15,458.15,0,0,0,58,.23,365.88,365.88,0,0,0,53.56-7,226.5,226.5,0,0,0,24.28-6.55,120.23,120.23,0,0,0,21.71-9.46,60,60,0,0,0,9.15-6.51,26.43,26.43,0,0,0,6.62-8.44l.5-1.22a6.71,6.71,0,0,0,.42-1.24l.3-1.26c.05-.21.12-.42.15-.63v-.65a12.59,12.59,0,0,0-.38-5,17.85,17.85,0,0,0-2.11-4.51,27,27,0,0,0-3.1-3.81,46.86,46.86,0,0,0-7.32-6,74.85,74.85,0,0,0-7.76-4.62,133.41,133.41,0,0,0-15.12-6.74,231.41,231.41,0,0,0-25.36-7.82c-7.07-1.76-12.62-2.88-16.39-3.6-1.88-.37-3.33-.61-4.29-.8l-1.47-.28s2,.29,5.78,1,9.33,1.77,16.42,3.51A224.84,224.84,0,0,1,321,268.88a134.1,134.1,0,0,1,15.18,6.71,78.46,78.46,0,0,1,7.8,4.63,47.27,47.27,0,0,1,7.39,6.07,28.23,28.23,0,0,1,3.14,3.85,17.9,17.9,0,0,1,2.19,4.61,13.05,13.05,0,0,1,.4,5.2l0,.66a3.05,3.05,0,0,1-.15.65l-.31,1.29a7,7,0,0,1-.43,1.27l-.5,1.25a26.85,26.85,0,0,1-6.71,8.58,60.35,60.35,0,0,1-9.22,6.58A120.63,120.63,0,0,1,318,329.75a224.6,224.6,0,0,1-24.33,6.59,366.64,366.64,0,0,1-53.63,7,455.54,455.54,0,0,1-58.07-.22,345.69,345.69,0,0,1-57.42-8.47,185.22,185.22,0,0,1-26.34-8.34c-8.31-3.46-16.34-7.57-22.68-13.53-3.11-3-5.84-6.54-6.85-10.72a15.34,15.34,0,0,1-.3-6.29l.37-1.53c.06-.26.11-.51.19-.76l.29-.73.59-1.44c.23-.46.5-.91.75-1.36a31.75,31.75,0,0,1,8.15-8.9,67.48,67.48,0,0,1,9.88-6.3,131.88,131.88,0,0,1,20.52-8.43c6.78-2.2,13.4-3.92,19.76-5.36s12.48-2.58,18.28-3.49,11.3-1.65,16.44-2.25c10.3-1.15,19.21-1.76,26.49-2.11s12.95-.44,16.79-.47h5.85Z" transform="translate(0 0.01)" style="fill:#c1daf3"/><path d="M131,176.86s-.57.13-1.68.35-2.77.54-4.94,1c-4.34.9-10.73,2.29-18.84,4.51a193.48,193.48,0,0,0-28.82,10.21c-2.71,1.24-5.49,2.61-8.26,4.18a79.94,79.94,0,0,0-8.29,5.32,46.6,46.6,0,0,0-7.65,7A24.17,24.17,0,0,0,47.3,219a17.48,17.48,0,0,0,.83,11.19,28.74,28.74,0,0,0,6.92,9.69c5.92,5.67,13.43,10,21.42,13.67,16.11,7.32,34.5,12.23,54,15.89a451.2,451.2,0,0,0,62,6.84,535,535,0,0,0,67-1.19c22.86-1.91,45.11-5.27,66-10.77A198.08,198.08,0,0,0,355.6,254a102.62,102.62,0,0,0,13.49-7.2,51.93,51.93,0,0,0,11.45-9.66c3.19-3.73,5.54-8.3,5.68-13.12a13.33,13.33,0,0,0-.06-1.79,13.12,13.12,0,0,0-.19-1.77l-.39-1.74A12.78,12.78,0,0,0,385,217a25.28,25.28,0,0,0-3.43-6.13,47.08,47.08,0,0,0-10.15-9.37,92.89,92.89,0,0,0-11.61-6.79A164.53,164.53,0,0,0,336,185.37c-7.84-2.45-15.48-4.4-22.82-6a440.39,440.39,0,0,0-70.61-9c-8.4-.43-14.94-.45-19.37-.56l-5-.11-1.71-.06h1.71l5,.06c4.43.08,11,.06,19.38.47A434.44,434.44,0,0,1,313.3,179c7.35,1.62,15,3.55,22.86,6A164.27,164.27,0,0,1,360,194.36a92.16,92.16,0,0,1,11.68,6.74,47.93,47.93,0,0,1,10.25,9.45,25.76,25.76,0,0,1,3.5,6.25,11.59,11.59,0,0,1,.58,1.72l.41,1.78a27.83,27.83,0,0,1,.26,3.65,18.7,18.7,0,0,1-1.74,7.16,26.55,26.55,0,0,1-4,6.26,52,52,0,0,1-11.56,9.76,103.32,103.32,0,0,1-13.65,7.3,198.39,198.39,0,0,1-30.15,10.37c-21,5.51-43.25,8.88-66.14,10.79a533.11,533.11,0,0,1-67,1.18,452.81,452.81,0,0,1-62-6.87c-19.55-3.69-38-8.62-54.12-16-8-3.73-15.55-8.05-21.52-13.79a29.33,29.33,0,0,1-7-9.82A17.9,17.9,0,0,1,47,218.85a24.35,24.35,0,0,1,5.27-9.64A45.94,45.94,0,0,1,60,202.13a77.84,77.84,0,0,1,8.33-5.32c2.78-1.57,5.57-2.94,8.29-4.18a192.22,192.22,0,0,1,28.93-10.13c8.13-2.19,14.53-3.55,18.88-4.42S131,176.86,131,176.86Z" transform="translate(0 0.01)" style="fill:#c1daf3"/><path d="M166,327.75l-5,.79c-3.27.52-8.08,1.35-14.23,2.69a182.38,182.38,0,0,0-22,6.21,104.16,104.16,0,0,0-13.1,5.7,56.41,56.41,0,0,0-6.64,4.06A34,34,0,0,0,99,352.64a19.87,19.87,0,0,0-2.42,3.48,14,14,0,0,0-1.49,4c-.05.36-.14.72-.17,1.09l-.07,1.1c0,.73.1,1.47.16,2.21a20.41,20.41,0,0,0,.58,2.17l.42,1.05.21.53.28.49a24.69,24.69,0,0,0,6,7.07,49.15,49.15,0,0,0,8.06,5.41,107.23,107.23,0,0,0,18.85,7.87,194.64,194.64,0,0,0,21,5.37A312.7,312.7,0,0,0,196.62,400a375.84,375.84,0,0,0,50-.87c17.08-1.48,33.7-4.09,49.27-8.49a124.12,124.12,0,0,0,22.2-8.46,56,56,0,0,0,9.65-6.23c.76-.57,1.41-1.27,2.11-1.9s1.27-1.38,1.91-2.06a18.31,18.31,0,0,0,2.84-4.75,12.71,12.71,0,0,0-.44-10.55,25.33,25.33,0,0,0-6.88-8c-5.51-4.38-11.77-7.33-17.88-9.78a150.38,150.38,0,0,0-18.19-5.83c-5.94-1.53-11.71-2.74-17.24-3.71a342.33,342.33,0,0,0-53-4.85l-19.53-.1s6.95-.09,19.53,0a338.67,338.67,0,0,1,53,4.75c5.55,1,11.32,2.17,17.27,3.7a151.93,151.93,0,0,1,18.28,5.87c6.12,2.45,12.4,5.4,18,9.81a25.62,25.62,0,0,1,7,8.11,13,13,0,0,1,.45,10.77,18.62,18.62,0,0,1-2.88,4.83c-.65.69-1.24,1.44-1.94,2.09a25.56,25.56,0,0,1-2.12,1.91,55.76,55.76,0,0,1-9.71,6.28A124,124,0,0,1,296,391a266.89,266.89,0,0,1-49.32,8.5,376.75,376.75,0,0,1-50.06.87,313.14,313.14,0,0,1-46.29-5.55,195.38,195.38,0,0,1-21-5.4,106,106,0,0,1-18.9-7.9,49.62,49.62,0,0,1-8.09-5.45A24.79,24.79,0,0,1,96.3,369l-.29-.5-.21-.54-.43-1.06c-.27-.72-.38-1.48-.58-2.21a8.55,8.55,0,0,1-.16-2.26l.07-1.12a7,7,0,0,1,.18-1.1,13.74,13.74,0,0,1,1.51-4.11,20.26,20.26,0,0,1,2.45-3.51,34.41,34.41,0,0,1,6.15-5.47,56.16,56.16,0,0,1,6.68-4.07,102.53,102.53,0,0,1,13-5.71,181.46,181.46,0,0,1,22.07-6.17c6.15-1.32,11-2.13,14.24-2.63S166,327.75,166,327.75Z" transform="translate(0 0.01)" style="fill:#c1daf3"/><path d="M296.61,419.22a10.22,10.22,0,0,0-.83-3.65c-.93-2.29-3.42-5.14-7.33-7.72-7.85-5.17-21-9.51-37.52-12.17A226.1,226.1,0,0,0,223.69,393a261.92,261.92,0,0,0-31.45.58c-5.53.43-11.18,1.07-16.91,2A160.32,160.32,0,0,0,158,399.26c-2.91.78-5.82,1.69-8.69,2.74a69.42,69.42,0,0,0-8.49,3.7A34.54,34.54,0,0,0,133.1,411c-2.27,2.12-4.12,5-4.17,8.2s1.89,6.08,4.16,8.21a34.25,34.25,0,0,0,7.6,5.31,68.76,68.76,0,0,0,8.49,3.7,90.08,90.08,0,0,0,8.69,2.75,161,161,0,0,0,17.37,3.67c5.73.91,11.38,1.55,16.91,2a260.07,260.07,0,0,0,31.46.58,227.46,227.46,0,0,0,27.32-2.7c16.54-2.66,29.67-7,37.53-12.17,3.91-2.58,6.39-5.43,7.32-7.72a10.17,10.17,0,0,0,.83-3.64,6.74,6.74,0,0,1-.07.95,4.64,4.64,0,0,1-.21,1.16,7.55,7.55,0,0,1-.52,1.54c-.92,2.31-3.4,5.18-7.31,7.78-7.86,5.2-21,9.57-37.55,12.25a231.29,231.29,0,0,1-27.3,2.7,262.42,262.42,0,0,1-31.48-.56c-5.53-.44-11.18-1.07-16.92-2a156.15,156.15,0,0,1-17.39-3.66c-2.92-.78-5.83-1.69-8.71-2.75a71.48,71.48,0,0,1-8.52-3.71,35,35,0,0,1-7.74-5.36,15.48,15.48,0,0,1-2.94-3.75,9,9,0,0,1,0-9.22,15.47,15.47,0,0,1,3-3.74,35,35,0,0,1,7.74-5.36,71.34,71.34,0,0,1,8.51-3.71c2.89-1.06,5.8-2,8.72-2.75a160.63,160.63,0,0,1,17.38-3.66c5.74-.91,11.39-1.55,16.92-2a260.35,260.35,0,0,1,31.48-.56A229.17,229.17,0,0,1,251,395.5c16.54,2.68,29.69,7.05,37.55,12.25,3.91,2.6,6.39,5.47,7.31,7.78a7.55,7.55,0,0,1,.52,1.54,4.64,4.64,0,0,1,.21,1.16C296.58,418.81,296.6,419.07,296.61,419.22Z" transform="translate(0 0.01)" style="fill:#c1daf3"/><path d="M75.69,264.12a3.19,3.19,0,1,1-3.19-3.2,3.19,3.19,0,0,1,3.19,3.2Z" transform="translate(0 0.01)" style="fill:#c1daf3"/><circle cx="361.22" cy="266.29" r="3.19" style="fill:#c1daf3"/><path d="M234.19,383.92a3.2,3.2,0,1,1-3.21-3.19h0a3.19,3.19,0,0,1,3.19,3.19Z" transform="translate(0 0.01)" style="fill:#c1daf3"/><path d="M137.24,301.88a1.6,1.6,0,1,1-1.6-1.6,1.6,1.6,0,0,1,1.6,1.6Z" transform="translate(0 0.01)" style="fill:#c1daf3"/><path d="M335.75,340.56a1.6,1.6,0,1,1-1.6-1.6h0A1.6,1.6,0,0,1,335.75,340.56Z" transform="translate(0 0.01)" style="fill:#c1daf3"/><path d="M209.69,414.39a1.6,1.6,0,1,1-1.6-1.6h0A1.6,1.6,0,0,1,209.69,414.39Z" transform="translate(0 0.01)" style="fill:#c1daf3"/><circle cx="126.42" cy="134.93" r="0.8" style="fill:#c1daf3"/></g><g id="Front_Screens" data-name="Front Screens"><path d="M270.34,257.75c-38.77,10.26-76.14,9.48-116.87,0l-4.78-74.48c42.09,8.19,84.34,7.15,121.63-1.76Z" transform="translate(0 0.01)" style="fill:#c1daf3"/><g style="opacity:0.800000011920929"><path d="M270.34,257.75c-38.77,10.26-76.14,9.48-116.87,0l-4.78-74.48c42.09,8.19,84.34,7.15,121.63-1.76Z" transform="translate(0 0.01)" style="fill:#fff"/></g><path d="M264.33,246.4a1.15,1.15,0,0,1-.25.12l-.73.31c-.65.26-1.59.68-2.84,1.13a106.62,106.62,0,0,1-10.73,3.36,140.27,140.27,0,0,1-36.78,4.2,215.21,215.21,0,0,1-36.86-3.94c-4.67-.89-8.42-1.71-11-2.31-1.29-.29-2.29-.54-3-.71l-.77-.2c-.17-.05-.26-.08-.25-.09h.27l.78.15,3,.61c2.59.54,6.36,1.31,11,2.14A226.12,226.12,0,0,0,213,255a145.26,145.26,0,0,0,36.69-4c4.59-1.16,8.25-2.32,10.75-3.21,1.26-.41,2.21-.8,2.87-1l.75-.26A.75.75,0,0,1,264.33,246.4Z" transform="translate(0 0.01)" style="fill:#c1daf3"/><path d="M207.36,249.43a25.39,25.39,0,0,1-14.92-.5v-26.5a37.48,37.48,0,0,1,14.92,0Z" transform="translate(0 0.01)" style="fill:#c1daf3"/><path d="M231.46,247.86a.74.74,0,0,1,0-.21v-.57c0-.54,0-1.28-.07-2.22,0-2-.09-4.74-.16-8.23-.1-7-.25-16.87-.42-28.28l.2.24a40.16,40.16,0,0,0-15.45,0l.21-.25v.52c.16,15.66.31,29.81.41,39.91l-.15-.18a35.65,35.65,0,0,0,6.51.8,24.48,24.48,0,0,0,4.91-.41,23.63,23.63,0,0,0,3-.79l.75-.26a.9.9,0,0,1,.28-.08l-.24.11-.76.33a21.06,21.06,0,0,1-3,.89,23.55,23.55,0,0,1-4.95.49A34.61,34.61,0,0,1,216,249h-.14v-.2c-.15-10.1-.35-24.24-.57-39.9v-.75h.22a40.35,40.35,0,0,1,15.64,0l.2.05v.2c.09,11.46.16,21.35.22,28.41v10.92C231.52,247.83,231.47,247.86,231.46,247.86Z" transform="translate(0 0.01)" style="fill:#c1daf3"/><path d="M254.4,244.75c-4,2.16-9.25,2.45-14.93,2.12V203.09a31.93,31.93,0,0,1,14.93,0Z" transform="translate(0 0.01)" style="fill:#c1daf3"/><path d="M183.69,247.27s0-.41-.05-1.13,0-1.79-.06-3.06c0-2.66-.07-6.35-.11-10.74l.14.21a33.32,33.32,0,0,0-14.37-2.39h0l.24-.26v14.93l-.13-.2a28.25,28.25,0,0,0,5.76,1.64c1.77.32,3.32.5,4.61.63l3,.25a9.29,9.29,0,0,1,1.06.12,9.37,9.37,0,0,1-1.06,0,28.19,28.19,0,0,1-3-.13c-1.29-.13-2.86-.24-4.64-.53A26.64,26.64,0,0,1,169.2,245l-.13-.06V229.64h.26a33.08,33.08,0,0,1,14.58,2.49l.15.05v.16c0,4.45-.09,8.19-.12,10.89,0,1.25,0,2.25-.06,3A6.14,6.14,0,0,1,183.69,247.27Z" transform="translate(0 0.01)" style="fill:#c1daf3"/><path d="M190.69,208.54a15,15,0,0,1-2.92.18c-1.81,0-4.31,0-7.06-.17s-5.23-.42-7-.66a14.88,14.88,0,0,1-2.88-.52,18.86,18.86,0,0,1,2.91.16c1.8.14,4.28.34,7,.5s5.23.26,7,.32A19.4,19.4,0,0,1,190.69,208.54Z" transform="translate(0 0.01)" style="fill:#c1daf3"/><path d="M188.46,211.8a12.17,12.17,0,0,1-2.56,0c-1.58-.08-3.76-.22-6.17-.4s-4.59-.38-6.16-.55a12.78,12.78,0,0,1-2.53-.38,12.17,12.17,0,0,1,2.56,0c1.59.08,3.76.22,6.17.4s4.58.38,6.15.55A12.77,12.77,0,0,1,188.46,211.8Z" transform="translate(0 0.01)" style="fill:#c1daf3"/><path d="M193.92,216.07v-.93c0-.59.05-1.5.1-2.58.1-2.26.25-5.44.44-9.35l.19.21A214.46,214.46,0,0,1,167,201.88l.29-.24h0v.82l-.05.84c0,.56-.06,1.12-.1,1.67-.06,1.11-.12,2.2-.19,3.27-.13,2.15-.25,4.23-.37,6.22l-.21-.26c8,1,14.89,1.4,19.78,1.59l5.73.17,1.5,0H194a4.17,4.17,0,0,1-.5,0c-.34,0-.88,0-1.55.05h-5.74c-4.9-.1-11.82-.46-19.83-1.41h-.23v-.24q.17-3,.35-6.22c.06-1.07.12-2.16.19-3.27l.09-1.67v-1.66h0l.29-.24A234.73,234.73,0,0,0,194.69,203h.2v.2c-.27,3.94-.49,7.16-.65,9.44-.08,1.06-.15,1.91-.2,2.53A4.14,4.14,0,0,1,193.92,216.07Z" transform="translate(0 0.01)" style="fill:#c1daf3"/><path d="M197.33,221.68A12.12,12.12,0,0,1,195.4,219a9.57,9.57,0,0,1-1.48-2.94,12.12,12.12,0,0,1,1.93,2.67A9.57,9.57,0,0,1,197.33,221.68Z" transform="translate(0 0.01)" style="fill:#c1daf3"/><path d="M35.33,124.75,48,201.43s19.35,36.22,70.75,44.38l-8.29-68.44S62.92,162.65,35.33,124.75Z" transform="translate(0 0.01)" style="fill:#c1daf3"/><g style="opacity:0.800000011920929"><path d="M35.33,124.75,48,201.43s19.35,36.22,70.75,44.38l-8.29-68.44S62.92,162.65,35.33,124.75Z" transform="translate(0 0.01)" style="fill:#fff"/></g><path d="M112.12,240.33l-.32-.08-1-.27-3.62-1.11c-1.57-.5-3.52-1-5.69-1.9L98,235.64c-1.25-.47-2.56-1-3.89-1.6-2.67-1.22-5.64-2.48-8.66-4.18s-6.24-3.53-9.52-5.62a95.15,95.15,0,0,1-19.1-16.55,56.7,56.7,0,0,1-6.89-9.61h0l-5.8-37.5c-.7-4.68-1.27-8.43-1.66-11.06l-.42-3-.1-.77a1.22,1.22,0,0,1,0-.27,1.1,1.1,0,0,1,.06.26l.15.77.51,3c.43,2.62,1,6.37,1.81,11,1.5,9.42,3.6,22.54,6,37.47v-.07a57.4,57.4,0,0,0,6.82,9.5,95.81,95.81,0,0,0,19,16.49c3.26,2.1,6.37,4.07,9.45,5.64s5.95,3,8.61,4.22c1.32.65,2.63,1.16,3.86,1.63l3.46,1.36c2.15.91,4.09,1.45,5.64,2l3.59,1.2.93.32A1.31,1.31,0,0,1,112.12,240.33Z" transform="translate(0 0.01)" style="fill:#c1daf3"/><path d="M107.6,218.07s0,.06-.17.16l-.55.44-2.13,1.66-8.06,6.19-.12.1-.1-.14c-2.72-3.75-6.07-8.39-9.87-13.66l.3.05-7.57,5.4-.25.18-.11-.3c-3-8-6.27-17-9.76-26.47l-1.4-3.81h.47l-6.16,12.24-.27.53-.19-.56c-5.37-15.46-9.92-28.6-12.88-37.13h.27c-.81,3.42-1.45,6.11-1.89,8-.22.9-.4,1.6-.52,2.1l-.14.54a.67.67,0,0,1-.07.18v-.19a4,4,0,0,1,.1-.54l.45-2.12c.41-1.89,1-4.59,1.76-8l.11-.48.17.47c3,8.51,7.63,21.62,13.08,37.05h-.46l6.15-12.24.27-.54.21.56,1.4,3.81C73.14,201,76.44,210,79.38,218l-.36-.11,7.6-5.36.17-.12.13.17,9.77,13.68h-.23l8.17-6.07,2.18-1.6.57-.4Z" transform="translate(0 0.01)" style="fill:#c1daf3"/><path d="M105.83,181.3a5,5,0,0,1-1.08-.24c-.68-.19-1.67-.49-2.87-.89a92.71,92.71,0,0,1-9.19-3.62A96.63,96.63,0,0,1,83.86,172c-1.09-.64-2-1.18-2.56-1.57a4.72,4.72,0,0,1-.89-.65,4.6,4.6,0,0,1,1,.48l2.64,1.42c2.23,1.19,5.34,2.79,8.86,4.38s6.77,2.86,9.14,3.75c1.11.4,2,.75,2.81,1A4,4,0,0,1,105.83,181.3Z" transform="translate(0 0.01)" style="fill:#c1daf3"/><path d="M107.87,184.48a10.5,10.5,0,0,1-2.48-.44,59.13,59.13,0,0,1-5.83-1.74A57.3,57.3,0,0,1,94,180a10.7,10.7,0,0,1-2.19-1.23,13.9,13.9,0,0,1,2.35.9c1.43.59,3.41,1.39,5.63,2.19s4.26,1.43,5.75,1.88A13.29,13.29,0,0,1,107.87,184.48Z" transform="translate(0 0.01)" style="fill:#c1daf3"/><path d="M87.62,212.84c0,.64-.39,1.15-.87,1.15s-.86-.51-.86-1.15.39-1.15.86-1.15S87.62,212.21,87.62,212.84Z" transform="translate(0 0.01)" style="fill:#c1daf3"/><ellipse cx="67.95" cy="188.61" rx="0.86" ry="1.15" style="fill:#c1daf3"/><path d="M49.82,163.31c0,.63-.39,1.15-.86,1.15s-.86-.52-.86-1.15.38-1.15.86-1.15S49.82,162.68,49.82,163.31Z" transform="translate(0 0.01)" style="fill:#c1daf3"/><path d="M370.69,138.39l-6.35,77.9s-18.57,33.31-69.65,34.58L301,172.44S345.57,170.63,370.69,138.39Z" transform="translate(0 0.01)" style="fill:#c1daf3"/><path d="M369.69,134.33c-1.66-5.39-5.7-13.08-15.3-14.68L343.07,224.43s21.31-4.25,21.88-15.93c.05-1,4.31-53.09,5.38-66A21.26,21.26,0,0,0,369.69,134.33Z" transform="translate(0 0.01)" style="fill:#c1daf3"/><g style="opacity:0.800000011920929"><path d="M370.69,138.39l-6.35,77.9s-18.57,33.31-69.65,34.58L301,172.44S345.57,170.63,370.69,138.39Z" transform="translate(0 0.01)" style="fill:#fff"/></g><path d="M369.14,158.25A46.14,46.14,0,0,0,361,183.44c-.05,2.59.1,5.26-.89,7.65s-3.55,4.39-6,3.71-3.77-3.8-6.05-5.24a6.75,6.75,0,0,0-6.85.15,11.54,11.54,0,0,0-4.5,5.47c-1.85,4.27-2,9.09-3.34,13.54s-4.72,8.94-9.38,9.14c-1.7.07-3.38-.44-5.08-.39-3.59.11-6.71,2.78-8.38,6s-2.18,6.83-2.66,10.39c0,0,27.22,2.6,57.77-33.48Z" transform="translate(0 0.01)" style="fill:#c1daf3"/><path d="M325.87,205.5c0,1-.48,1.75-1.07,1.75s-1.06-.78-1.06-1.75.47-1.75,1.06-1.75S325.87,204.54,325.87,205.5Z" transform="translate(0 0.01)" style="fill:#c1daf3"/><path d="M338.69,173.12c0,1-.48,1.75-1.07,1.75s-1.06-.79-1.06-1.75.47-1.75,1.06-1.75S338.69,172.15,338.69,173.12Z" transform="translate(0 0.01)" style="fill:#c1daf3"/><path d="M368.53,162a2.35,2.35,0,0,1-.17.44l-.58,1.27c-.54,1.13-1.29,2.73-2.24,4.75l-8.12,16.91-.11.23-.22-.14-19.25-12.18.38-.12c-.25.62-.53,1.29-.8,2L325,205.58l-.09.21-.19-.11c-4.8-2.7-8.72-4.87-11.44-6.35-1.37-.74-2.43-1.31-3.16-1.68l-.83-.4-.29-.13a22.78,22.78,0,0,1,4.38,2c2.76,1.42,6.7,3.54,11.53,6.2l-.28.1,12.32-30.49c.27-.67.55-1.34.8-2l.12-.29.26.17,19.22,12.24-.33.09c3.41-6.93,6.27-12.72,8.29-16.82l2.39-4.67.64-1.23A3.11,3.11,0,0,1,368.53,162Z" transform="translate(0 0.01)" style="fill:#c1daf3"/></g></svg>