<svg id="Layer_1" data-name="Layer 1" xmlns="http://www.w3.org/2000/svg" viewBox="0 0 692.41 442.2"><g id="Background_Complete" data-name="Background Complete"><rect x="5.01" y="33.48" width="73.61" height="76.73" style="fill:#e0e0e0"/><rect x="0.02" y="33.48" width="73.61" height="76.73" style="fill:#f5f5f5"/><path d="M73.65,110.24H0V33.46H73.65Zm-73.6,0H73.61V33.51H.05Z" transform="translate(0 0)" style="fill:#e0e0e0"/><rect x="9.92" y="43.8" width="53.82" height="56.1" style="fill:#fff"/><path d="M9.92,100.27a8.58,8.58,0,0,1-1.33,1.55c-.86.9-2.07,2.13-3.42,3.46s-2.6,2.53-3.51,3.37A8.83,8.83,0,0,1,.1,110a7.79,7.79,0,0,1,1.32-1.54c.86-.91,2.07-2.14,3.43-3.48s2.6-2.53,3.52-3.37A9.08,9.08,0,0,1,9.92,100.27Z" transform="translate(0 0)" style="fill:#e0e0e0"/><path d="M63.74,100.1a9.31,9.31,0,0,1,1.54,1.33c.91.86,2.14,2.07,3.47,3.42s2.52,2.6,3.36,3.52a8.42,8.42,0,0,1,1.3,1.55,8.46,8.46,0,0,1-1.54-1.32c-.9-.86-2.14-2.07-3.47-3.42s-2.53-2.61-3.37-3.53A7.65,7.65,0,0,1,63.74,100.1Z" transform="translate(0 0)" style="fill:#e0e0e0"/><path d="M63.59,44a8.87,8.87,0,0,1,1.33-1.54c.86-.91,2.06-2.14,3.42-3.47s2.6-2.52,3.51-3.37a8.36,8.36,0,0,1,1.56-1.29,8.74,8.74,0,0,1-1.32,1.53c-.86.91-2.07,2.14-3.43,3.48s-2.6,2.53-3.52,3.37A9.08,9.08,0,0,1,63.59,44Z" transform="translate(0 0)" style="fill:#e0e0e0"/><path d="M9.77,44.1a9.31,9.31,0,0,1-1.54-1.33c-.91-.86-2.14-2.07-3.47-3.42s-2.52-2.6-3.36-3.52A8.42,8.42,0,0,1,.1,34.28,8.46,8.46,0,0,1,1.64,35.6c.9.86,2.13,2.07,3.47,3.43s2.53,2.6,3.37,3.52A8,8,0,0,1,9.77,44.1Z" transform="translate(0 0)" style="fill:#e0e0e0"/><path d="M63.59,99.9V95.84c0-2.66,0-6.53-.05-11.44,0-9.82-.06-23.82-.11-40.58l.21.21H10l.24-.24v56.1L10,99.68l38.86.11h11L49,99.84l-39,.1h-.2V43.4H63.87v.21c0,16.81-.08,30.86-.11,40.71V99.47A2.26,2.26,0,0,1,63.59,99.9Z" transform="translate(0 0)" style="fill:#e0e0e0"/><rect x="27.85" y="62.87" width="17.96" height="17.96" style="fill:#ebebeb"/><path d="M564.4,49.1a39.39,39.39,0,0,1,9.72-4.22l2-9.62L592.37,35l2.34,9.54a39.7,39.7,0,0,1,9.86,3.88L612.78,43,624.5,54.26l-5.09,8.39a40.18,40.18,0,0,1,4.23,9.72l9.61,2,.29,16.25L624,93a39.7,39.7,0,0,1-3.88,9.86L625.5,111l-11.29,11.7-8.39-5.09a40.15,40.15,0,0,1-9.72,4.22l-2,9.62-16.25.28-2.35-9.54a39.7,39.7,0,0,1-9.86-3.88l-8.21,5.38-11.69-11.28,5.09-8.4a39.8,39.8,0,0,1-4.23-9.72l-9.61-2-.31-16.22,9.54-2.34a39.85,39.85,0,0,1,3.88-9.86l-5.38-8.21L556,44Zm8.67,21.65a17.43,17.43,0,1,0,24.65-.44,17.45,17.45,0,0,0-24.65.44h0Z" transform="translate(0 0)" style="fill:#e0e0e0"/><path d="M651,115.55a21,21,0,0,1,4.27-3.65l-.48-5.18,8.19-2.66,2.66,4.47a21.49,21.49,0,0,1,5.6.44l3.33-4,7.67,3.91-1.28,5a20.64,20.64,0,0,1,3.64,4.27l5.18-.48,2.67,8.19-4.48,2.66a20.65,20.65,0,0,1-.43,5.6l4,3.33-3.91,7.67-5-1.28a21.22,21.22,0,0,1-4.27,3.64l.47,5.18-8.19,2.67-2.66-4.48a20.61,20.61,0,0,1-5.59-.43l-3.33,4-7.67-3.9,1.28-5a21,21,0,0,1-3.65-4.27l-5.18.47-2.66-8.19,4.47-2.66a21.44,21.44,0,0,1,.44-5.59l-4-3.33,3.91-7.67,5,1.28Zm7.74,9.62a9.24,9.24,0,1,0,12.44-4h0a9.24,9.24,0,0,0-12.42,4Z" transform="translate(0 0)" style="fill:#e0e0e0"/><path d="M619.13,179.28a22.27,22.27,0,0,1,4.46-3.81l-.49-5.37,8.55-2.78,2.78,4.68a22.1,22.1,0,0,1,5.85.45l3.48-4.17,8,4.08-1.34,5.27a22.27,22.27,0,0,1,3.81,4.46l5.41-.5,2.78,8.56-4.67,2.78a21.7,21.7,0,0,1-.46,5.85l4.18,3.48-4.08,8-5.27-1.33a22.27,22.27,0,0,1-4.46,3.81l.5,5.41-8.56,2.78-2.78-4.67a21.7,21.7,0,0,1-5.85-.46l-3.47,4.14-8-4.08,1.34-5.27a22.27,22.27,0,0,1-3.81-4.46l-5.41.49-2.79-8.52,4.67-2.79a21.62,21.62,0,0,1,.46-5.84L609.78,186l4.08-8,5.27,1.34Zm8.09,10.06a9.65,9.65,0,1,0,13-4.22,9.65,9.65,0,0,0-13,4.22v0Z" transform="translate(0 0)" style="fill:#f5f5f5"/><path d="M369.4,27.52a25.61,25.61,0,0,1,5.1-4.42l-.57-6.24,9.85-3.2L387,19a25.77,25.77,0,0,1,6.73.53l4-4.81,9.22,4.7-1.43,6.1a25.64,25.64,0,0,1,4.38,5.14l6.23-.57L419.32,40l-5.38,3.2a25.84,25.84,0,0,1-.53,6.74l4.81,4-4.72,9.23-6.07-1.54A25.26,25.26,0,0,1,402.3,66l.57,6.24L393,75.43l-3.23-5.33a25.84,25.84,0,0,1-6.74-.53l-4,4.81-9.23-4.7,1.54-6.06A25.64,25.64,0,0,1,367,58.48l-6.24.57-3.24-9.9,5.38-3.2a25.77,25.77,0,0,1,.53-6.73l-4.82-4L363.3,26l6.06,1.54Zm9.32,11.58a11.11,11.11,0,1,0,14.95-4.85h0A11.12,11.12,0,0,0,378.72,39.1Z" transform="translate(0 0)" style="fill:#e0e0e0"/><path d="M33.38,358.78a29.31,29.31,0,0,0-12.58-4.33c-2.06-.22-4.3-.16-6,1.09a1.22,1.22,0,0,0-.62,1.09,1.35,1.35,0,0,0,.59.74,18,18,0,0,0,18.56,1.41" transform="translate(0 0)" style="fill:#e0e0e0"/><path d="M33.06,358.42a60.75,60.75,0,0,1-8.13-7.15,20.55,20.55,0,0,1-5.09-9.42,3.82,3.82,0,0,1,.4-3.16c6.48,5.06,11.57,11.61,12.82,19.73" transform="translate(0 0)" style="fill:#e0e0e0"/><path d="M33.31,358.73a29.44,29.44,0,0,1,.19-10.63,14.41,14.41,0,0,1,5.68-8.81c1.12,2.62.64,5.63-.15,8.37a40.56,40.56,0,0,1-5.64,11.86" transform="translate(0 0)" style="fill:#e0e0e0"/><path d="M39.67,370.1a18.55,18.55,0,0,0-10.1,5.1,19.15,19.15,0,0,0-5.77,9.9c3.78-.23,7-2.9,9.32-5.89s3.94-6.27,6.49-9.07" transform="translate(0 0)" style="fill:#e0e0e0"/><path d="M41,371.93a24.9,24.9,0,0,1,2.88-23.55C46.11,356.2,45.31,365,41,371.93" transform="translate(0 0)" style="fill:#e0e0e0"/><path d="M49.44,381.92a18,18,0,0,0-17.21,9.9,1.34,1.34,0,0,0-.12,1.35,1.29,1.29,0,0,0,1.14.34c3.39-.22,6.4-2.26,8.88-4.59s4.64-5,7.38-7" transform="translate(0 0)" style="fill:#e0e0e0"/><path d="M49.17,381.37a32,32,0,0,1-.32-17.9c.63-2.3,1.69-4.73,3.82-5.81a.59.59,0,0,1,.83,0,.62.62,0,0,1,.17.33,10.65,10.65,0,0,1,.83,5.11,32.68,32.68,0,0,1-.8,5.2c-.67,3.18-1,6.59-2.77,9.33a19.26,19.26,0,0,0-1.11,2.05c-.33.7-.33.95-.64,1.5" transform="translate(0 0)" style="fill:#e0e0e0"/><path d="M71.38,384.68a23.07,23.07,0,0,1,4-19c.29-.37.68-.78,1.15-.74.73.07.92,1,.89,1.77a34.29,34.29,0,0,1-6.08,18" transform="translate(0 0)" style="fill:#e0e0e0"/><path d="M73.38,386.1A27.55,27.55,0,0,0,96,381.49,18.25,18.25,0,0,0,83.77,380c-4.1.94-7.84,2.77-10.39,6.11" transform="translate(0 0)" style="fill:#e0e0e0"/><path d="M75.07,381.88A26.16,26.16,0,0,1,95.63,370c-.94,3.3-3.66,5.88-6.72,7.43A37.7,37.7,0,0,1,79,380.32c-1.32.25-3.12.53-4,1.56" transform="translate(0 0)" style="fill:#e0e0e0"/><path d="M71.8,361.66a60.78,60.78,0,0,0,2.63-12A20,20,0,0,0,72,337.75a26.15,26.15,0,0,0-.35,24.36" transform="translate(0 0)" style="fill:#e0e0e0"/><path d="M85.2,354.89c4.65-8.46,14.14-15.21,23.74-16.16-3.7,9.23-13.8,16.36-23.74,16.16" transform="translate(0 0)" style="fill:#e0e0e0"/><path d="M82.27,356.55c6.94,1.05,12.85,5.49,19.33,8.17a8.79,8.79,0,0,0,4.37.84,3.42,3.42,0,0,0,2.15-6,9.43,9.43,0,0,0-3.18-1.93c-7.06-2.94-14.63-3-22.07-1.23" transform="translate(0 0)" style="fill:#e0e0e0"/><path d="M78.25,361.41c1.57.45,2.11,1.27,3.36,2.33a36.24,36.24,0,0,0,14.66,7.53c.56.14,1.29.19,1.57-.31s-.07-1-.38-1.37a20.19,20.19,0,0,0-8.85-6c-3.39-1.26-6.32-2.78-10.36-2.46" transform="translate(0 0)" style="fill:#e0e0e0"/><path d="M73.72,332A27.71,27.71,0,0,0,95,339.26a1.41,1.41,0,0,0,1-.35c.54-.58-.1-1.48-.73-2C89,332,81.44,330,73.76,332" transform="translate(0 0)" style="fill:#e0e0e0"/><path d="M79.09,330.1a29.63,29.63,0,0,1,26.55-4.38A21.08,21.08,0,0,1,93,331.27a40,40,0,0,1-13.9-1.17" transform="translate(0 0)" style="fill:#e0e0e0"/><path d="M77,316.55c-.61-6.24-.22-11.17-.65-17.44,0-.5-.14-1.11-.61-1.29-.65-.25-1.2.55-1.41,1.22A20,20,0,0,0,77,316.41" transform="translate(0 0)" style="fill:#e0e0e0"/><path d="M76.5,317.24a36.66,36.66,0,0,0,10.34-10.05c2-2.8,3.77-6.14,3.3-9.57a9.91,9.91,0,0,0-7.46,3.7,21,21,0,0,0-3.8,7.65c-.83,2.75-1.41,5.57-2.38,8.27" transform="translate(0 0)" style="fill:#e0e0e0"/><path d="M86.67,314.42a83.64,83.64,0,0,0,25.45-15c-3-1.22-6.52-.49-9.56.74a30.16,30.16,0,0,0-16,14.2" transform="translate(0 0)" style="fill:#e0e0e0"/><path d="M79.37,320.65a51.44,51.44,0,0,0,14.13.07c4.58-.76,8.91-2.58,13.19-4.38a1.61,1.61,0,0,0,.9-.68,1.05,1.05,0,0,0-.33-1.13,2.76,2.76,0,0,0-1.12-.53,24.44,24.44,0,0,0-14.26.86,66.33,66.33,0,0,0-12.51,5.79" transform="translate(0 0)" style="fill:#e0e0e0"/><path d="M52.5,332.24a25.06,25.06,0,0,1-.23-20.69c2,3,2.19,6.75,1.84,10.28S52.67,329,52.6,332.56" transform="translate(0 0)" style="fill:#e0e0e0"/><path d="M39.74,325.78a28.81,28.81,0,0,0-21.44,9.13A19.94,19.94,0,0,0,30,332.73,60,60,0,0,0,40.1,326" transform="translate(0 0)" style="fill:#e0e0e0"/><path d="M31.13,322.9c-3.91-.32-7.68-.8-11.44.35a13.72,13.72,0,0,0-8.73,7.4,20.8,20.8,0,0,0,10.73-2,62.11,62.11,0,0,0,9.44-5.72" transform="translate(0 0)" style="fill:#e0e0e0"/><path d="M43.88,323c-3.53-2.31-7.14-4.66-11.24-5.61s-8.86-.25-11.71,2.84c3.31,1.95,7.34,2.18,11.19,2.17s8.57,0,12.2,1.24" transform="translate(0 0)" style="fill:#e0e0e0"/><path d="M43.9,323.22c-6-5.92-8.31-16.54-5.88-24.62a37.54,37.54,0,0,1,5.88,24.62" transform="translate(0 0)" style="fill:#e0e0e0"/><path d="M60.5,306.46c1.14-2.63,1.94-5.41,3-8.09a23.18,23.18,0,0,1,4.2-7.47A11.12,11.12,0,0,1,75.16,287,30,30,0,0,1,60.6,306.51" transform="translate(0 0)" style="fill:#e0e0e0"/><path d="M57.5,310c-1.88-2.59-4-6.1-6.6-8s-5.87-3.1-9-2.36A20.91,20.91,0,0,0,57.5,310" transform="translate(0 0)" style="fill:#e0e0e0"/><path d="M58.06,306.68a43.82,43.82,0,0,1-3-9.62,15,15,0,0,1,1.5-9.78c3.31,6.25,4.37,13,1.63,19.47" transform="translate(0 0)" style="fill:#e0e0e0"/><path d="M60.5,287.28c1.87-6.19,7.55-10.75,13.67-12.84a4.89,4.89,0,0,1,2.33-.34,2.08,2.08,0,0,1,1.77,1.47c.22,1.05-.65,2-1.47,2.7a46.35,46.35,0,0,1-16.36,9" transform="translate(0 0)" style="fill:#e0e0e0"/><path d="M60.55,282.22c.24-4,.49-8.05,1.79-11.83s3.8-7.33,7.44-9c.62,4-1.16,8.05-3.31,11.52s-4.73,6.74-6,10.61" transform="translate(0 0)" style="fill:#e0e0e0"/><path d="M60.5,285c-1.54-4.51-1.7-10.24-4.41-14.17-1.89-2.75-4.91-4.62-6.54-7.54a11.45,11.45,0,0,0,.38,8.55,24.63,24.63,0,0,0,5,7.16c2,2.14,3.71,3.75,5.57,6" transform="translate(0 0)" style="fill:#e0e0e0"/><path d="M60.5,417.88c-.12,0-.22-30.11-.23-67.24s.08-67.25.2-67.25.23,30.1.24,67.25S60.6,417.88,60.5,417.88Z" transform="translate(0 0)" style="fill:#e0e0e0"/><path d="M86.79,327.69a6.42,6.42,0,0,1-1.13.43l-3.11,1.05c-2.63.89-6.24,2.19-10.16,3.79s-7.53,3-9.61,4.82a7.28,7.28,0,0,0-1.94,2.56c-.29.71-.35,1.14-.39,1.13a.81.81,0,0,1,0-.31,3.78,3.78,0,0,1,.22-.88,6.8,6.8,0,0,1,1.88-2.73A17.18,17.18,0,0,1,66.73,335c1.66-.78,3.52-1.59,5.48-2.4,3.93-1.61,7.57-2.86,10.22-3.68,1.33-.42,2.41-.72,3.16-.93A6.93,6.93,0,0,1,86.79,327.69Z" transform="translate(0 0)" style="fill:#e0e0e0"/><path d="M95.42,306.51a2.05,2.05,0,0,1-.32.34l-1,.9L90.5,311l-12,10.69c-4.68,4.17-8.73,8.16-11.54,11.16-1.4,1.5-2.51,2.74-3.27,3.6l-.87,1a2,2,0,0,1-.32.33,2.83,2.83,0,0,1,.25-.38c.18-.24.45-.61.81-1.05.72-.91,1.79-2.18,3.17-3.71a154.66,154.66,0,0,1,11.48-11.28c4.71-4.16,9-7.9,12.1-10.59L94,307.63l1-.85A1.88,1.88,0,0,1,95.42,306.51Z" transform="translate(0 0)" style="fill:#e0e0e0"/><path d="M73.5,326c-.12,0,.86-2.31,1.84-5.17s1.44-5.27,1.57-5.25a17.5,17.5,0,0,1-1.16,5.39,33.22,33.22,0,0,1-1.46,3.61A5.49,5.49,0,0,1,73.5,326Z" transform="translate(0 0)" style="fill:#e0e0e0"/><path d="M60.5,344.18a5.17,5.17,0,0,1-.72-.83L57.93,341c-1.56-2-3.7-4.78-6.11-7.81s-4.62-5.76-6.23-7.73l-1.88-2.33a5.21,5.21,0,0,1-.65-.89,4.8,4.8,0,0,1,.78.78c.48.53,1.17,1.29,2,2.26,1.66,1.92,3.92,4.61,6.33,7.65s4.52,5.84,6,7.9c.75,1,1.34,1.87,1.74,2.46A6.84,6.84,0,0,1,60.5,344.18Z" transform="translate(0 0)" style="fill:#e0e0e0"/><path d="M54.74,336.78a10.78,10.78,0,0,1-2.42-4.53,12.81,12.81,0,0,1-.54-4.56H52c-.09.35-.15.53-.19.52s0-.2,0-.55H52a20.35,20.35,0,0,0,.77,4.44A34.47,34.47,0,0,0,54.74,336.78Z" transform="translate(0 0)" style="fill:#e0e0e0"/><path d="M47.29,327.41a7.93,7.93,0,0,0-1.68-1,11.27,11.27,0,0,0-4.69-.37,29,29,0,0,0-4.72.76,14.39,14.39,0,0,1-1.94.46,7,7,0,0,1,1.86-.76,21.49,21.49,0,0,1,4.77-.9,10.17,10.17,0,0,1,4.83.52A3,3,0,0,1,47.29,327.41Z" transform="translate(0 0)" style="fill:#e0e0e0"/><path d="M45.5,325.1c0,.07-1-.4-2.59-.94a26.09,26.09,0,0,0-13-1c-1.66.3-2.67.61-2.69.54a2.41,2.41,0,0,1,.68-.29,15.16,15.16,0,0,1,2-.55,23.15,23.15,0,0,1,13.2,1,15.27,15.27,0,0,1,1.84.84A2,2,0,0,1,45.5,325.1Z" transform="translate(0 0)" style="fill:#e0e0e0"/><path d="M60.5,315.54A55,55,0,0,1,58.62,309a54.2,54.2,0,0,1-1.47-6.66A53.25,53.25,0,0,1,59,308.88,52.38,52.38,0,0,1,60.5,315.54Z" transform="translate(0 0)" style="fill:#e0e0e0"/><path d="M60.57,315.54a31.23,31.23,0,0,0-2.07-3.92,17.44,17.44,0,0,0-3.07-3.18,2.9,2.9,0,0,1,1.18.61,9.91,9.91,0,0,1,2.25,2.32A8.59,8.59,0,0,1,60.57,315.54Z" transform="translate(0 0)" style="fill:#e0e0e0"/><path d="M60.5,401.83s-.13-.72-.47-2a29.34,29.34,0,0,0-2-5.21,72,72,0,0,0-10.68-15c-2.38-2.73-4.7-5.29-6.66-7.75A55,55,0,0,1,35.93,365a33,33,0,0,1-2.4-5.1c-.22-.62-.39-1.11-.47-1.45a3,3,0,0,1-.13-.52s.26.69.76,1.91a36,36,0,0,0,2.51,5,57.15,57.15,0,0,0,4.8,6.77c2,2.44,4.29,5,6.68,7.72A68.43,68.43,0,0,1,58.3,394.52a26.48,26.48,0,0,1,1.9,5.31,12.91,12.91,0,0,1,.27,1.51A2,2,0,0,1,60.5,401.83Z" transform="translate(0 0)" style="fill:#e0e0e0"/><path d="M84.26,375a11.75,11.75,0,0,1-1.25.7,28.58,28.58,0,0,0-3.23,2.13,37,37,0,0,0-4.24,3.87c-1.49,1.58-3,3.41-4.59,5.36-3.14,3.93-6.07,7.41-7.82,10.19a39,39,0,0,0-2,3.35,10.15,10.15,0,0,1-.69,1.25,2.06,2.06,0,0,1,.12-.35c.09-.23.22-.56.42-1a32,32,0,0,1,1.89-3.38,112.42,112.42,0,0,1,7.74-10.29,68.71,68.71,0,0,1,4.64-5.36,33.76,33.76,0,0,1,4.35-3.84,20.85,20.85,0,0,1,3.33-2,9,9,0,0,1,1-.43A1.22,1.22,0,0,0,84.26,375Z" transform="translate(0 0)" style="fill:#e0e0e0"/><path d="M84.72,383.69a19.61,19.61,0,0,1-2.63.38,34.9,34.9,0,0,0-6.25,1.23,18.83,18.83,0,0,0-5.59,2.94c-1.29,1-1.9,1.82-2,1.77a2.19,2.19,0,0,1,.39-.61A10.14,10.14,0,0,1,70,388a16.81,16.81,0,0,1,5.65-3.11A28,28,0,0,1,82,383.77,14.34,14.34,0,0,1,84.72,383.69Z" transform="translate(0 0)" style="fill:#e0e0e0"/><path d="M69.06,389.1c-.13-.08,1-1.89,2-4.33a33.45,33.45,0,0,0,1.22-4.59,3.72,3.72,0,0,1,0,1.41,14.64,14.64,0,0,1-.77,3.33A15.83,15.83,0,0,1,70,388,4,4,0,0,1,69.06,389.1Z" transform="translate(0 0)" style="fill:#e0e0e0"/><path d="M92,351.59a2.1,2.1,0,0,1-.42.22l-1.24.56c-.54.24-1.2.53-1.94.92s-1.61.78-2.52,1.32l-1.44.82c-.49.29-1,.63-1.51,1-1.06.64-2.12,1.43-3.25,2.24a56,56,0,0,0-12.53,13c-.77,1.16-1.53,2.25-2.13,3.33-.31.54-.63,1-.9,1.55s-.53,1-.77,1.46c-.51.92-.88,1.81-1.24,2.56s-.63,1.42-.85,2l-.52,1.26a1.72,1.72,0,0,1-.21.43,2.42,2.42,0,0,1,.13-.46c.12-.34.26-.77.44-1.29a20.26,20.26,0,0,1,.79-2c.34-.76.69-1.66,1.18-2.6l.75-1.48c.26-.52.58-1,.89-1.57.59-1.1,1.34-2.2,2.11-3.38a59.06,59.06,0,0,1,5.72-7.18,56.78,56.78,0,0,1,6.87-6c1.15-.81,2.22-1.59,3.3-2.23.53-.32,1-.66,1.53-.94l1.46-.8c.92-.52,1.81-.9,2.56-1.27a20.37,20.37,0,0,1,2-.85l1.28-.49A1.59,1.59,0,0,1,92,351.59Z" transform="translate(0 0)" style="fill:#e0e0e0"/><path d="M73.14,364.2a3,3,0,0,1,1-1.55,6.6,6.6,0,0,1,4.17-1.6,11.55,11.55,0,0,1,4.38.86,6.39,6.39,0,0,1,1.66.81,10.77,10.77,0,0,1-1.76-.52,13.19,13.19,0,0,0-4.27-.71,6.81,6.81,0,0,0-4,1.4A13.29,13.29,0,0,0,73.14,364.2Z" transform="translate(0 0)" style="fill:#e0e0e0"/><path d="M70.33,367.1a16.18,16.18,0,0,0,1.18-3.85,15.34,15.34,0,0,0-.26-4,3.77,3.77,0,0,1,.49,1.12,8.14,8.14,0,0,1,.21,2.95,8,8,0,0,1-.89,2.82A3,3,0,0,1,70.33,367.1Z" transform="translate(0 0)" style="fill:#e0e0e0"/><path d="M39.69,406.15c.65,11.5,4.11,23.21,9.45,35H72.33c5.09-11.72,8.31-23.4,8.89-35Z" transform="translate(0 0)" style="fill:#e0e0e0"/><path d="M77.5,424.77c0,.12-7.64.21-17.06.21s-17-.09-17-.21,7.63-.22,17-.22S77.5,424.65,77.5,424.77Z" transform="translate(0 0)" style="fill:#fafafa"/><path d="M76.94,428.93c0,.12-7.16.22-16,.22s-16-.1-16-.22,7.16-.21,16-.21S76.94,428.81,76.94,428.93Z" transform="translate(0 0)" style="fill:#fafafa"/><path d="M49.5,413.7a65.78,65.78,0,0,1,0,10.69A65.78,65.78,0,0,1,49.5,413.7Z" transform="translate(0 0)" style="fill:#fafafa"/><path d="M61.94,413.7a70.54,70.54,0,0,1,0,11.07A70.54,70.54,0,0,1,61.94,413.7Z" transform="translate(0 0)" style="fill:#fafafa"/><path d="M73.6,413.61a73.23,73.23,0,0,1,0,11.28A75.84,75.84,0,0,1,73.6,413.61Z" transform="translate(0 0)" style="fill:#fafafa"/><path d="M80.5,413.7c0,.12-9,.22-20,.22s-20-.1-20-.22,9-.22,20-.22S80.5,413.58,80.5,413.7Z" transform="translate(0 0)" style="fill:#fafafa"/></g><g id="Floor"><path d="M665.62,440.53c0,.14-145.13.26-324.1.26s-324.14-.12-324.14-.26,145.1-.26,324.14-.26S665.62,440.38,665.62,440.53Z" transform="translate(0 0)" style="fill:#263238"/></g><g id="Device_1" data-name="Device 1"><path d="M542,39.1H120.58a13.17,13.17,0,0,0-13.15,13.16V349.91a13.16,13.16,0,0,0,13.13,13.19H282.31l-8.18,79.1,117.8-.74-6.74-78.36H542a13.16,13.16,0,0,0,13.16-13.16V52.27A13.16,13.16,0,0,0,542,39.1Z" transform="translate(0 0)" style="fill:#455a64"/><path d="M336.91,331.76c5.73,8.2-3.24,17.17-11.44,11.44a3.14,3.14,0,0,1-.7-.71c-5.72-8.19,3.24-17.15,11.43-11.43A3.14,3.14,0,0,1,336.91,331.76Z" transform="translate(0 0)" style="fill:#263238"/><path d="M124.38,44.56h413.8a9.7,9.7,0,0,1,9.7,9.7h0V308.61H114.68V54.26A9.7,9.7,0,0,1,124.38,44.56Z" transform="translate(0 0)" style="fill:#fff"/><path d="M123.83,44.56H540.36a7.52,7.52,0,0,1,7.52,7.52h0V66.51H114.68V53.72a9.15,9.15,0,0,1,9.14-9.16Z" transform="translate(0 0)" style="fill:#f5f5f5"/><path d="M131.5,56a3,3,0,1,1-3-3,3,3,0,0,1,3,3Z" transform="translate(0 0)" style="fill:#e0e0e0"/><path d="M140.59,56a3,3,0,1,1-3-3,3,3,0,0,1,3,3Z" transform="translate(0 0)" style="fill:#e0e0e0"/><path d="M149.22,56a3,3,0,1,1-3-3,3,3,0,0,1,3,3Z" transform="translate(0 0)" style="fill:#e0e0e0"/><path d="M428.67,363.1c0,.15-35.33.26-78.9.26s-78.9-.11-78.9-.26,35.32-.26,78.9-.26S428.67,362.93,428.67,363.1Z" transform="translate(0 0)" style="fill:#263238"/><rect x="114.68" y="66.51" width="71.2" height="242.11" style="fill:#ebebeb"/><path d="M146,71.68a5,5,0,0,1,1.19-.51L147.4,70h2l.28,1.16a5.26,5.26,0,0,1,1.21.48l1-.66,1.42,1.38-.62,1a4.68,4.68,0,0,1,.52,1.19l1.17.24v2l-1.17.29a4.75,4.75,0,0,1-.47,1.2l.66,1L152,80.7l-1-.62a4.26,4.26,0,0,1-1.18.51l-.25,1.18h-2l-.28-1.16a4.5,4.5,0,0,1-1.21-.48l-1,.66-1.43-1.38.63-1a4.68,4.68,0,0,1-.52-1.19L142.61,77V75l1.17-.29a4.75,4.75,0,0,1,.47-1.2l-.66-1L145,71.1l1,.62ZM147,74.32a2.13,2.13,0,1,0,3,0h0A2.14,2.14,0,0,0,147,74.32Z" transform="translate(0 0)" style="fill:#e0e0e0"/><path d="M162.42,127.24h-31a3.19,3.19,0,0,1-3.22-3.14h0a3.19,3.19,0,0,1,3.19-3.19h31a3.19,3.19,0,0,1,3.19,3.19h0A3.2,3.2,0,0,1,162.42,127.24Z" transform="translate(0 0)" style="fill:#e0e0e0"/><path d="M162.42,111h-31a3.19,3.19,0,0,1-3.19-3.19h0a3.19,3.19,0,0,1,3.19-3.19h31a3.19,3.19,0,0,1,3.19,3.19h0a3.19,3.19,0,0,1-3.19,3.19Z" transform="translate(0 0)" style="fill:#e0e0e0"/><path d="M162.42,96.1h-31a3.19,3.19,0,0,1-3.19-3.19h0a3.19,3.19,0,0,1,3.19-3.19h31a3.19,3.19,0,0,1,3.19,3.19h0a3.19,3.19,0,0,1-3.19,3.19Z" transform="translate(0 0)" style="fill:#e0e0e0"/><path d="M245.82,94.29h-29.4a3.19,3.19,0,0,1-3.19-3.19h0a3.19,3.19,0,0,1,3.19-3.19h29.4A3.19,3.19,0,0,1,249,91.1h0a3.19,3.19,0,0,1-3.19,3.19Z" transform="translate(0 0)" style="fill:#263238"/><path d="M245.82,111h-29.4a3.19,3.19,0,0,1-3.19-3.19h0a3.19,3.19,0,0,1,3.19-3.19h29.4A3.19,3.19,0,0,1,249,107.8h0a3.19,3.19,0,0,1-3.19,3.19Z" transform="translate(0 0)" style="fill:#e0e0e0"/><path d="M245.82,128.24h-29.4a3.19,3.19,0,0,1-3.19-3.19h0a3.19,3.19,0,0,1,3.19-3.19h29.4a3.19,3.19,0,0,1,3.19,3.19h0a3.19,3.19,0,0,1-3.19,3.19Z" transform="translate(0 0)" style="fill:#c1daf3"/><path d="M233.28,161.6H216.42a3.19,3.19,0,0,1-3.19-3.19h0a3.19,3.19,0,0,1,3.19-3.19h16.86a3.19,3.19,0,0,1,3.19,3.19h0a3.19,3.19,0,0,1-3.19,3.19Z" transform="translate(0 0)" style="fill:#263238"/><path d="M233.28,178.9H216.42a3.19,3.19,0,0,1-3.19-3.19h0a3.19,3.19,0,0,1,3.19-3.19h16.86a3.19,3.19,0,0,1,3.19,3.19h0a3.19,3.19,0,0,1-3.19,3.19Z" transform="translate(0 0)" style="fill:#263238"/><path d="M283.38,178.9H252.5a3.19,3.19,0,0,1-3.19-3.19h0a3.19,3.19,0,0,1,3.19-3.19h30.91a3.19,3.19,0,0,1,3.19,3.19h0a3.19,3.19,0,0,1-3.19,3.19Z" transform="translate(0 0)" style="fill:#e0e0e0"/><path d="M265.9,194.27H235a3.19,3.19,0,0,1-3.19-3.19h0a3.19,3.19,0,0,1,3.19-3.19H265.9a3.19,3.19,0,0,1,3.19,3.19h0a3.19,3.19,0,0,1-3.19,3.19Z" transform="translate(0 0)" style="fill:#c1daf3"/><rect x="249.33" y="205.43" width="25.59" height="6.38" rx="3.11" style="fill:#c1daf3"/><path d="M271.73,246.19H252.5a3.19,3.19,0,0,1-3.19-3.19h0a3.19,3.19,0,0,1,3.19-3.19h19.21A3.19,3.19,0,0,1,274.9,243h0A3.19,3.19,0,0,1,271.73,246.19Z" transform="translate(0 0)" style="fill:#c1daf3"/><path d="M271.73,282.5H252.5a3.19,3.19,0,0,1-3.19-3.19h0a3.19,3.19,0,0,1,3.17-3.21h19.23a3.19,3.19,0,0,1,3.19,3.19h0a3.19,3.19,0,0,1-3.17,3.21Z" transform="translate(0 0)" style="fill:#c1daf3"/><path d="M319,282.5H285.28a3.19,3.19,0,0,1-3.19-3.19h0a3.19,3.19,0,0,1,3.19-3.19H319a3.19,3.19,0,0,1,3.19,3.19h0A3.19,3.19,0,0,1,319,282.5Z" transform="translate(0 0)" style="fill:#455a64"/><path d="M342.5,282.5h-4.85a3.19,3.19,0,0,1-3.19-3.19h0a3.19,3.19,0,0,1,3.19-3.19h4.85a3.19,3.19,0,0,1,3.19,3.19h0a3.19,3.19,0,0,1-3.19,3.19Z" transform="translate(0 0)" style="fill:#e0e0e0"/><path d="M316.93,246.19H288.5a3.19,3.19,0,0,1-3.19-3.19h0a3.19,3.19,0,0,1,3.19-3.19H317a3.19,3.19,0,0,1,3.19,3.19h0a3.19,3.19,0,0,1-3.19,3.19Z" transform="translate(0 0)" style="fill:#e0e0e0"/><path d="M379.34,262.1H288.5a3.19,3.19,0,0,1-3.19-3.19h0a3.19,3.19,0,0,1,3.19-3.19h90.86a3.19,3.19,0,0,1,3.19,3.19h0a3.19,3.19,0,0,1-3.19,3.19Z" transform="translate(0 0)" style="fill:#e0e0e0"/><path d="M389.83,246.19h-58a3.19,3.19,0,0,1-3.19-3.19h0a3.19,3.19,0,0,1,3.19-3.19h58A3.19,3.19,0,0,1,393,243h0a3.19,3.19,0,0,1-3.19,3.19Z" transform="translate(0 0)" style="fill:#455a64"/><rect x="283.28" y="205.43" width="30.41" height="6.38" rx="3.11" style="fill:#455a64"/><rect x="322.14" y="205.43" width="12.35" height="6.38" rx="3.11" style="fill:#e0e0e0"/><rect x="343.88" y="205.43" width="36.43" height="6.38" rx="3.11" style="fill:#e0e0e0"/><path d="M286.84,194.27H280a3.19,3.19,0,0,1-3.19-3.19h0a3.19,3.19,0,0,1,3.19-3.19h6.89a3.18,3.18,0,0,1,3.18,3.18h0a3.18,3.18,0,0,1-3.17,3.19Z" transform="translate(0 0)" style="fill:#263238"/><path d="M345.19,194.27H301.33a3.19,3.19,0,0,1-3.19-3.19h0a3.19,3.19,0,0,1,3.19-3.19h43.86a3.19,3.19,0,0,1,3.19,3.19h0a3.19,3.19,0,0,1-3.19,3.19Z" transform="translate(0 0)" style="fill:#e0e0e0"/><path d="M292.92,94.29H263.5a3.19,3.19,0,0,1-3.19-3.19h0a3.19,3.19,0,0,1,3.19-3.19h29.4a3.19,3.19,0,0,1,3.19,3.19h0A3.19,3.19,0,0,1,292.92,94.29Z" transform="translate(0 0)" style="fill:#455a64"/><path d="M330.8,111H263.5a3.19,3.19,0,0,1-3.19-3.19h0a3.19,3.19,0,0,1,3.19-3.19h67.3A3.19,3.19,0,0,1,334,107.8h0A3.19,3.19,0,0,1,330.8,111Z" transform="translate(0 0)" style="fill:#263238"/><path d="M403.24,128.24H263.5a3.19,3.19,0,0,1-3.19-3.19h0a3.19,3.19,0,0,1,3.19-3.19H403.24a3.19,3.19,0,0,1,3.19,3.19h0a3.19,3.19,0,0,1-3.19,3.19Z" transform="translate(0 0)" style="fill:#e0e0e0"/><path d="M329.4,140.4H263.5a3.19,3.19,0,0,1-3.19-3.19h0A3.19,3.19,0,0,1,263.5,134h65.9a3.19,3.19,0,0,1,3.19,3.19h0a3.19,3.19,0,0,1-3.19,3.19Z" transform="translate(0 0)" style="fill:#e0e0e0"/><path d="M315.92,161.6H250a3.19,3.19,0,0,1-3.19-3.19h0a3.19,3.19,0,0,1,3.19-3.19h65.88a3.19,3.19,0,0,1,3.19,3.19h0a3.19,3.19,0,0,1-3.19,3.19Z" transform="translate(0 0)" style="fill:#455a64"/><path d="M352.8,161.6H330.72a3.19,3.19,0,0,1-3.19-3.19h0a3.19,3.19,0,0,1,3.19-3.19H352.8a3.19,3.19,0,0,1,3.19,3.19h0a3.19,3.19,0,0,1-3.19,3.19Z" transform="translate(0 0)" style="fill:#c1daf3"/><path d="M409.26,161.5H367.55a3.19,3.19,0,0,1-3.19-3.19h0a3.19,3.19,0,0,1,3.19-3.19h41.71a3.19,3.19,0,0,1,3.19,3.19h0A3.19,3.19,0,0,1,409.26,161.5Z" transform="translate(0 0)" style="fill:#263238"/><path d="M466,161.5H424.31a3.19,3.19,0,0,1-3.19-3.19h0a3.19,3.19,0,0,1,3.19-3.19H466a3.19,3.19,0,0,1,3.19,3.19h0A3.19,3.19,0,0,1,466,161.5Z" transform="translate(0 0)" style="fill:#e0e0e0"/><path d="M149,144.44H131.39a3.19,3.19,0,0,1-3.19-3.19h0a3.19,3.19,0,0,1,3.19-3.19H149a3.19,3.19,0,0,1,3.19,3.19h0a3.19,3.19,0,0,1-3.19,3.19Z" transform="translate(0 0)" style="fill:#e0e0e0"/><path d="M143.71,196.1H131.39a3.19,3.19,0,0,1-3.19-3.19h0a3.18,3.18,0,0,1,3.17-3.19h12.34a3.18,3.18,0,0,1,3.19,3.17v0h0A3.19,3.19,0,0,1,143.71,196.1Z" transform="translate(0 0)" style="fill:#e0e0e0"/><path d="M165.61,161.64H131.39a3.19,3.19,0,0,1-3.19-3.19h0a3.19,3.19,0,0,1,3.19-3.19h34.22a3.19,3.19,0,0,1,3.19,3.19h0a3.19,3.19,0,0,1-3.19,3.19Z" transform="translate(0 0)" style="fill:#e0e0e0"/><path d="M159.61,178.84H131.39a3.18,3.18,0,0,1-3.19-3.17v0h0a3.19,3.19,0,0,1,3.19-3.19h28.22a3.19,3.19,0,0,1,3.19,3.19h0a3.19,3.19,0,0,1-3.19,3.19Z" transform="translate(0 0)" style="fill:#e0e0e0"/><path d="M202,91.1a3.24,3.24,0,1,1-3.24-3.24A3.24,3.24,0,0,1,202,91.1Z" transform="translate(0 0)" style="fill:#455a64"/><path d="M202,107.75a3.24,3.24,0,1,1-3.24-3.24,3.24,3.24,0,0,1,3.24,3.24Z" transform="translate(0 0)" style="fill:#455a64"/><path d="M202,125.1a3.24,3.24,0,1,1-3.24-3.24A3.24,3.24,0,0,1,202,125.1Z" transform="translate(0 0)" style="fill:#455a64"/><path d="M202,142.36a3.24,3.24,0,1,1-3.24-3.24,3.24,3.24,0,0,1,3.24,3.24Z" transform="translate(0 0)" style="fill:#455a64"/><path d="M202,159.66a3.24,3.24,0,1,1-3.24-3.24,3.24,3.24,0,0,1,3.24,3.24Z" transform="translate(0 0)" style="fill:#455a64"/><path d="M202,177a3.24,3.24,0,1,1-3.24-3.24A3.24,3.24,0,0,1,202,177Z" transform="translate(0 0)" style="fill:#455a64"/><path d="M202,194.27a3.24,3.24,0,1,1-3.24-3.24,3.24,3.24,0,0,1,3.24,3.24Z" transform="translate(0 0)" style="fill:#455a64"/><path d="M202,211.58a3.24,3.24,0,1,1-3.24-3.24,3.24,3.24,0,0,1,3.24,3.24Z" transform="translate(0 0)" style="fill:#455a64"/><path d="M202,228.88a3.24,3.24,0,1,1-3.24-3.24,3.24,3.24,0,0,1,3.24,3.24Z" transform="translate(0 0)" style="fill:#455a64"/><path d="M202,246.19a3.24,3.24,0,1,1-3.24-3.24h0A3.24,3.24,0,0,1,202,246.19Z" transform="translate(0 0)" style="fill:#455a64"/><path d="M202,263.5a3.24,3.24,0,1,1-3.24-3.25A3.24,3.24,0,0,1,202,263.5Z" transform="translate(0 0)" style="fill:#455a64"/><path d="M202,280.8a3.24,3.24,0,1,1-3.24-3.24h0A3.24,3.24,0,0,1,202,280.8Z" transform="translate(0 0)" style="fill:#455a64"/></g><g id="Device_2" data-name="Device 2"><path d="M609.17,440.51l-114.28-.07A24.79,24.79,0,0,1,470,415.74h0l.05-284.19A24.82,24.82,0,0,1,495,106.86l114.28.07a24.79,24.79,0,0,1,24.88,24.7h0V415.82a24.81,24.81,0,0,1-24.93,24.69Z" transform="translate(0 0)" style="fill:#263238"/><path d="M608.88,117.1H586.72a5.48,5.48,0,0,0-5.38,5.58h0v4a5.48,5.48,0,0,1-5.38,5.57H532.77a5.5,5.5,0,0,1-5.38-5.59v-4a5.5,5.5,0,0,0-5.38-5.59H494.82a17.36,17.36,0,0,0-17.44,17.28h0l-.06,277.39a17.37,17.37,0,0,0,17.43,17.3l114,.06a17.37,17.37,0,0,0,17.45-17.29h0V134.43A17.36,17.36,0,0,0,608.88,117.1Z" transform="translate(0 0)" style="fill:#fff"/><path d="M477.45,158.94h40.68V429.23H495.55a18.1,18.1,0,0,1-18.1-18.1h0V158.94Z" transform="translate(0 0)" style="fill:#ebebeb"/><path d="M560.92,177.81H541.55a2.16,2.16,0,0,1-2.11-2.21h0a2.16,2.16,0,0,1,2.11-2.21h19.37a2.16,2.16,0,0,1,2.1,2.21h0A2.16,2.16,0,0,1,560.92,177.81Z" transform="translate(0 0)" style="fill:#263238"/><path d="M561.5,189.35H542.15a2.16,2.16,0,0,1-2.1-2.21h0a2.16,2.16,0,0,1,2.1-2.21H561.5a2.16,2.16,0,0,1,2.1,2.21h0A2.16,2.16,0,0,1,561.5,189.35Z" transform="translate(0 0)" style="fill:#e0e0e0"/><path d="M561.76,202.55H542.38a2.16,2.16,0,0,1-2.1-2.21h0a2.16,2.16,0,0,1,2.1-2.21h19.38a2.16,2.16,0,0,1,2.1,2.21h0A2.16,2.16,0,0,1,561.76,202.55Z" transform="translate(0 0)" style="fill:#c1daf3"/><path d="M592,212.56H572.66a2.16,2.16,0,0,1-2.1-2.21h0a2.16,2.16,0,0,1,2.1-2.21H592a2.16,2.16,0,0,1,2.1,2.21h0A2.16,2.16,0,0,1,592,212.56Z" transform="translate(0 0)" style="fill:#e0e0e0"/><path d="M556.79,225.69H545.68a2.16,2.16,0,0,1-2.1-2.22h0a2.16,2.16,0,0,1,2.1-2.21h11.11a2.16,2.16,0,0,1,2.1,2.21h0a2.16,2.16,0,0,1-2.1,2.22Z" transform="translate(0 0)" style="fill:#263238"/><path d="M556.79,237.68H545.68a2.16,2.16,0,0,1-2.1-2.22h0a2.16,2.16,0,0,1,2.1-2.21h11.11a2.16,2.16,0,0,1,2.1,2.21h0a2.16,2.16,0,0,1-2.1,2.22Z" transform="translate(0 0)" style="fill:#263238"/><path d="M589.81,237.68H569.44a2.17,2.17,0,0,1-2.11-2.22h0a2.17,2.17,0,0,1,2.11-2.21h20.37a2.16,2.16,0,0,1,2.1,2.21h0a2.16,2.16,0,0,1-2.1,2.22Z" transform="translate(0 0)" style="fill:#e0e0e0"/><path d="M566,251.81H545.66a2.17,2.17,0,0,1-2.11-2.21h0a2.17,2.17,0,0,1,2.11-2.21H566a2.16,2.16,0,0,1,2.1,2.21h0A2.16,2.16,0,0,1,566,251.81Z" transform="translate(0 0)" style="fill:#c1daf3"/><rect x="552.7" y="257.34" width="16.86" height="4.42" rx="2.15" style="fill:#c1daf3"/><path d="M559.9,281.1H547.24a2.16,2.16,0,0,1-2.1-2.21h0a2.16,2.16,0,0,1,2.1-2.21H559.9a2.16,2.16,0,0,1,2.1,2.21h0A2.16,2.16,0,0,1,559.9,281.1Z" transform="translate(0 0)" style="fill:#c1daf3"/><path d="M559.9,306.32H547.24a2.16,2.16,0,0,1-2.1-2.21h0a2.16,2.16,0,0,1,2.1-2.21H559.9a2.16,2.16,0,0,1,2.1,2.21h0A2.16,2.16,0,0,1,559.9,306.32Z" transform="translate(0 0)" style="fill:#c1daf3"/><path d="M591,306.32h-22.2a2.16,2.16,0,0,1-2.1-2.21h0a2.16,2.16,0,0,1,2.1-2.21H591a2.16,2.16,0,0,1,2.1,2.21h0A2.16,2.16,0,0,1,591,306.32Z" transform="translate(0 0)" style="fill:#455a64"/><path d="M619.16,281.62H597a2.16,2.16,0,0,1-2.1-2.21h0a2.16,2.16,0,0,1,2.1-2.21h22.19a2.16,2.16,0,0,1,2.11,2.21h0a2.16,2.16,0,0,1-2.11,2.21Z" transform="translate(0 0)" style="fill:#455a64"/><path d="M592.5,291H570.31a2.16,2.16,0,0,1-2.11-2.21h0a2.16,2.16,0,0,1,2.11-2.21H592.5a2.16,2.16,0,0,1,2.1,2.21h0A2.16,2.16,0,0,1,592.5,291Z" transform="translate(0 0)" style="fill:#455a64"/><path d="M606.55,306.32h-3.2a2.16,2.16,0,0,1-2.1-2.21h0a2.16,2.16,0,0,1,2.1-2.21h3.2a2.16,2.16,0,0,1,2.1,2.21h0A2.16,2.16,0,0,1,606.55,306.32Z" transform="translate(0 0)" style="fill:#e0e0e0"/><path d="M589.69,281.1H570.93a2.16,2.16,0,0,1-2.1-2.21h0a2.16,2.16,0,0,1,2.1-2.21h18.76a2.16,2.16,0,0,1,2.1,2.21h0A2.16,2.16,0,0,1,589.69,281.1Z" transform="translate(0 0)" style="fill:#e0e0e0"/><rect x="575.07" y="257.34" width="20.04" height="4.42" rx="2.15" style="fill:#455a64"/><rect x="600.68" y="257.34" width="8.14" height="4.42" rx="2.15" style="fill:#e0e0e0"/><path d="M579.83,251.81h-4.54a2.16,2.16,0,0,1-2.1-2.21h0a2.16,2.16,0,0,1,2.1-2.21h4.54a2.16,2.16,0,0,1,2.1,2.21h0A2.16,2.16,0,0,1,579.83,251.81Z" transform="translate(0 0)" style="fill:#263238"/><path d="M618.29,251.81h-28.9a2.17,2.17,0,0,1-2.11-2.21h0a2.17,2.17,0,0,1,2.11-2.21h28.9a2.16,2.16,0,0,1,2.1,2.21h0A2.16,2.16,0,0,1,618.29,251.81Z" transform="translate(0 0)" style="fill:#e0e0e0"/><path d="M590.08,177.81H570.7a2.16,2.16,0,0,1-2.1-2.21h0a2.16,2.16,0,0,1,2.1-2.21h19.38a2.16,2.16,0,0,1,2.1,2.21h0A2.16,2.16,0,0,1,590.08,177.81Z" transform="translate(0 0)" style="fill:#455a64"/><path d="M614.35,189.35H570a2.16,2.16,0,0,1-2.1-2.21h0a2.16,2.16,0,0,1,2.1-2.21h44.34a2.16,2.16,0,0,1,2.15,2.17h0a2.17,2.17,0,0,1-2.07,2.25Z" transform="translate(0 0)" style="fill:#263238"/><path d="M615.2,202.46H571.78a2.16,2.16,0,0,1-2.1-2.21h0a2.16,2.16,0,0,1,2.1-2.21H615.2a2.16,2.16,0,0,1,2.1,2.21h0A2.16,2.16,0,0,1,615.2,202.46Z" transform="translate(0 0)" style="fill:#e0e0e0"/><path d="M611.26,225.69H567.84a2.16,2.16,0,0,1-2.1-2.22h0a2.16,2.16,0,0,1,2.1-2.21h43.42a2.16,2.16,0,0,1,2.1,2.21h0a2.16,2.16,0,0,1-2.1,2.22Z" transform="translate(0 0)" style="fill:#455a64"/><path d="M556.79,393.78H545.68a2.16,2.16,0,0,1-2.1-2.21h0a2.16,2.16,0,0,1,2.1-2.21h11.11a2.16,2.16,0,0,1,2.1,2.21h0A2.16,2.16,0,0,1,556.79,393.78Z" transform="translate(0 0)" style="fill:#263238"/><path d="M556.79,405.77H545.68a2.16,2.16,0,0,1-2.1-2.21h0a2.16,2.16,0,0,1,2.1-2.21h11.11a2.16,2.16,0,0,1,2.1,2.21h0A2.16,2.16,0,0,1,556.79,405.77Z" transform="translate(0 0)" style="fill:#263238"/><path d="M611.26,393.78H567.84a2.16,2.16,0,0,1-2.1-2.21h0a2.16,2.16,0,0,1,2.1-2.21h43.42a2.16,2.16,0,0,1,2.1,2.21h0A2.16,2.16,0,0,1,611.26,393.78Z" transform="translate(0 0)" style="fill:#455a64"/><path d="M501.23,216.75h-11.6a2.16,2.16,0,0,1-2.1-2.21h0a2.16,2.16,0,0,1,2.1-2.21h11.6a2.16,2.16,0,0,1,2.1,2.21h0A2.16,2.16,0,0,1,501.23,216.75Z" transform="translate(0 0)" style="fill:#e0e0e0"/><path d="M501.23,229.1h-11.6a2.16,2.16,0,0,1-2.1-2.21h0a2.16,2.16,0,0,1,2.1-2.21h11.6a2.16,2.16,0,0,1,2.1,2.21h0A2.16,2.16,0,0,1,501.23,229.1Z" transform="translate(0 0)" style="fill:#e0e0e0"/><path d="M501.23,241.37h-11.6a2.16,2.16,0,0,1-2.1-2.22h0a2.16,2.16,0,0,1,2.1-2.21h11.6a2.16,2.16,0,0,1,2.1,2.21h0a2.16,2.16,0,0,1-2.1,2.22Z" transform="translate(0 0)" style="fill:#e0e0e0"/><path d="M501.23,204.45h-11.6a2.17,2.17,0,0,1-2.1-2.22h0a2.16,2.16,0,0,1,2.1-2.21h11.6a2.16,2.16,0,0,1,2.1,2.21h0A2.17,2.17,0,0,1,501.23,204.45Z" transform="translate(0 0)" style="fill:#e0e0e0"/><path d="M501.23,192.1h-11.6a2.16,2.16,0,0,1-2.1-2.21h0a2.17,2.17,0,0,1,2.1-2.22h11.6a2.17,2.17,0,0,1,2.1,2.22h0A2.16,2.16,0,0,1,501.23,192.1Z" transform="translate(0 0)" style="fill:#e0e0e0"/><path d="M501.23,179.83h-11.6a2.16,2.16,0,0,1-2.1-2.21h0a2.16,2.16,0,0,1,2.1-2.21h11.6a2.16,2.16,0,0,1,2.1,2.21h0A2.16,2.16,0,0,1,501.23,179.83Z" transform="translate(0 0)" style="fill:#e0e0e0"/><path d="M497.76,253.67h-8.13a2.16,2.16,0,0,1-2.1-2.21h0a2.16,2.16,0,0,1,2.1-2.21h8.13a2.16,2.16,0,0,1,2.1,2.21h0A2.16,2.16,0,0,1,497.76,253.67Z" transform="translate(0 0)" style="fill:#e0e0e0"/><path d="M530,175.6a2.17,2.17,0,1,1-2.17-2.25,2.2,2.2,0,0,1,2.17,2.23Z" transform="translate(0 0)" style="fill:#455a64"/><path d="M530,187.1a2.17,2.17,0,1,1-2.17-2.25A2.21,2.21,0,0,1,530,187.1Z" transform="translate(0 0)" style="fill:#455a64"/><path d="M530,199.1a2.17,2.17,0,1,1-2.17-2.25A2.21,2.21,0,0,1,530,199.1Z" transform="translate(0 0)" style="fill:#455a64"/><path d="M530,211.1a2.17,2.17,0,1,1-2.17-2.25A2.21,2.21,0,0,1,530,211.1Z" transform="translate(0 0)" style="fill:#455a64"/><path d="M530,223.1a2.17,2.17,0,1,1-2.17-2.25A2.21,2.21,0,0,1,530,223.1Z" transform="translate(0 0)" style="fill:#455a64"/><path d="M530,235.1a2.17,2.17,0,1,1-2.17-2.25,2.2,2.2,0,0,1,2.17,2.23Z" transform="translate(0 0)" style="fill:#455a64"/><path d="M530,247.1a2.17,2.17,0,1,1-2.17-2.25,2.2,2.2,0,0,1,2.17,2.23Z" transform="translate(0 0)" style="fill:#455a64"/><path d="M530,259.1a2.17,2.17,0,1,1-2.17-2.25,2.2,2.2,0,0,1,2.17,2.23Z" transform="translate(0 0)" style="fill:#455a64"/><path d="M530,271.1a2.17,2.17,0,1,1-2.17-2.25,2.2,2.2,0,0,1,2.17,2.23Z" transform="translate(0 0)" style="fill:#455a64"/><path d="M530,283.1a2.17,2.17,0,1,1-2.17-2.24A2.2,2.2,0,0,1,530,283.1Z" transform="translate(0 0)" style="fill:#455a64"/><path d="M530,295.1a2.17,2.17,0,1,1-2.17-2.24A2.2,2.2,0,0,1,530,295.1Z" transform="translate(0 0)" style="fill:#455a64"/><path d="M530,307.1a2.17,2.17,0,1,1-2.17-2.24A2.2,2.2,0,0,1,530,307.1Z" transform="translate(0 0)" style="fill:#455a64"/><path d="M566,323.44H545.66a2.17,2.17,0,0,1-2.11-2.21h0a2.17,2.17,0,0,1,2.11-2.21H566a2.16,2.16,0,0,1,2.1,2.21h0A2.16,2.16,0,0,1,566,323.44Z" transform="translate(0 0)" style="fill:#c1daf3"/><rect x="552.7" y="328.97" width="16.86" height="4.42" rx="2.15" style="fill:#c1daf3"/><path d="M559.9,352.77H547.24a2.16,2.16,0,0,1-2.1-2.21h0a2.16,2.16,0,0,1,2.1-2.21H559.9a2.16,2.16,0,0,1,2.1,2.21h0A2.16,2.16,0,0,1,559.9,352.77Z" transform="translate(0 0)" style="fill:#c1daf3"/><path d="M559.9,378H547.24a2.16,2.16,0,0,1-2.1-2.21h0a2.16,2.16,0,0,1,2.1-2.21H559.9a2.16,2.16,0,0,1,2.1,2.21h0A2.16,2.16,0,0,1,559.9,378Z" transform="translate(0 0)" style="fill:#c1daf3"/><path d="M591,378h-22.2a2.16,2.16,0,0,1-2.1-2.21h0a2.16,2.16,0,0,1,2.1-2.21H591a2.16,2.16,0,0,1,2.1,2.21h0A2.16,2.16,0,0,1,591,378Z" transform="translate(0 0)" style="fill:#455a64"/><path d="M619.16,353.25H597a2.16,2.16,0,0,1-2.1-2.21h0a2.16,2.16,0,0,1,2.1-2.21h22.19a2.16,2.16,0,0,1,2.11,2.21h0a2.16,2.16,0,0,1-2.11,2.21Z" transform="translate(0 0)" style="fill:#455a64"/><path d="M592.5,362.66H570.31a2.16,2.16,0,0,1-2.11-2.21h0a2.16,2.16,0,0,1,2.11-2.21H592.5a2.16,2.16,0,0,1,2.1,2.21h0A2.16,2.16,0,0,1,592.5,362.66Z" transform="translate(0 0)" style="fill:#455a64"/><path d="M606.55,378h-3.2a2.16,2.16,0,0,1-2.1-2.21h0a2.16,2.16,0,0,1,2.1-2.21h3.2a2.16,2.16,0,0,1,2.1,2.21h0A2.16,2.16,0,0,1,606.55,378Z" transform="translate(0 0)" style="fill:#e0e0e0"/><path d="M589.69,352.77H570.93a2.16,2.16,0,0,1-2.1-2.21h0a2.16,2.16,0,0,1,2.1-2.21h18.76a2.16,2.16,0,0,1,2.1,2.21h0A2.16,2.16,0,0,1,589.69,352.77Z" transform="translate(0 0)" style="fill:#e0e0e0"/><rect x="575.07" y="328.97" width="20.04" height="4.42" rx="2.15" style="fill:#455a64"/><rect x="600.68" y="328.97" width="8.14" height="4.42" rx="2.15" style="fill:#e0e0e0"/><path d="M579.83,323.44h-4.54a2.16,2.16,0,0,1-2.1-2.21h0a2.16,2.16,0,0,1,2.1-2.21h4.54a2.16,2.16,0,0,1,2.1,2.21h0A2.16,2.16,0,0,1,579.83,323.44Z" transform="translate(0 0)" style="fill:#263238"/><path d="M618.29,323.44h-28.9a2.17,2.17,0,0,1-2.11-2.21h0a2.17,2.17,0,0,1,2.11-2.21h28.9a2.16,2.16,0,0,1,2.1,2.21h0A2.16,2.16,0,0,1,618.29,323.44Z" transform="translate(0 0)" style="fill:#e0e0e0"/><path d="M530,318.77a2.17,2.17,0,1,1-2.17-2.25,2.2,2.2,0,0,1,2.17,2.23Z" transform="translate(0 0)" style="fill:#455a64"/><path d="M530,330.77a2.17,2.17,0,1,1-2.17-2.25,2.2,2.2,0,0,1,2.17,2.23Z" transform="translate(0 0)" style="fill:#455a64"/><path d="M530,342.77a2.17,2.17,0,1,1-2.17-2.25,2.2,2.2,0,0,1,2.17,2.23Z" transform="translate(0 0)" style="fill:#455a64"/><path d="M530,354.77a2.17,2.17,0,1,1-2.17-2.25,2.2,2.2,0,0,1,2.17,2.23Z" transform="translate(0 0)" style="fill:#455a64"/><path d="M530,366.76a2.17,2.17,0,1,1-2.17-2.24A2.2,2.2,0,0,1,530,366.76Z" transform="translate(0 0)" style="fill:#455a64"/><path d="M530,378.76a2.17,2.17,0,1,1-2.17-2.24A2.2,2.2,0,0,1,530,378.76Z" transform="translate(0 0)" style="fill:#455a64"/><path d="M530,391.57a2.17,2.17,0,1,1-2.17-2.25,2.21,2.21,0,0,1,2.17,2.25Z" transform="translate(0 0)" style="fill:#455a64"/><path d="M530,404.38a2.17,2.17,0,1,1-2.17-2.28,2.2,2.2,0,0,1,2.17,2.23Z" transform="translate(0 0)" style="fill:#455a64"/><path d="M608.88,117.1H586.72a5.48,5.48,0,0,0-5.38,5.58h0v4a5.48,5.48,0,0,1-5.38,5.57H532.77a5.5,5.5,0,0,1-5.38-5.59v-4a5.5,5.5,0,0,0-5.38-5.59H494.82a17.36,17.36,0,0,0-17.44,17.28h0V159H626.3V134.36A17.37,17.37,0,0,0,608.88,117.1Z" transform="translate(0 0)" style="fill:#f5f5f5"/><circle cx="487.3" cy="149.22" r="2.75" style="fill:#e0e0e0"/><path d="M498.5,149.23a2.75,2.75,0,1,1-2.75-2.75,2.75,2.75,0,0,1,2.75,2.75Z" transform="translate(0 0)" style="fill:#e0e0e0"/><path d="M507,149.23a2.75,2.75,0,1,1-2.75-2.75,2.75,2.75,0,0,1,2.75,2.75Z" transform="translate(0 0)" style="fill:#e0e0e0"/><path d="M552.78,139.67a6.83,6.83,0,0,1,1.75-.76l.36-1.74h2.94l.42,1.72a7.17,7.17,0,0,1,1.78.7l1.48-1,2.11,2-.92,1.51a7,7,0,0,1,.76,1.76l1.74.36v2.93l-1.72.42a7.17,7.17,0,0,1-.7,1.78l1,1.48-2,2.11-1.51-.91a7.87,7.87,0,0,1-1.76.76l-.36,1.73-2.93,0-.42-1.72a6.8,6.8,0,0,1-1.78-.7l-1.52.95-2.12-2,.92-1.52a7.14,7.14,0,0,1-.76-1.75l-1.73-.36-.06-2.94,1.75-.43a7.17,7.17,0,0,1,.7-1.78l-1-1.48,2-2.11,1.52.92Zm1.56,3.9a3.15,3.15,0,1,0,4.45-.07h0a3.14,3.14,0,0,0-4.44.06Z" transform="translate(0 0)" style="fill:#e0e0e0"/></g><g id="Icon"><rect x="40.32" y="101.87" width="93.66" height="93.66" rx="9.87" style="fill:#c1daf3"/><path d="M70.07,136.93a21.48,21.48,0,0,1,5.25-2.28l1.08-5.19,8.77-.16,1.26,5.16a21.8,21.8,0,0,1,5.33,2.09l4.43-2.91,6.32,6.1-2.75,4.53a21.87,21.87,0,0,1,2.28,5.25l5.19,1.08.15,8.78-5.15,1.26a21.58,21.58,0,0,1-2.09,5.32l2.9,4.44L97,176.71,92.42,174a21.87,21.87,0,0,1-5.25,2.28l-1.08,5.2-8.78.15-1.26-5.15a21.6,21.6,0,0,1-5.32-2.1l-4.44,2.91L60,171.15l2.75-4.53a21,21,0,0,1-2.23-5.25l-5.2-1.08-.15-8.77,5.15-1.27a21.22,21.22,0,0,1,2.1-5.32l-2.91-4.43,6-6.32L70,136.93Zm4.68,11.69a9.41,9.41,0,1,0,13.31-.23,9.42,9.42,0,0,0-13.31.23Z" transform="translate(0 0)" style="fill:#fff"/><path d="M102.72,120.38a8.75,8.75,0,0,1,1.7-1.45l-.19-2.06,3.26-1.06,1.06,1.78a8.29,8.29,0,0,1,2.22.17l1.33-1.59,3.05,1.56-.51,2a8.11,8.11,0,0,1,1.45,1.7l2.06-.19,1.06,3.26-1.78,1.06a8.33,8.33,0,0,1-.17,2.23l1.59,1.32-1.56,3-2-.51a8.11,8.11,0,0,1-1.7,1.45l.19,2.06-3.28,1.06-1-1.78a8.29,8.29,0,0,1-2.22-.17L106,135.86l-3-1.55.51-2a8.42,8.42,0,0,1-1.45-1.7l-2.06.19-1.06-3.26,1.78-1.06a8.29,8.29,0,0,1,.17-2.22l-1.59-1.33,1.56-3,2,.51Zm3.08,3.83a3.68,3.68,0,1,0,5-1.6h0a3.68,3.68,0,0,0-4.94,1.6Z" transform="translate(0 0)" style="fill:#fff"/></g><g id="Arrow"><polygon points="522.17 71.89 547.18 105.91 574.11 71.85 522.17 71.89" style="fill:#c1daf3"/><path d="M561,77.65H535.31V41c0-7.64-2.73-10.21-3.63-11-3.85-3.62-11.15-4.55-16.7-4.21h-1.32c-9,0-15.26,2.42-18.5,7.19a17.06,17.06,0,0,0-2.73,8.14v-.21l-25.66.2A41.84,41.84,0,0,1,478.58,12.9C487,4.43,498.78.12,513.58.1c6.88-.41,23.79-.08,35.71,11.13C554.64,16.23,561,25.49,561,41Z" transform="translate(0 0)" style="fill:#c1daf3"/></g><g id="Character"><path d="M162,157.84l5,40.44c.71,6.92,1.81,17.17,12.7,15.54h0c9.35-2.13,10.82-11.38,10.15-17.84-.32-3.07-.58-5.62-.59-5.94,0,0,10.26-2,10-12.38-.15-5-1.3-15.26-2.45-24.53a19.26,19.26,0,0,0-19.94-16.87h-1C165.1,137.39,160.61,147.15,162,157.84Z" transform="translate(0 0)" style="fill:#ffceb3"/><path d="M189.28,190a25,25,0,0,1-13.62-3.41s3.6,7.41,13.87,6Z" transform="translate(0 0)" style="fill:#ff9c65"/><path d="M180.44,159.9c-.22.09-1.33-.57-3-.81s-3.05.06-3.21-.08.16-.24.75-.39a7.33,7.33,0,0,1,2.6-.07,6.74,6.74,0,0,1,2.39.79C180.41,159.63,180.5,159.87,180.44,159.9Z" transform="translate(0 0)" style="fill:#263238"/><path d="M180.13,163.65a1.4,1.4,0,0,1-1.29,1.47,1.35,1.35,0,0,1-1.49-1.19h0a1.41,1.41,0,0,1,1.29-1.47,1.34,1.34,0,0,1,1.49,1.17Z" transform="translate(0 0)" style="fill:#263238"/><path d="M185.7,170.75a10.79,10.79,0,0,1,2.56-.58c.4-.06.78-.15.84-.43a2.17,2.17,0,0,0-.32-1.19c-.43-1-.87-2-1.33-3-1.86-4.32-3.22-7.88-3-8s1.82,3.38,3.67,7.7l1.28,3.06a2.42,2.42,0,0,1,.28,1.58,1,1,0,0,1-.64.62,2.7,2.7,0,0,1-.69.12A9.81,9.81,0,0,1,185.7,170.75Z" transform="translate(0 0)" style="fill:#263238"/><path d="M178.5,153c-.12.4-1.52.27-3.16.54s-2.94.8-3.17.45c-.11-.16.11-.54.63-.94a4.93,4.93,0,0,1,2.32-1,5.17,5.17,0,0,1,2.5.2C178.28,152.47,178.59,152.77,178.5,153Z" transform="translate(0 0)" style="fill:#263238"/><path d="M195.2,154.25c-.15.33-1.53.14-3.15.28s-3,.5-3.16.19c-.09-.14.14-.45.68-.76a5.55,5.55,0,0,1,2.35-.68,6,6,0,0,1,2.45.31C195,153.82,195.26,154.1,195.2,154.25Z" transform="translate(0 0)" style="fill:#263238"/><path d="M163.18,165.59c-.19-.06-7.59-1.69-6.85,5.7s8,5.11,8,4.9S163.18,165.59,163.18,165.59Z" transform="translate(0 0)" style="fill:#ffceb3"/><path d="M161.79,173.62a3.69,3.69,0,0,1-.32.23,1.3,1.3,0,0,1-1,.11,3.2,3.2,0,0,1-1.77-2.71,4.23,4.23,0,0,1,.18-1.87,1.49,1.49,0,0,1,.87-1.09.65.65,0,0,1,.79.28c.12.19.09.35.13.35s.15-.14.06-.43a.83.83,0,0,0-.34-.44,1,1,0,0,0-.73-.11,1.79,1.79,0,0,0-1.23,1.28,4.41,4.41,0,0,0-.24,2.1c.2,1.48,1.1,2.8,2.2,3a1.43,1.43,0,0,0,1.16-.31C161.8,173.8,161.82,173.63,161.79,173.62Z" transform="translate(0 0)" style="fill:#ff9c65"/><path d="M186.5,175.6c0-.2-1.44,0-2.83-.88a7.66,7.66,0,0,1-1.61-1.33c-.39-.39-.66-.63-.72-.58s.09.36.41.83a5.2,5.2,0,0,0,1.63,1.57,4.26,4.26,0,0,0,2.2.58C186.19,175.79,186.5,175.66,186.5,175.6Z" transform="translate(0 0)" style="fill:#263238"/><path d="M195.37,157.78c-.14.18-1.42.21-3,.9s-2.59,1.61-2.8,1.58,0-.28.45-.7a7.45,7.45,0,0,1,2.2-1.39,7.1,7.1,0,0,1,2.44-.59C195.22,157.57,195.5,157.69,195.37,157.78Z" transform="translate(0 0)" style="fill:#263238"/><path d="M194.29,162.41a1.41,1.41,0,0,1-1.29,1.47,1.34,1.34,0,0,1-1.49-1.17v0a1.39,1.39,0,0,1,1.28-1.46,1.35,1.35,0,0,1,1.5,1.16Z" transform="translate(0 0)" style="fill:#263238"/><path d="M209.56,142.33a1.67,1.67,0,0,0-.89-.88,5.15,5.15,0,0,0-2.67-.12,14.93,14.93,0,0,1-6.59-.86,7.27,7.27,0,0,0,1.73-1.54,4.44,4.44,0,0,0,.76-4.51,1,1,0,0,0-.63-.61c-.47-.09-.81.41-1.09.8a3.82,3.82,0,0,1-3.38,1.92,6.32,6.32,0,0,1-2.75-.48L194,136l-1.2-1h0c-2.93-2.3-5.41-3.85-7.84-4.52a23.93,23.93,0,0,0-12.81.48c-3.45,1.34-6.31,4.6-6.39,8.31-2.19-1.46-5.19-1.09-7.51.17h-.06c-2.6,1.28-3.8,4.32-4.28,7.17a3.54,3.54,0,0,1-.07.47,10.92,10.92,0,0,1-3.23,4c-.25.18-.53.4-.52.7s.28.52.54.67a5.45,5.45,0,0,0,2.3.66,13,13,0,0,1-.67,2c-.25.55-.54,1.21-.21,1.72a1.13,1.13,0,0,0,1.25.38,3.26,3.26,0,0,0,1.2-.72l-.66,2.28a6.4,6.4,0,0,0,2.93-.54,72.51,72.51,0,0,0,2.77,7.41c1.14-.13,2.18-.52,2.95,0,1.05.74,1.66,2.29,3.16,1.5.77-.4,1.31-2.17,1.48-3a40.29,40.29,0,0,0-.23-17.11,12.89,12.89,0,0,1,3.65-3.29l-.11.12c2.75-1.32,5.87-2.67,8.74-1.64,2.23.79,3.72,2.83,5.49,4.39a15.24,15.24,0,0,0,11.67,4c.76,3,.88,7,1.36,9.86l2.13-5h0c.16-.36.29-.72.41-1.08v-.11h0a18,18,0,0,1,.62-1.74h0a1.81,1.81,0,0,0,2.35-2.72,4.44,4.44,0,0,0-1-.77,2.86,2.86,0,0,0,2.79.39,2.26,2.26,0,0,0,1.33-2.4,1.94,1.94,0,0,0-1.31-1.39,6.45,6.45,0,0,0,3.56-1.23A1.88,1.88,0,0,0,209.56,142.33Z" transform="translate(0 0)" style="fill:#263238"/><path d="M169.07,140.1a9.32,9.32,0,0,0-.92,1.06,7.49,7.49,0,0,0-1.17,3.58,12.84,12.84,0,0,0,0,2.63c.1.95.29,1.95.49,3a29.34,29.34,0,0,1,.47,3.35,13.52,13.52,0,0,1,0,1.8,3.83,3.83,0,0,1-.52,1.8A1.56,1.56,0,0,1,166,158a2.41,2.41,0,0,1-1.39-.59,5.36,5.36,0,0,1-1.28-2.49h.21a8.66,8.66,0,0,1-1,2.29,3.08,3.08,0,0,1-1.87,1.32,2,2,0,0,1-1.08-.06,1.7,1.7,0,0,1-.8-.63,1.84,1.84,0,0,1-.32-.88,1.23,1.23,0,0,1,.24-.83l.12.08a6.74,6.74,0,0,1-2,1.91c-.28.16-.5.27-.65.34a1,1,0,0,1-.24.09,1,1,0,0,1,.22-.13,6.5,6.5,0,0,0,.63-.37,7.05,7.05,0,0,0,1.93-1.92l.12.08a1.31,1.31,0,0,0,.1,1.53,1.6,1.6,0,0,0,.73.55,1.79,1.79,0,0,0,1,0,2.89,2.89,0,0,0,1.73-1.25,8.35,8.35,0,0,0,1-2.24l.1-.34.11.35a5.25,5.25,0,0,0,1.23,2.37,2.11,2.11,0,0,0,1.24.53,1.32,1.32,0,0,0,1.18-.56,3.44,3.44,0,0,0,.48-1.68,12.92,12.92,0,0,0,0-1.76,26.64,26.64,0,0,0-.45-3.33c-.19-1-.37-2.06-.47-3a13.24,13.24,0,0,1,0-2.67,7.24,7.24,0,0,1,1.27-3.62A4.19,4.19,0,0,1,169.07,140.1Z" transform="translate(0 0)" style="fill:#455a64"/><path d="M201.9,146.36l-.07.08-.24.22a3.12,3.12,0,0,1-.4.32,4.7,4.7,0,0,1-.59.4,8.93,8.93,0,0,1-4.29,1.3,11.71,11.71,0,0,1-6.44-1.56,20.37,20.37,0,0,1-6-5.51c-.89-1.15-1.64-2.35-2.45-3.45a14,14,0,0,0-2.64-2.85,7,7,0,0,0-3.16-1.45,4.66,4.66,0,0,0-1.58,0,5.6,5.6,0,0,0-1.39.43,5.9,5.9,0,0,0-2,1.54,6,6,0,0,0-1,1.63,6.73,6.73,0,0,0-.35,1.6v-.43a5.45,5.45,0,0,1,.25-1.2,5.76,5.76,0,0,1,1-1.69,6.21,6.21,0,0,1,2-1.6,5.65,5.65,0,0,1,1.44-.47,5,5,0,0,1,1.64,0,7,7,0,0,1,3.26,1.47,13.18,13.18,0,0,1,2.7,2.88c.82,1.11,1.57,2.31,2.45,3.45a20.08,20.08,0,0,0,5.94,5.45,11.52,11.52,0,0,0,6.33,1.59,9.11,9.11,0,0,0,4.25-1.21A12.4,12.4,0,0,0,201.9,146.36Z" transform="translate(0 0)" style="fill:#455a64"/><path d="M202.31,141.75a3.06,3.06,0,0,1-.34.3,7.65,7.65,0,0,1-1,.68,11.35,11.35,0,0,1-1.66.77,13.38,13.38,0,0,1-2.16.54,11.18,11.18,0,0,1-2.24.11,10.83,10.83,0,0,1-1.8-.25,8,8,0,0,1-1.18-.35c-.27-.11-.42-.17-.41-.19s.61.18,1.62.37a11.83,11.83,0,0,0,1.78.2,14.63,14.63,0,0,0,2.19-.13,13,13,0,0,0,2.13-.51,12.06,12.06,0,0,0,1.65-.71C201.77,142.1,202.28,141.72,202.31,141.75Z" transform="translate(0 0)" style="fill:#455a64"/><path d="M195.17,212l-64.55.8a5.86,5.86,0,0,0-5.79,5.81l-.91,114,87,1.19L201.11,217.4A5.86,5.86,0,0,0,195.17,212Z" transform="translate(0 0)" style="fill:#455a64"/><path d="M269.23,406.57l-.35,22s22.24,7.76,22.57,11.83l-42.69.84-.85-34.31Z" transform="translate(0 0)" style="fill:#c1daf3"/><path d="M255.64,427a1.73,1.73,0,0,0-1.17,2,1.68,1.68,0,0,0,2,1.17,1.85,1.85,0,0,0,1.22-2.14,1.74,1.74,0,0,0-2.2-1" transform="translate(0 0)" style="fill:#e0e0e0"/><path d="M248.76,441.24l-.14-3.46,41.11.49s1.91.79,1.72,2.13Z" transform="translate(0 0)" style="fill:#e0e0e0"/><path d="M269.56,428.34c0,.21-1,.33-2.05,1s-1.54,1.58-1.74,1.5.1-1.29,1.34-2.11S269.6,428.15,269.56,428.34Z" transform="translate(0 0)" style="fill:#263238"/><path d="M274.08,430.1c.05.2-.85.57-1.54,1.47s-.87,1.83-1.08,1.82-.37-1.18.51-2.27S274.07,429.91,274.08,430.1Z" transform="translate(0 0)" style="fill:#263238"/><path d="M276.73,435.42c-.19,0-.5-1,0-2.14s1.48-1.63,1.57-1.46-.5.8-.91,1.75S276.93,435.39,276.73,435.42Z" transform="translate(0 0)" style="fill:#263238"/><path d="M269.09,423.32c-.09.19-1-.08-2.22,0s-2.09.49-2.2.31.75-.94,2.14-1S269.19,423.15,269.09,423.32Z" transform="translate(0 0)" style="fill:#263238"/><path d="M205.09,293.44s12.64,1.9,25.67,4.32c15.61,2.9,32.23,6.53,34.46,8.28,4.09,3.21,5,12,6.71,22.77S274.08,420,274.08,420l-29,.84-5.74-84.3s-42.34,0-51-.07c-7-.05-25.93.74-33.11-3-11.29-6-9.18-28.61-9.18-28.61,2.82-2.42,51.11-16.72,51.11-16.72Z" transform="translate(0 0)" style="fill:#263238"/><path d="M276.5,353.71l4.17,22.19s23.95,3.2,25.12,7.23l-42.72,9.63-7.92-34.29Z" transform="translate(0 0)" style="fill:#c1daf3"/><path d="M267,377a1.81,1.81,0,0,0-.76,2.27,1.73,1.73,0,0,0,2.22.81,1.89,1.89,0,0,0,.79-2.4,1.78,1.78,0,0,0-2.41-.55" transform="translate(0 0)" style="fill:#e0e0e0"/><path d="M263.24,393.67l-.77-3.32,41.14-9s2.09.4,2.18,1.79Z" transform="translate(0 0)" style="fill:#e0e0e0"/><path d="M281.31,375.52c0,.21-1,.54-1.85,1.44s-1.23,1.91-1.44,1.87-.17-1.32.91-2.39S281.32,375.32,281.31,375.52Z" transform="translate(0 0)" style="fill:#263238"/><path d="M286.21,376.37c.1.19-.73.74-1.24,1.79s-.5,2-.71,2.06-.61-1.12.05-2.4S286.16,376.17,286.21,376.37Z" transform="translate(0 0)" style="fill:#263238"/><path d="M290,381.15c-.18.09-.71-.89-.43-2.15s1.15-1.94,1.28-1.78-.34.9-.55,1.94S290.17,381.1,290,381.15Z" transform="translate(0 0)" style="fill:#263238"/><path d="M279.8,370.57c0,.21-1.07.14-2.23.49s-2,.92-2.14.77.57-1.1,1.94-1.49S279.87,370.39,279.8,370.57Z" transform="translate(0 0)" style="fill:#263238"/><path d="M255.73,277s10-.71,12.14,7.84c3,11.85,16.08,82.69,16.08,82.69l-29.52,5.71L238.86,304.1l-28-4.56-11.53-4.61s6.52-6.94,20-11.24C228.56,280.78,255.73,277,255.73,277Z" transform="translate(0 0)" style="fill:#263238"/><path d="M239,305.89a16.52,16.52,0,0,1,8.24-7.16,9.65,9.65,0,0,0-5,2.53,11.94,11.94,0,0,0-2.56,3.1A4.13,4.13,0,0,0,239,305.89Z" transform="translate(0 0)" style="fill:#455a64"/><path d="M245.39,291.87a3.52,3.52,0,0,0-.55.36,11.71,11.71,0,0,0-1.33,1.21,17,17,0,0,0-4.65,10.66,10.7,10.7,0,0,0,0,1.79c0,.42.07.65.11.65s0-.94.2-2.42a19.26,19.26,0,0,1,4.57-10.47C244.74,292.54,245.44,291.93,245.39,291.87Z" transform="translate(0 0)" style="fill:#455a64"/><path d="M269.21,291.87a2.37,2.37,0,0,1,.09.36c.05.26.13.61.23,1.08.2,1,.48,2.37.85,4.19.74,3.67,1.8,9,3.13,15.7,2.64,13.43,6.35,32.34,10.66,54.29l.05.22H284l-29.5,5.76-.22,0-.05-.23c-.16-.69-.33-1.43-.49-2.18-5.73-25.5-11-48.91-15-67l.15.14-29.39-4.82-8-1.36-2.1-.37-.71-.14a4.29,4.29,0,0,1,.72.09l2.11.31,8,1.26,29.39,4.7h.12v.13c4.08,18,9.37,41.45,15.13,66.94.17.75.33,1.49.49,2.18l-.28-.18,29.53-5.7-.18.26c-4.24-22-7.9-40.88-10.5-54.32-1.28-6.7-2.29-12-3-15.73-.33-1.82-.6-3.23-.78-4.2l-.19-1.08A1.61,1.61,0,0,1,269.21,291.87Z" transform="translate(0 0)" style="fill:#455a64"/><path d="M205,203.5s5.48,3.63,7.89,14.38c1.94,8.62,5,25,5,25l11.47,7.53a2.57,2.57,0,0,1,.83,3.42c-2.69,4.77-9.47,16.09-13.89,17.45-5.63,1.74-11.06-2.68-11.06-2.68Z" transform="translate(0 0)" style="fill:#c1daf3"/><path d="M205,203.5l-13.21-5.32-2.25-4.4-2,9.11L166,190.1l-1.48,5.34s-20.5,8.6-23.16,11c-3.27,3,5.66,52.62,5.66,52.62s-3.24,39.84-2.05,47.77a223.58,223.58,0,0,1,26.22-5.73c11.92-1.63,26.32-6.2,26.32-6.2l13-8Z" transform="translate(0 0)" style="fill:#c1daf3"/><path d="M207,225.1a3,3,0,0,1,.07.66c0,.49.05,1.12.09,1.91.08,1.72.19,4.1.32,7,.27,5.94.69,14.13,1.21,23.18s1.06,17.24,1.51,23.16c.23,2.93.42,5.31.56,7,.06.79.11,1.42.15,1.9a3.75,3.75,0,0,1,0,.67,5,5,0,0,1-.11-.66c-.07-.48-.15-1.11-.25-1.89-.19-1.66-.44-4-.7-7-.54-5.92-1.12-14.11-1.65-23.16s-.89-17.26-1.08-23.2c-.09-3-.14-5.37-.16-7v-1.92A4.73,4.73,0,0,1,207,225.1Z" transform="translate(0 0)" style="fill:#263238"/><path d="M153.06,221.1c-.08,0,0-1.06-.2-2.73a13.26,13.26,0,0,0-7.36-10.27,15.37,15.37,0,0,0-2.53-1,1.86,1.86,0,0,1,.74.09,11.84,11.84,0,0,1,1.93.65,12.7,12.7,0,0,1,7.56,10.45,11.13,11.13,0,0,1,0,2A2,2,0,0,1,153.06,221.1Z" transform="translate(0 0)" style="fill:#263238"/><path d="M209.29,273.1l-6.3-6.39-13-3.14S178.12,267,177.84,267s-10.48-3.39-10.48-3.39L164,276.66l18.09,1.18,20.66-.79s1.07-1,.43-1.61,3.46,1.11,3.94,1.13,1.42.37,2-.37A2.44,2.44,0,0,0,209.29,273.1Z" transform="translate(0 0)" style="fill:#ffceb3"/><path d="M141.15,206.47s-4.59,2.88-6.86,11.83-9.37,45.93-7.35,51.4,46.81,12.51,46.81,12.51l5.11-16.2-31.09-10.3s4.55-17.78,4.8-25S141.15,206.47,141.15,206.47Z" transform="translate(0 0)" style="fill:#c1daf3"/><path d="M203.23,275.43a12.63,12.63,0,0,1-2-.56c-1.26-.39-3-.9-4.94-1.37s-3.72-.83-5-1.08a11.47,11.47,0,0,1-2.09-.46,8.51,8.51,0,0,1,2.14.15,48.51,48.51,0,0,1,5.08,1,46.7,46.7,0,0,1,4.93,1.5A8.06,8.06,0,0,1,203.23,275.43Z" transform="translate(0 0)" style="fill:#ff9c65"/><path d="M209.29,273.1a25.88,25.88,0,0,1-2.88-.88c-1.76-.57-4.22-1.27-7-2a37.51,37.51,0,0,0-7-1.66,18.82,18.82,0,0,0-3,.11,2.64,2.64,0,0,1,.78-.25,8.72,8.72,0,0,1,2.22-.17,31.08,31.08,0,0,1,7.13,1.54c2.74.73,5.21,1.48,7,2.13.88.32,1.57.61,2,.82A3.45,3.45,0,0,1,209.29,273.1Z" transform="translate(0 0)" style="fill:#ff9c65"/><path d="M138.83,259.1a10.21,10.21,0,0,1,9.1-3.38,23.24,23.24,0,0,0-4.81,1A23.33,23.33,0,0,0,138.83,259.1Z" transform="translate(0 0)" style="fill:#263238"/><path d="M133.88,273.91h.2l.56.15c.48.15,1.22.33,2.17.56,1.91.46,4.71,1.08,8.24,1.81,7.07,1.45,17.07,3.38,28.74,5.52l-.25.16c1.58-5,3.3-10.52,5.09-16.21l.15.3-1.76-.59-29.31-9.74-.17-.06v-.17c1.6-8.46,2.94-15.5,3.88-20.46.47-2.43.85-4.36,1.11-5.71.13-.63.23-1.13.31-1.5a1.74,1.74,0,0,1,.13-.51,4.63,4.63,0,0,1-.07.52c-.06.37-.14.87-.25,1.51-.24,1.36-.57,3.29-1,5.74-.9,5-2.18,12-3.71,20.48l-.13-.23,29.33,9.68,1.76.59.22.07-.07.22c-1.79,5.69-3.52,11.17-5.11,16.2l-.06.19h-.2C162,280.25,152,278.26,145,276.73c-3.53-.76-6.32-1.43-8.22-1.94-.95-.25-1.68-.46-2.17-.63L134,274Z" transform="translate(0 0)" style="fill:#263238"/><path d="M220.88,256.71a2.75,2.75,0,0,1-.88-.33,12.14,12.14,0,0,1-2.18-1.38,14.84,14.84,0,0,1-4.89-6.88,12.56,12.56,0,0,1-.69-4.67,4,4,0,0,1,1.94-3.31,2.52,2.52,0,0,1,2.58.11c.52.38.61.76.59.76a2.56,2.56,0,0,0-.7-.59,2.34,2.34,0,0,0-2.29,0,3.69,3.69,0,0,0-1.64,3,12.74,12.74,0,0,0,.7,4.46,15.56,15.56,0,0,0,4.63,6.77A29,29,0,0,0,220.88,256.71Z" transform="translate(0 0)" style="fill:#263238"/><path d="M210.3,249.31a6.4,6.4,0,0,1,.9-2.31,6.15,6.15,0,0,1,1.36-2.08,5.89,5.89,0,0,1-.9,2.32C211,248.45,210.43,249.38,210.3,249.31Z" transform="translate(0 0)" style="fill:#263238"/><path d="M191.89,197.83a8.94,8.94,0,0,1-.14,2.25c-.16,1.38-.41,3.28-.72,5.38l-.15,1-.11.75-.37-.66a26.63,26.63,0,0,0-2.16-3.29l.35-.12a12.7,12.7,0,0,1-.28,2.68,12.1,12.1,0,0,1-.11-2.69v-.53l.35.41a20.86,20.86,0,0,1,2.3,3.29l-.48.09.15-1c.31-2.09.61-4,.86-5.36A10.34,10.34,0,0,1,191.89,197.83Z" transform="translate(0 0)" style="fill:#263238"/><path d="M187.82,206.36a5.41,5.41,0,0,1-.7-.88L185.33,203l.31-.05c-.41,1.59-.91,3.49-1.46,5.61l-.08.31-.27-.16c-1.78-1-3.75-2.24-5.8-3.53-3.92-2.48-7.38-4.87-9.84-6.66-1.23-.9-2.21-1.64-2.88-2.17a6.31,6.31,0,0,1-1-.86,5.75,5.75,0,0,1,1.13.7l3,2c2.51,1.72,6,4.06,9.91,6.53,2,1.29,4,2.49,5.76,3.56l-.35.14,1.59-5.58.11-.37.2.32,1.66,2.61A4.25,4.25,0,0,1,187.82,206.36Z" transform="translate(0 0)" style="fill:#263238"/><path d="M192.43,264a2.14,2.14,0,0,1-.11-.56c-.06-.44-.13-1-.22-1.64-.17-1.43-.4-3.5-.66-6-.52-5.11-1.16-12.18-1.72-20s-.93-14.9-1.14-20c-.1-2.56-.17-4.64-.2-6.08V208a1.88,1.88,0,0,1,0-.58,2.25,2.25,0,0,1,.07.58q.06.65.12,1.65c.1,1.5.22,3.56.37,6.07.3,5.12.73,12.2,1.29,20s1.14,14.88,1.57,20c.2,2.51.37,4.56.49,6.06,0,.67.09,1.22.12,1.66A3.25,3.25,0,0,1,192.43,264Z" transform="translate(0 0)" style="fill:#263238"/><path d="M164.33,287.18c0,.13-7.56.24-16.89.24s-16.9-.11-16.9-.24,7.57-.24,16.9-.24S164.33,287.1,164.33,287.18Z" transform="translate(0 0)" style="fill:#263238"/><path d="M149.79,278.45c0,.13-4.51.24-10.07.24s-10.07-.11-10.07-.24,4.5-.23,10.07-.23S149.79,278.32,149.79,278.45Z" transform="translate(0 0)" style="fill:#263238"/><path d="M239.36,240.24,220,274.54l-44.84,1-.11,2.08,44.49-.33,1.41-.05,47,.09L277.42,261l11.75-19a1.72,1.72,0,0,0-1.41-2.7l-46.89.18A1.71,1.71,0,0,0,239.36,240.24Z" transform="translate(0 0)" style="fill:#e0e0e0"/><path d="M254.38,257.92a2,2,0,1,0,3.3,2.25,2,2,0,0,0-.3-2.6,2.11,2.11,0,0,0-3,.31Z" transform="translate(0 0)" style="fill:#fff"/><path d="M244.5,239.37c.11.07-4.62,8.59-10.57,19s-10.86,18.86-11,18.8,4.62-8.59,10.57-19S244.36,239.31,244.5,239.37Z" transform="translate(0 0)" style="fill:#263238"/><path d="M216.66,344.93s-21.35,9.74-42.12,9.74c-19.24,0-40.75-9.68-40.75-9.68Z" transform="translate(0 0)" style="fill:#e0e0e0"/><rect x="172.36" y="345.85" width="8.24" height="86.28" style="fill:#e0e0e0"/><rect x="139.55" y="428.57" width="73.11" height="5.06" style="fill:#e0e0e0"/><path d="M204.09,435.8a5.58,5.58,0,1,0,5.58-5.58h0A5.58,5.58,0,0,0,204.09,435.8Z" transform="translate(0 0)" style="fill:#263238"/><path d="M171.61,435.8a5.58,5.58,0,1,0,5.58-5.58h0A5.58,5.58,0,0,0,171.61,435.8Z" transform="translate(0 0)" style="fill:#263238"/><path d="M134,435.8a5.58,5.58,0,1,0,5.58-5.58h0A5.58,5.58,0,0,0,134,435.8Z" transform="translate(0 0)" style="fill:#263238"/><rect x="174.54" y="376.9" width="11.2" height="4.64" style="fill:#e0e0e0"/><rect x="183.71" y="373.66" width="4.08" height="11.13" style="fill:#e0e0e0"/><path d="M132.5,344.93H230c3.65,0,6.61-2,6.61-6.2h0a6.42,6.42,0,0,0-6.61-6.19H123.92v4.36A8.31,8.31,0,0,0,132.5,344.93Z" transform="translate(0 0)" style="fill:#455a64"/><path d="M137.17,287c.13,0,.24,10.76.24,24s-.11,24-.24,24-.24-10.76-.24-24S137,287,137.17,287Z" transform="translate(0 0)" style="fill:#263238"/><path d="M175.83,333.29" transform="translate(0 0)" style="fill:none;stroke:#4e585d;stroke-miterlimit:10;stroke-width:0.05000000074505806px"/><path d="M233.82,331a10,10,0,0,1,1.32,1.85,12.29,12.29,0,0,1,1.58,6.27,5.73,5.73,0,0,1-1.61,4.36,5.43,5.43,0,0,1-2.36,1.35,10.63,10.63,0,0,1-2.92.26H216.21l-78.89.13a49.52,49.52,0,0,1-5.58-.16,9.28,9.28,0,0,1-5-2.43,10.22,10.22,0,0,1-2.64-4.79,16.13,16.13,0,0,1-.44-5.36h0c.26-25.6.49-48.05.66-64.12.1-8,.19-14.43.24-18.87,0-2.2.07-3.9.09-5.07v-1.76a3.23,3.23,0,0,1,0,.44v6.39c0,4.44-.05,10.86-.09,18.87-.12,16.07-.29,38.52-.48,64.12h0a15.58,15.58,0,0,0,.43,5.18,9.75,9.75,0,0,0,2.5,4.54,8.74,8.74,0,0,0,4.71,2.28,50.52,50.52,0,0,0,5.5.16h92.51a10.5,10.5,0,0,0,2.85-.23,5.18,5.18,0,0,0,2.26-1.27,5.46,5.46,0,0,0,1.66-4,12.35,12.35,0,0,0-1.46-6.22,13.08,13.08,0,0,0-.9-1.42C233.92,331.16,233.82,331,233.82,331Z" transform="translate(0 0)" style="fill:#263238"/><path d="M125.4,286.85l45,.54a1.17,1.17,0,0,1,1.12,1.22.41.41,0,0,1,0,.11L164.76,345h10.57l5.45-61.85a3.62,3.62,0,0,0-3.14-4l-.33,0-52.59-.31Z" transform="translate(0 0)" style="fill:#455a64"/><path d="M125.4,286.85a3.27,3.27,0,0,0-.06-.5c-.06-.34-.09-.86-.15-1.53-.13-1.39-.31-3.44-.56-6.13v-.11h.1l43.6.13h7.59a13.33,13.33,0,0,1,2,.08,3.76,3.76,0,0,1,1.86.92,3.84,3.84,0,0,1,1.12,1.78,5.13,5.13,0,0,1,.08,2.1c-.47,5.41-1,11.06-1.47,16.9-1,11.68-2.12,24.14-3.25,37.07q-.33,3.72-.65,7.37v.24H164.5v-.29c1.76-14.57,3.41-28.28,4.91-40.66.37-3.09.74-6.1,1.09-9,.18-1.46.35-2.89.52-4.31.09-.7.18-1.4.26-2.1a1,1,0,0,0-.74-1.21l-.15,0-15.27-.23L133.26,287l-5.86-.11h6l21.84.18,15.2.14a1.38,1.38,0,0,1,1,.56,1.48,1.48,0,0,1,.24,1.14c-.08.69-.17,1.39-.25,2.1-.17,1.41-.34,2.85-.51,4.31-.35,2.92-.7,5.93-1.07,9-1.48,12.38-3.11,26.09-4.85,40.66l-.26-.29h10.57l-.26.24c.21-2.43.42-4.89.65-7.37,1.14-12.94,2.24-25.4,3.28-37.08q.78-8.76,1.5-16.9a4.78,4.78,0,0,0-.06-1.92,3.53,3.53,0,0,0-1-1.57,3.4,3.4,0,0,0-1.64-.82,15.41,15.41,0,0,0-1.92-.07l-7.59-.05-43.59-.38.1-.1c.19,2.67.33,4.7.44,6.09,0,.68.08,1.19.11,1.56Z" transform="translate(0 0)" style="fill:#263238"/><circle cx="170.68" cy="339.55" r="1.37" style="fill:#263238"/><polygon points="77.88 255.86 81.17 277.52 100.32 277.52 104.77 256.18 77.88 255.86" style="fill:#c1daf3"/><path d="M102.09,269.75c0,.06-4.91.11-11,.11s-11-.05-11-.11,4.91-.12,11-.12S102.09,269.68,102.09,269.75Z" transform="translate(0 0)" style="fill:#fafafa"/><path d="M102.17,268.68c0,.06-4.94.11-11,.11s-11-.05-11-.11,4.94-.11,11-.11S102.17,268.62,102.17,268.68Z" transform="translate(0 0)" style="fill:#fafafa"/><path d="M102.13,267.48c0,.06-4.94.11-11,.11s-11,0-11-.11,4.94-.11,11-.11S102.13,267.42,102.13,267.48Z" transform="translate(0 0)" style="fill:#fafafa"/><path d="M83.37,276.29a36.65,36.65,0,0,1-1-5.49,16.91,16.91,0,0,1,.59,2.72A16.16,16.16,0,0,1,83.37,276.29Z" transform="translate(0 0)" style="fill:#fafafa"/><path d="M84.68,276.1a19.77,19.77,0,0,1-.24-2.66,21.7,21.7,0,0,1-.13-2.67,12.51,12.51,0,0,1,.35,2.65A12.64,12.64,0,0,1,84.68,276.1Z" transform="translate(0 0)" style="fill:#fafafa"/><path d="M87.05,276.1a21.25,21.25,0,0,1-.64-5.5,75.44,75.44,0,0,1,.64,5.5Z" transform="translate(0 0)" style="fill:#fafafa"/><path d="M88.72,276.17a21.49,21.49,0,0,1-.18-5.55Q88.74,273.4,88.72,276.17Z" transform="translate(0 0)" style="fill:#fafafa"/><path d="M91.67,276.1a15.45,15.45,0,0,1-.2-2.63,16.62,16.62,0,0,1,0-2.64,30.93,30.93,0,0,1,.18,5.27Z" transform="translate(0 0)" style="fill:#fafafa"/><path d="M93.82,276.17a32.23,32.23,0,0,1,.05-5.44,17.63,17.63,0,0,1,.09,2.72A14.55,14.55,0,0,1,93.82,276.17Z" transform="translate(0 0)" style="fill:#fafafa"/><path d="M95.84,275.88A19.25,19.25,0,0,1,96,273a17.86,17.86,0,0,1,.38-2.82,35.08,35.08,0,0,1-.55,5.66Z" transform="translate(0 0)" style="fill:#fafafa"/><path d="M98.5,275.6a9.4,9.4,0,0,1,.32-2.42,10.11,10.11,0,0,1,.71-2.33,17.63,17.63,0,0,1-.49,2.38A19.34,19.34,0,0,1,98.5,275.6Z" transform="translate(0 0)" style="fill:#fafafa"/><path d="M75.68,251.57v4.06a1.6,1.6,0,0,0,1.6,1.59H105a1.59,1.59,0,0,0,1.59-1.59v-4.06Z" transform="translate(0 0)" style="fill:#c1daf3"/><g style="opacity:0.4000000059604645"><polygon points="78.08 257.22 78.31 258.51 103.9 260.34 104.55 257.22 78.08 257.22"/></g><path d="M85.74,251.56c-4.08-2.36-6.26-7.86-6.42-12.35s1.71-9.2,5.4-11.77a12.34,12.34,0,0,1,13.41-.11,14,14,0,0,1,6.15,12.11,16.08,16.08,0,0,1-6.58,12.08" transform="translate(0 0)" style="fill:#455a64"/><path d="M92.24,252a6.73,6.73,0,0,1-.07-1c0-.74,0-1.68-.08-2.81-.06-2.37-.16-5.64-.31-9.25s-.36-6.88-.51-9.24c-.06-1.13-.12-2.07-.16-2.8a5.57,5.57,0,0,1,0-1,4.87,4.87,0,0,1,.17,1c.08.66.18,1.62.28,2.8.22,2.36.46,5.63.62,9.25s.21,6.89.2,9.26V251A5.38,5.38,0,0,1,92.24,252Z" transform="translate(0 0)" style="fill:#263238"/><path d="M80.5,238.19a3,3,0,0,1-1.45.07c-.8-.07-1.43-.2-1.42-.31s.65-.14,1.45-.07A3.16,3.16,0,0,1,80.5,238.19Z" transform="translate(0 0)" style="fill:#263238"/><path d="M80.75,234.15c0,.1-.6-.06-1.25-.35s-1.14-.59-1.1-.69.6.06,1.25.35A2.9,2.9,0,0,1,80.75,234.15Z" transform="translate(0 0)" style="fill:#263238"/><path d="M82.83,231.16c-.06.08-.69-.21-1.34-.76s-1.07-1.1-1-1.17.59.35,1.23.88S82.88,231.1,82.83,231.16Z" transform="translate(0 0)" style="fill:#263238"/><path d="M84.92,228.33c-.1,0-.4-.43-.68-1s-.42-1.17-.32-1.21.39.43.67,1S85,228.29,84.92,228.33Z" transform="translate(0 0)" style="fill:#263238"/><path d="M88.19,226.32c-.09.05-.42-.45-.63-1.15s-.24-1.3-.14-1.31.29.53.5,1.2S88.29,226.28,88.19,226.32Z" transform="translate(0 0)" style="fill:#263238"/><path d="M93.66,224.1c.1,0,0,.47-.14,1s-.39.87-.49.83,0-.46.13-1S93.56,224,93.66,224.1Z" transform="translate(0 0)" style="fill:#263238"/><path d="M97.71,225.8c.08.08-.18.44-.58.8s-.77.6-.84.52.19-.44.58-.8S97.64,225.73,97.71,225.8Z" transform="translate(0 0)" style="fill:#263238"/><path d="M101.28,228.1c.06.09-.25.4-.7.71s-.87.48-.93.39.26-.4.71-.71S101.23,228,101.28,228.1Z" transform="translate(0 0)" style="fill:#263238"/><path d="M103.82,231.55a2.76,2.76,0,0,1-1.12.68c-.66.28-1.22.43-1.26.33s.45-.4,1.11-.68S103.78,231.45,103.82,231.55Z" transform="translate(0 0)" style="fill:#263238"/><path d="M104.82,235.3c0,.1-.5.25-1.14.33a2.82,2.82,0,0,1-1.18,0,2.42,2.42,0,0,1,1.13-.33C104.27,235.22,104.8,235.19,104.82,235.3Z" transform="translate(0 0)" style="fill:#263238"/><path d="M105.34,239.91c0,.1-.59,0-1.21-.32s-1.1-.57-1.06-.67.58.05,1.21.32S105.38,239.81,105.34,239.91Z" transform="translate(0 0)" style="fill:#263238"/><path d="M104.88,243.87c0,.1-.72-.07-1.43-.54s-1.15-1-1.07-1.09.6.33,1.27.77S104.92,243.77,104.88,243.87Z" transform="translate(0 0)" style="fill:#263238"/><path d="M102.82,247.48c-.06.08-.61-.24-1.13-.81s-.81-1.13-.72-1.19.49.39,1,.93S102.88,247.39,102.82,247.48Z" transform="translate(0 0)" style="fill:#263238"/><path d="M83.24,247.9c.05.09-.52.49-1.28.88s-1.41.64-1.46.54.53-.48,1.28-.88A3.36,3.36,0,0,1,83.24,247.9Z" transform="translate(0 0)" style="fill:#263238"/><path d="M81.5,244.64a2.38,2.38,0,0,1-1,.67c-.59.27-1.14.43-1.19.33s.42-.4,1-.67S81.41,244.54,81.5,244.64Z" transform="translate(0 0)" style="fill:#263238"/><path d="M80.14,241.75c0,.1-.55.27-1.27.37s-1.3.1-1.31,0,.55-.27,1.26-.38S80.12,241.65,80.14,241.75Z" transform="translate(0 0)" style="fill:#263238"/><path d="M84.5,240.16c0,.1-.52.35-1.26.44s-1.33,0-1.32-.15.58-.15,1.28-.23A4.44,4.44,0,0,1,84.5,240.16Z" transform="translate(0 0)" style="fill:#263238"/><path d="M88,236.59c0,.1-.41.32-1,.38s-1.06-.07-1-.17.46-.15,1-.21S88,236.49,88,236.59Z" transform="translate(0 0)" style="fill:#263238"/><path d="M88.71,233.74c0,.1-.5,0-1.06-.17s-1-.42-.93-.52.51,0,1.06.16S88.75,233.64,88.71,233.74Z" transform="translate(0 0)" style="fill:#263238"/><path d="M90,230.85c-.08.07-.4-.14-.63-.55s-.26-.79-.16-.82.28.28.49.63S90.11,230.78,90,230.85Z" transform="translate(0 0)" style="fill:#263238"/><path d="M88.5,242.67c0,.11-.39.29-.92.42a3.42,3.42,0,0,1-.78.12l-.07-.22H87s0,.11-.15.19l-.07-.22a3.82,3.82,0,0,1,.74-.26C88,242.59,88.42,242.57,88.5,242.67Z" transform="translate(0 0)" style="fill:#263238"/><path d="M89.18,247.74a2.86,2.86,0,0,1-1.17.66c-.69.27-1.27.41-1.31.31s.49-.4,1.17-.66S89.14,247.64,89.18,247.74Z" transform="translate(0 0)" style="fill:#263238"/><path d="M85.14,245.49c0,.1-.32.31-.78.46s-.88.21-.91.11.32-.31.78-.47S85.1,245.39,85.14,245.49Z" transform="translate(0 0)" style="fill:#263238"/><path d="M85.5,235.18c0,.1-.64,0-1.34-.21s-1.22-.58-1.17-.68.61.08,1.3.32A3.43,3.43,0,0,1,85.5,235.18Z" transform="translate(0 0)" style="fill:#263238"/><path d="M95.24,234.1c.06.09-.29.42-.77.74s-.92.5-1,.41.28-.42.76-.73S95.18,234,95.24,234.1Z" transform="translate(0 0)" style="fill:#263238"/><path d="M95.77,239.15c0,.1-.34.26-.8.36s-.87.09-.89,0,.34-.27.81-.37S95.75,239,95.77,239.15Z" transform="translate(0 0)" style="fill:#263238"/><path d="M96.39,244.86c0,.1-.56-.05-1.16-.32s-1-.58-1-.68.56,0,1.16.33S96.43,244.77,96.39,244.86Z" transform="translate(0 0)" style="fill:#263238"/><path d="M95.08,250.43c-.08.06-.42-.21-.75-.62s-.54-.79-.46-.86.42.21.75.62S95.16,250.36,95.08,250.43Z" transform="translate(0 0)" style="fill:#263238"/><path d="M94.81,230.32c.07.08-.16.36-.54.55s-.74.2-.76.1.25-.27.59-.44S94.75,230.23,94.81,230.32Z" transform="translate(0 0)" style="fill:#263238"/><path d="M99.61,235.45c0,.09-.41.34-1,.42s-1.1,0-1.09-.13.48-.17,1-.25S99.58,235.34,99.61,235.45Z" transform="translate(0 0)" style="fill:#263238"/><path d="M98.65,230.84c0,.1-.39.41-1,.61s-1.16.2-1.18.1.47-.27,1.07-.46S98.61,230.75,98.65,230.84Z" transform="translate(0 0)" style="fill:#263238"/><path d="M100.66,242.57a3,3,0,0,1-1.67,0c-.91-.17-1.59-.49-1.55-.59a16.73,16.73,0,0,1,3.22.58Z" transform="translate(0 0)" style="fill:#263238"/><path d="M98.88,249.26c-.07.08-.62-.24-1.18-.8s-.88-1.11-.79-1.18.53.37,1.06.91S98.94,249.18,98.88,249.26Z" transform="translate(0 0)" style="fill:#263238"/><path d="M91,225.4a18.54,18.54,0,0,0-3.34,2.65,16.3,16.3,0,0,0-4.17,9.21,21,21,0,0,0,.25,5.65,41.34,41.34,0,0,0,1.06,4.53c.36,1.28.7,2.3.93,3a8.31,8.31,0,0,1,.32,1.11,5.86,5.86,0,0,1-.46-1.06c-.27-.7-.65-1.71-1.05-3a37.41,37.41,0,0,1-1.15-4.55,20.16,20.16,0,0,1-.28-5.75,16.05,16.05,0,0,1,4.35-9.36,11.84,11.84,0,0,1,2.5-2c.32-.2.59-.31.76-.4A1.29,1.29,0,0,1,91,225.4Z" transform="translate(0 0)" style="fill:#263238"/><path d="M96.24,251.81a39.87,39.87,0,0,0,1.72-4.1,23.3,23.3,0,0,0,1-10.55,19.69,19.69,0,0,0-1.62-5.62,12.93,12.93,0,0,0-2.78-3.86A9.74,9.74,0,0,0,91.85,226c-.71-.29-1.13-.36-1.13-.4H91a6.42,6.42,0,0,1,.86.23,9.39,9.39,0,0,1,2.84,1.65,12.89,12.89,0,0,1,2.91,3.92,19.13,19.13,0,0,1,1.69,5.72,22.3,22.3,0,0,1-1.15,10.68c-.21.66-.49,1.23-.7,1.74a13.35,13.35,0,0,1-.63,1.26A7.83,7.83,0,0,1,96.24,251.81Z" transform="translate(0 0)" style="fill:#263238"/><path d="M229.35,227.28l-13.08,16.08h0a14.22,14.22,0,0,0,4.38,7.8,8,8,0,0,0,8,1.53h0s.86-1.44,3.25-5.29c4.6-7.3,7.6-21.11,7.6-21.11Z" transform="translate(0 0)" style="fill:#ffceb3"/><path d="M249.92,196.21a1.45,1.45,0,0,0-1.36-.34l-8.55,2a2.9,2.9,0,0,0-1.79,1.27L221.4,225.9l1.4.55,9.49-1.28,17.91-28.69Z" transform="translate(0 0)" style="fill:#263238"/><path d="M244,200.1a.57.57,0,0,0,.72-.21c.2-.24.22-.54,0-.67a.6.6,0,0,0-.72.21A.49.49,0,0,0,244,200.1Z" transform="translate(0 0)" style="fill:#fff"/><path d="M250.2,196.48a12,12,0,0,1-1.65.48L244,198.1l-3.13.75a2,2,0,0,0-1.3.85l-1,1.54-4.25,6.86c-3.06,4.86-5.86,9.24-7.9,12.41L224,224.25a10.47,10.47,0,0,1-1,1.34,9.91,9.91,0,0,1,.78-1.43l2.3-3.8c2-3.2,4.71-7.61,7.77-12.47,1.54-2.42,3-4.73,4.33-6.84l1-1.54a2.49,2.49,0,0,1,1.6-1l3.15-.7,4.56-1A12,12,0,0,1,250.2,196.48Z" transform="translate(0 0)" style="fill:#455a64"/><path d="M243.07,203.39s-.86-.06-1.23,2.16-1.58,8.58-1.58,8.58l-4.6-1.75-5.6,1.24s-1.17,1.17-.25,1.64a21,21,0,0,0,4.52.71l2.79,3.22-7.69-2.59s-2.49.85-1.68,2.19,6.1,5.26,6.1,5.26l-3.79.11-4.56-2.06s-1.37.2-.8,1.23,5.42,4.47,5.42,4.47l5.78,2s3.07-.53,3.33-1.4a9.63,9.63,0,0,0,.27-2.07s1.62-.57,1.89-1.33a4.4,4.4,0,0,0,0-1.91s2.59.16,2.85-1.19a13.89,13.89,0,0,0-.45-4.93c-.31-1,.59-10.59.47-10.87S244.66,202.6,243.07,203.39Z" transform="translate(0 0)" style="fill:#ffceb3"/><path d="M239.38,228.35a3.54,3.54,0,0,1-1.46.57,10.64,10.64,0,0,1-3.73.22,9.86,9.86,0,0,1-3.48-1.07c-.8-.44-1.2-.82-1.16-.88a20.16,20.16,0,0,0,4.75,1.42A22.16,22.16,0,0,0,239.38,228.35Z" transform="translate(0 0)" style="fill:#ff9c65"/><path d="M238,226.61a4.65,4.65,0,0,1-2.22-1c-1.11-.71-1.86-1.45-1.76-1.56a6.77,6.77,0,0,1,2.11,1.11C237.19,225.9,238,226.48,238,226.61Z" transform="translate(0 0)" style="fill:#ff9a6c"/><path d="M240.7,221.81c-.08.13-1.09-.24-2.14-1s-1.68-1.57-1.56-1.67.93.51,1.94,1.24S240.79,221.68,240.7,221.81Z" transform="translate(0 0)" style="fill:#ff9a6c"/><path d="M243.66,217.87c-.15.08-.77-.85-1.72-1.82s-1.85-1.66-1.76-1.79a4.13,4.13,0,0,1,2.21,1.42C243.39,216.71,243.8,217.81,243.66,217.87Z" transform="translate(0 0)" style="fill:#ff9c65"/><polygon points="329.44 440.21 325.36 440.21 327.4 289.61 336.12 289.61 329.44 440.21" style="fill:#e0e0e0"/><path d="M329.44,440.21v-.79c0-.52.06-1.32.06-2.32.08-2,.19-5,.35-8.74.31-7.6.77-18.57,1.34-32.16,1.18-27.17,2.81-64.78,4.63-106.64l.26.27H327.4l.26-.25c-1,73.83-1.92,135.25-2.24,150.59l-.06-.06h-.09v-.06c.1-15.34.84-76.77,1.84-150.6v-.26h9.25v.28c-1.9,41.92-3.61,79.6-4.85,106.81-.63,13.56-1.14,24.51-1.5,32.09-.18,3.76-.32,6.69-.42,8.68q-.07,1.47-.12,2.25A3.79,3.79,0,0,1,329.44,440.21Z" transform="translate(0 0)" style="fill:#263238"/><polygon points="76.97 440.53 72.9 440.53 70.58 289.18 79.3 289.18 76.97 440.53" style="fill:#e0e0e0"/><path d="M77,440.53v-3.09c0-2,0-5,.09-8.78.1-7.63.24-18.66.42-32.32.39-27.3.93-65.1,1.54-107.16l.26.26H70.57l.26-.26c1.13,74.2,2,136,2.12,151.35l-.06-.06h-.15v-.06c-.24-15.31-1.24-77-2.42-151.23v-.26h9.25v.26c-.69,42.15-1.31,80-1.76,107.36-.24,13.63-.43,24.63-.57,32.25-.07,3.78-.13,6.72-.17,8.73v2.25Z" transform="translate(0 0)" style="fill:#263238"/><rect x="50.58" y="277.6" width="292.94" height="12.55" style="fill:#455a64"/><path d="M50.58,277.6H73.36l62.46-.08,207.7-.11h.26v13.07h-.28l-292.94-.19H50.5v-.07l-.07-.07,293.07-.26-.26.26V277.6l.26.26L136,277.75l-62.49-.07H52.09Z" transform="translate(0 0)" style="fill:#263238"/><path d="M111.36,277.79s0,0-.09.13-.16.22-.3.38a5.93,5.93,0,0,1-1.44,1.15,8,8,0,0,1-2.77.93,18.56,18.56,0,0,1-3.87.17,34.66,34.66,0,0,1-4.65-.53,39.31,39.31,0,0,0-5.3-.63A32.71,32.71,0,0,0,81,281.7c-4.1,1.46-7.92,3.13-11.58,4.14a32.68,32.68,0,0,1-5.28,1.05,23,23,0,0,1-4.69,0A15.93,15.93,0,0,1,53,284.83a9.73,9.73,0,0,1-2-1.49l.14.09.38.29a15.6,15.6,0,0,0,1.54,1,16.47,16.47,0,0,0,6.42,1.91,22.49,22.49,0,0,0,4.64,0,33.11,33.11,0,0,0,5.22-1.07c3.63-1,7.43-2.69,11.55-4.16a33.07,33.07,0,0,1,12-2.3,41.52,41.52,0,0,1,5.33.67,39.92,39.92,0,0,0,4.62.57,19.61,19.61,0,0,0,3.83-.11,8,8,0,0,0,2.73-.86A7.21,7.21,0,0,0,111.36,277.79Z" transform="translate(0 0)" style="fill:#263238"/><path d="M80,278a6.1,6.1,0,0,1-.86.74,19.33,19.33,0,0,1-2.61,1.68A22,22,0,0,1,66.62,283a21.45,21.45,0,0,1-10-2.06,6.24,6.24,0,0,1-2.41-2,3.37,3.37,0,0,1-.4-.75,1,1,0,0,1-.07-.29,7.65,7.65,0,0,0,.58,1,6.48,6.48,0,0,0,2.41,1.83,22.1,22.1,0,0,0,9.88,1.94,23.94,23.94,0,0,0,5.52-.84,23.09,23.09,0,0,0,4.25-1.65A24.43,24.43,0,0,0,79,278.63,6.73,6.73,0,0,1,80,278Z" transform="translate(0 0)" style="fill:#263238"/><path d="M147.3,285.93l.45.16a8.55,8.55,0,0,0,1.32.35,7.8,7.8,0,0,0,5-.78v.16a11.89,11.89,0,0,0-6.23-2.43,12.15,12.15,0,0,0-8.1,2.1,1.26,1.26,0,0,0-.62.82.86.86,0,0,0,.53.81,4,4,0,0,0,1.11.39l1.23.28c1.64.36,3.33.72,5.09,1a29.78,29.78,0,0,0,5.42.31,18.56,18.56,0,0,0,2.78-.27c.46-.08.92-.17,1.38-.29a7,7,0,0,0,1.34-.43,4.36,4.36,0,0,0,1.74-1.26,2,2,0,0,0,.33-1.92,3.32,3.32,0,0,0-1.36-1.53,11.14,11.14,0,0,0-1.9-.93,26.05,26.05,0,0,0-8-1.65,33.09,33.09,0,0,0-13.61,2.11A33.77,33.77,0,0,0,127,287.4c-.87.68-1.55,1.21-2,1.61-.21.17-.37.32-.5.43l-.18.13a.75.75,0,0,1,.15-.16L125,289a19.49,19.49,0,0,1,1.94-1.66,33.14,33.14,0,0,1,21.89-6.8,26.63,26.63,0,0,1,8.08,1.66,11.32,11.32,0,0,1,2,1,3.62,3.62,0,0,1,1.5,1.69,2.33,2.33,0,0,1-.38,2.27,4.72,4.72,0,0,1-1.88,1.36,7.55,7.55,0,0,1-1.39.46c-.47.12-.94.21-1.41.29a19.23,19.23,0,0,1-2.83.27,30.49,30.49,0,0,1-5.48-.38c-1.77-.26-3.47-.63-5.12-1l-1.22-.29a3.92,3.92,0,0,1-1.2-.43,1.52,1.52,0,0,1-.5-.44,1,1,0,0,1-.19-.67,1.63,1.63,0,0,1,.76-1,12.44,12.44,0,0,1,8.31-2.11,12,12,0,0,1,6.32,2.54l.11.09-.13.07a7.73,7.73,0,0,1-5.13.71A5.6,5.6,0,0,1,147.3,285.93Z" transform="translate(0 0)" style="fill:#263238"/><path d="M184.22,278.1a2,2,0,0,1,.29.63,5,5,0,0,1,.19,1.89,9.28,9.28,0,0,1-2.8,5.47,13.88,13.88,0,0,1-2.61,2.22,11.28,11.28,0,0,1-2.52,1.22A10.33,10.33,0,0,1,175,290a2.69,2.69,0,0,1-.69.06c0-.07,1-.2,2.43-.75a12.94,12.94,0,0,0,2.42-1.26,15.07,15.07,0,0,0,2.53-2.19,9.46,9.46,0,0,0,2.86-5.25A6.62,6.62,0,0,0,184.22,278.1Z" transform="translate(0 0)" style="fill:#263238"/><path d="M235.75,289.49a17.69,17.69,0,0,0-1.32-1.28,9.34,9.34,0,0,0-4.49-2,10,10,0,0,0-3.41.1,14.18,14.18,0,0,1-4,.37,8,8,0,0,1-4-1.95,13.64,13.64,0,0,0-4-2.38,14.77,14.77,0,0,0-8.9-.14,21.19,21.19,0,0,0-6.58,3.34,37,37,0,0,0-3.82,3.25l-1,1a1.78,1.78,0,0,1-.35.32,1.52,1.52,0,0,1,.3-.37c.2-.24.52-.58.93-1a31.55,31.55,0,0,1,3.76-3.36,20.93,20.93,0,0,1,6.64-3.45,14.92,14.92,0,0,1,9.11.12,13.94,13.94,0,0,1,4.1,2.43,7.8,7.8,0,0,0,3.81,1.91,14.76,14.76,0,0,0,3.92-.34A10,10,0,0,1,230,286a9.33,9.33,0,0,1,4.55,2.09A6.35,6.35,0,0,1,235.75,289.49Z" transform="translate(0 0)" style="fill:#263238"/><path d="M281.75,277.72a2.61,2.61,0,0,1-.31.43,14.38,14.38,0,0,1-1,1.17,27.41,27.41,0,0,1-4.19,3.72,33.65,33.65,0,0,1-7.27,4,29.61,29.61,0,0,1-4.68,1.49,23.83,23.83,0,0,1-5.25.68,25.9,25.9,0,0,1-9.94-2.07,33.52,33.52,0,0,1-7.23-4.1,28,28,0,0,1-4.16-3.76c-.46-.47-.76-.9-1-1.16a2.67,2.67,0,0,1-.32-.43,3.32,3.32,0,0,1,.37.38c.24.25.55.66,1,1.12a31.05,31.05,0,0,0,4.2,3.65,34.09,34.09,0,0,0,7.21,4,25.88,25.88,0,0,0,9.82,2,23.7,23.7,0,0,0,5.17-.66,29,29,0,0,0,4.64-1.46,34.07,34.07,0,0,0,7.24-3.93,28.1,28.1,0,0,0,4.24-3.61,12.25,12.25,0,0,0,1-1.12A5,5,0,0,1,281.75,277.72Z" transform="translate(0 0)" style="fill:#263238"/><path d="M275.18,277.6a2.09,2.09,0,0,1-.25.2c-.17.12-.41.3-.74.5a29,29,0,0,1-2.87,1.63,30.86,30.86,0,0,1-4.54,1.85,19.88,19.88,0,0,1-5.93,1,25.26,25.26,0,0,1-13.35-4.32c-.32-.22-.56-.41-.72-.53l-.24-.21c.34.19.68.4,1,.62a28.65,28.65,0,0,0,2.88,1.57,25.4,25.4,0,0,0,10.41,2.53,20.61,20.61,0,0,0,5.83-1,33.22,33.22,0,0,0,4.53-1.77c1.25-.59,2.24-1.13,2.91-1.51A9.21,9.21,0,0,1,275.18,277.6Z" transform="translate(0 0)" style="fill:#263238"/><path d="M325.36,278.89h-.57l-1.62-.06-1.17-.05h-4.78l-2,.07-2.12.14c-1.48.07-3,.27-4.65.43-3.25.41-6.76,1-10.34,1.79a89.27,89.27,0,0,0-9.68,2.77c-1.39.52-2.76,1-3.93,1.5l-1.74.72-1.53.72c-1,.45-1.82.9-2.56,1.29l-1,.55-.82.48-1.14.67a2.18,2.18,0,0,1-.43.22,2.9,2.9,0,0,1,.34-.27l1.06-.71.78-.51,1-.57c.72-.41,1.53-.88,2.51-1.34l1.52-.74,1.73-.75c1.18-.53,2.54-1,3.94-1.54a92,92,0,0,1,9.75-2.82c3.61-.81,7.17-1.38,10.44-1.78,1.66-.15,3.22-.34,4.71-.4l2.14-.13H322l1.17.08,1.61.13A2.21,2.21,0,0,1,325.36,278.89Z" transform="translate(0 0)" style="fill:#263238"/><path d="M240.9,289.24a14.17,14.17,0,0,0-1.58-1.88,14.53,14.53,0,0,0-5.82-3.26,31.57,31.57,0,0,0-4.51-1c-1.64-.26-3.42-.46-5.27-.78a43.66,43.66,0,0,1-5.73-1.44,37.65,37.65,0,0,0-6.12-1.48,25.45,25.45,0,0,0-11.9,1.65,44.81,44.81,0,0,0-4.85,2.17c-1.48.76-2.84,1.51-4.08,2.21-2.46,1.4-4.43,2.59-5.79,3.42l-1.55,1-.41.25-.15.07.13-.11.39-.27c.34-.24.85-.58,1.52-1,1.33-.86,3.28-2.09,5.74-3.52,1.23-.71,2.59-1.47,4.07-2.25a43.43,43.43,0,0,1,4.86-2.22A25.57,25.57,0,0,1,212,279.1a37.26,37.26,0,0,1,6.17,1.5,46.35,46.35,0,0,0,5.68,1.45c1.84.32,3.62.54,5.27.81a32.12,32.12,0,0,1,4.54,1.05,14.44,14.44,0,0,1,5.8,3.37A7.28,7.28,0,0,1,240.9,289.24Z" transform="translate(0 0)" style="fill:#263238"/><path d="M176.28,277.79a3.55,3.55,0,0,1-.05.8,9.08,9.08,0,0,1-.56,2.12,12.15,12.15,0,0,1-4.41,5.64,29.7,29.7,0,0,1-6.53,3c-.88.29-1.59.5-2.09.63a3.38,3.38,0,0,1-.78.16,3.19,3.19,0,0,1,.74-.3l2-.73A33.28,33.28,0,0,0,171,286a12.45,12.45,0,0,0,4.37-5.44A18.31,18.31,0,0,0,176.28,277.79Z" transform="translate(0 0)" style="fill:#263238"/><path d="M109.67,290.15a4.44,4.44,0,0,1,.7-.67c.46-.42,1.15-1,2-1.67a57.42,57.42,0,0,1,7.32-4.72c3-1.64,5.76-2.95,7.78-3.88,1-.46,1.84-.83,2.41-1.07a4.93,4.93,0,0,1,.9-.35,5.31,5.31,0,0,1-.84.47l-2.36,1.18c-2,1-4.75,2.33-7.72,4a69,69,0,0,0-7.34,4.61c-.9.65-1.62,1.19-2.11,1.57A5.53,5.53,0,0,1,109.67,290.15Z" transform="translate(0 0)" style="fill:#263238"/><path d="M123.18,278.3a11,11,0,0,0-1.85,0,13,13,0,0,0-4.78,1.45,44.13,44.13,0,0,0-6.22,4.17,30.81,30.81,0,0,1-3.75,2.43,20.55,20.55,0,0,1-4.47,1.72,41.67,41.67,0,0,1-9.17,1.11c-2.84.08-5.39,0-7.52.11a38,38,0,0,0-5,.49l-1.35.27a3.55,3.55,0,0,1-.47.09,2.18,2.18,0,0,1,.45-.16c.3-.09.76-.2,1.34-.33a33.64,33.64,0,0,1,5-.61c2.14-.12,4.69-.09,7.52-.19a42.82,42.82,0,0,0,9.09-1.12,21,21,0,0,0,4.4-1.69,30.86,30.86,0,0,0,3.72-2.38,40.92,40.92,0,0,1,6.3-4.13,12.47,12.47,0,0,1,4.88-1.37,10.75,10.75,0,0,1,1.39,0A2.75,2.75,0,0,1,123.18,278.3Z" transform="translate(0 0)" style="fill:#263238"/></g></svg>