<svg xmlns="http://www.w3.org/2000/svg" viewBox="0 0 16 16"><title>EFD2_grey</title><g id="Layer_2" data-name="Layer 2"><g id="Layer_1-2" data-name="Layer 1"><path d="M9.26,9.21a5.14,5.14,0,0,0-1.53-.9A4.82,4.82,0,0,0,6,8a4.91,4.91,0,0,0-1.33.18,5.45,5.45,0,0,0-1.19.5,5.51,5.51,0,0,0-1,.78,5.51,5.51,0,0,0-.78,1,5.45,5.45,0,0,0-.5,1.19A4.91,4.91,0,0,0,1,13H0a5.7,5.7,0,0,1,.28-1.8,5.86,5.86,0,0,1,.78-1.61,6.05,6.05,0,0,1,1.23-1.3,5.65,5.65,0,0,1,1.59-.9A4.15,4.15,0,0,1,2.5,5.94,3.89,3.89,0,0,1,2,4a3.91,3.91,0,0,1,.31-1.56A4.06,4.06,0,0,1,4.44.31,3.91,3.91,0,0,1,6,0,3.91,3.91,0,0,1,7.56.31,4.06,4.06,0,0,1,9.69,2.44,3.91,3.91,0,0,1,10,4a3.83,3.83,0,0,1-.13,1,3.76,3.76,0,0,1-.37.93,4.19,4.19,0,0,1-.59.81,4,4,0,0,1-.78.64,5.74,5.74,0,0,1,1,.48A6,6,0,0,1,10,8.5ZM3,4a3,3,0,0,0,.23,1.17,3.12,3.12,0,0,0,1.6,1.6,3.07,3.07,0,0,0,2.33,0,3.07,3.07,0,0,0,1-.65,3.15,3.15,0,0,0,.65-1,3.07,3.07,0,0,0,0-2.33A3.07,3.07,0,0,0,7.16,1.23a3.07,3.07,0,0,0-2.33,0,3.15,3.15,0,0,0-1,.65,3.07,3.07,0,0,0-.65,1A3,3,0,0,0,3,4ZM13.5,6a2.44,2.44,0,0,1,1,.2A2.59,2.59,0,0,1,15.8,7.53a2.5,2.5,0,0,1-.54,2.74,2.39,2.39,0,0,1-.79.53,2.28,2.28,0,0,1-1,.2l-.35,0L8.56,15.56a1.51,1.51,0,0,1-.49.33A1.56,1.56,0,0,1,7.5,16a1.48,1.48,0,0,1-.59-.12,1.52,1.52,0,0,1-.79-.79A1.48,1.48,0,0,1,6,14.5a1.56,1.56,0,0,1,.11-.57,1.51,1.51,0,0,1,.33-.49L11,8.85c0-.11,0-.23,0-.35a2.44,2.44,0,0,1,.2-1,2.39,2.39,0,0,1,.53-.79A2.52,2.52,0,0,1,13.5,6Zm0,4a1.48,1.48,0,0,0,.59-.12,1.52,1.52,0,0,0,.79-.79,1.47,1.47,0,0,0,0-1.23L13.71,9H13V8.29l1.14-1.14a1.47,1.47,0,0,0-1.23,0,1.52,1.52,0,0,0-.79.79,1.47,1.47,0,0,0,0,1.23l-5,5A.49.49,0,0,0,7,14.5a.5.5,0,0,0,.85.35l5-5A1.5,1.5,0,0,0,13.5,10Z"/></g></g></svg>