<svg xmlns="http://www.w3.org/2000/svg" viewBox="0 0 14 16"><title>EFF1_grey</title><g id="Layer_2" data-name="Layer 2"><g id="Layer_1-2" data-name="Layer 1"><path d="M4.05,15a2.88,2.88,0,0,0,.17.52A2.31,2.31,0,0,0,4.5,16H0V2H4a1.85,1.85,0,0,1,.16-.78A1.81,1.81,0,0,1,4.59.59,1.81,1.81,0,0,1,5.22.16a2,2,0,0,1,1.56,0,1.81,1.81,0,0,1,.63.43,1.81,1.81,0,0,1,.43.63A1.85,1.85,0,0,1,8,2h4V6l-.25,0h-.5L11,6V3H10V5H2V3H1V15ZM11.5,7a2.44,2.44,0,0,1,1,.2A2.59,2.59,0,0,1,13.8,8.53a2.5,2.5,0,0,1-.54,2.74,2.39,2.39,0,0,1-.79.53,2.28,2.28,0,0,1-1,.2l-.35,0L7.56,15.56a1.51,1.51,0,0,1-.49.33A1.56,1.56,0,0,1,6.5,16a1.48,1.48,0,0,1-.59-.12,1.52,1.52,0,0,1-.79-.79A1.48,1.48,0,0,1,5,14.5a1.56,1.56,0,0,1,.11-.57,1.51,1.51,0,0,1,.33-.49L7,11.88a2.07,2.07,0,0,0-.19-.74,2,2,0,0,0-.44-.6,2.13,2.13,0,0,0-.62-.4A2,2,0,0,0,5,10a1.85,1.85,0,0,0-.78.16,1.81,1.81,0,0,0-.63.43,1.81,1.81,0,0,0-.43.63A1.85,1.85,0,0,0,3,12H2a3,3,0,0,1,.11-.79,3.14,3.14,0,0,1,.31-.73,2.92,2.92,0,0,1,.48-.63,2.77,2.77,0,0,1,.65-.47,2.26,2.26,0,0,1-.41-.64A2.07,2.07,0,0,1,3,8a1.85,1.85,0,0,1,.16-.78,1.81,1.81,0,0,1,.43-.63,1.81,1.81,0,0,1,.63-.43A1.85,1.85,0,0,1,5,6a1.85,1.85,0,0,1,.78.16,1.81,1.81,0,0,1,.63.43,1.81,1.81,0,0,1,.43.63A1.85,1.85,0,0,1,7,8a2,2,0,0,1-.55,1.38,2.75,2.75,0,0,1,.85.7,2.94,2.94,0,0,1,.54,1L9,9.85c0-.11,0-.23,0-.35a2.44,2.44,0,0,1,.2-1,2.39,2.39,0,0,1,.53-.79A2.52,2.52,0,0,1,11.5,7ZM3,4H9V3H7V2a1,1,0,0,0-.08-.39.94.94,0,0,0-.53-.53,1,1,0,0,0-.78,0,.94.94,0,0,0-.53.53A1,1,0,0,0,5,2V3H3ZM4,8a1,1,0,0,0,.08.39.94.94,0,0,0,.53.53,1,1,0,0,0,.78,0,.94.94,0,0,0,.53-.53,1,1,0,0,0,0-.78.94.94,0,0,0-.53-.53,1,1,0,0,0-.78,0,.94.94,0,0,0-.53.53A1,1,0,0,0,4,8Zm7.5,3a1.48,1.48,0,0,0,.59-.12,1.52,1.52,0,0,0,.79-.79,1.47,1.47,0,0,0,0-1.23L11.71,10H11V9.29l1.14-1.14a1.47,1.47,0,0,0-1.23,0,1.52,1.52,0,0,0-.79.79,1.47,1.47,0,0,0,0,1.23l-4,4A.49.49,0,0,0,6,14.5a.5.5,0,0,0,.85.35l4-4A1.5,1.5,0,0,0,11.5,11Z"/></g></g></svg>