<svg xmlns="http://www.w3.org/2000/svg" viewBox="0 0 24 24"><title>Asset 3</title><g id="Layer_2" data-name="Layer 2"><g id="Layer_1-2" data-name="Layer 1"><path d="M10.5,18.16l-.7.72a5.29,5.29,0,0,0-.56.71,3.49,3.49,0,0,0-.39.8,4,4,0,0,0-.19,1L0,17.05V4.87L9.75,0,19.5,4.87V8.69a6.41,6.41,0,0,0-.76.16,4.07,4.07,0,0,0-.74.26V6.55L10.5,10.3ZM9,10.3,1.5,6.55v9.57L9,19.87Zm3.54-2.69L5.25,3.93,2.43,5.33,9.75,9ZM6.93,3.09,14.2,6.77l2.87-1.44L9.75,1.68ZM20.25,10.5a3.52,3.52,0,0,1,1.45.3,3.86,3.86,0,0,1,2,2,3.52,3.52,0,0,1,.3,1.45,3.6,3.6,0,0,1-.3,1.46,3.86,3.86,0,0,1-2,2,3.68,3.68,0,0,1-1.45.29,3.08,3.08,0,0,1-.53,0l-5.38,5.38a2.13,2.13,0,0,1-.73.49,2.31,2.31,0,0,1-.86.17,2.2,2.2,0,0,1-.88-.18,2.26,2.26,0,0,1-1.19-1.19,2.2,2.2,0,0,1-.18-.88,2.31,2.31,0,0,1,.17-.86,2.13,2.13,0,0,1,.49-.73l5.38-5.38a3.15,3.15,0,0,1,0-.53,3.68,3.68,0,0,1,.29-1.45,3.78,3.78,0,0,1,.8-1.19,3.85,3.85,0,0,1,1.2-.81A3.6,3.6,0,0,1,20.25,10.5Zm0,6a2.16,2.16,0,0,0,.88-.18,2.26,2.26,0,0,0,1.19-1.19,2.2,2.2,0,0,0,.18-.88,2.24,2.24,0,0,0-.22-1L20.57,15H19.5V13.93l1.71-1.71a2.24,2.24,0,0,0-1-.22,2.16,2.16,0,0,0-.88.18,2.26,2.26,0,0,0-1.19,1.19,2.16,2.16,0,0,0-.18.88,2.24,2.24,0,0,0,.22,1l-6,6a.75.75,0,0,0,0,1.06.75.75,0,0,0,1.06,0l6-6A2.24,2.24,0,0,0,20.25,16.5Z"/></g></g></svg>